M48
;Layer_Color=9474304
;FILE_FORMAT=2:4
INCH,TZ
;TYPE=PLATED
T01F00S00C0.0098
T02F00S00C0.0120
T03F00S00C0.0354
;TYPE=NON_PLATED
T04F00S00C0.0236
%
T01
X5738Y1098
X6738
X7738
X8738
X9738
X10738
X11738
X12238Y2098
X11238
X10345Y1991
X9238Y2098
X8238
X7238
X6238
X5238
X6238Y4098
X7057Y4488
X7738Y5098
X8376Y5108
X8738Y5098
X8238Y4098
X11238
X12238
X4921Y4537
X3447Y4592
X1738Y5098
X738
X1238Y4098
X738Y3098
X1738Y1098
X2559Y1102
X3738Y1098
X4738
X4191Y2097
X4238Y6098
X4531Y6191
X4954Y5929
X4811Y5611
X3701Y5787
X3238Y6098
X3268Y6358
X4026Y6378
X4183Y7205
X3738Y7098
X2738
X2913Y6811
X1238Y6098
X738Y7098
X1238Y8098
X1738Y9098
X738
X2238Y10098
X3238
X3730Y9793
X4360
X4238Y10098
X4350Y10404
X4715Y10748
X3730Y10876
X3730Y9016
Y8533
X4035
X4793Y8839
X4685Y9065
X4843Y7904
X5463Y9843
X5728Y10581
X5157Y10748
X6250Y10098
X6516Y9518
X7766Y9744
X8012Y9449
X8701Y9715
X8967Y9793
X9065Y9606
X8927Y9094
X8681
X8494Y8730
X9114Y8760
X9420Y8706
X9500Y8456
X9980
X10354
X10728Y8455
Y7825
X10344
X9965
X9616
X9498Y7402
X9065Y7825
X8711Y7530
X8474Y7953
X9000Y8466
X9016Y6535
X8720Y6526
X8583Y5935
X7864Y5929
X7854Y5423
X7087Y5929
X6634
X6142
X5787
X5432
X5699Y5453
X6171Y5433
X9213Y5709
X9238Y6098
X10079Y7087
X11181
X11238Y6098
X12238
X11486Y7835
X11496Y8484
X11238Y10098
X12238
X10238
X9880Y9856
X9430Y10146
X9075Y10876
X8376
X7219Y10719
X7382Y10522
X9970Y10876
X10561Y9469
T02
X6142Y7047
Y7520
Y7992
Y8465
X6667
Y7992
Y7520
Y7047
X7192
Y7520
Y7992
Y8465
X7717
Y7992
Y7520
Y7047
T03
X5094Y3268
X6094
X7094
X8094
X9094
X4094
X2136Y7307
Y8307
T04
X10827Y0
X11220
X11614
X0Y8268
Y8661
Y9055
X10827Y11220
X11220
X11614
X15315Y9055
Y8661
Y8268
M30
