G04*
G04 #@! TF.GenerationSoftware,Altium Limited,Altium Designer,24.0.1 (36)*
G04*
G04 Layer_Physical_Order=4*
G04 Layer_Color=13137664*
%FSLAX24Y24*%
%MOIN*%
G70*
G04*
G04 #@! TF.SameCoordinates,9228D32E-8527-4A6C-AAF6-1CDB9724A3A0*
G04*
G04*
G04 #@! TF.FilePolarity,Positive*
G04*
G01*
G75*
%ADD10C,0.0394*%
%ADD29C,0.0049*%
%ADD30C,0.0118*%
%ADD31C,0.0098*%
%ADD35C,0.0079*%
%ADD43C,0.0236*%
%ADD44R,0.0591X0.0591*%
%ADD45C,0.0591*%
%ADD46R,0.0591X0.0591*%
%ADD47C,0.0197*%
%ADD48C,0.0240*%
G36*
X37121Y34893D02*
X37117Y34888D01*
X37100Y34803D01*
X37117Y34718D01*
X37166Y34646D01*
X37187Y34631D01*
Y34581D01*
X37166Y34567D01*
X37117Y34495D01*
X37100Y34409D01*
X37117Y34324D01*
X37166Y34252D01*
X37187Y34238D01*
Y34188D01*
X37166Y34173D01*
X37117Y34101D01*
X37100Y34016D01*
X37117Y33931D01*
X37166Y33858D01*
X37187Y33844D01*
Y33794D01*
X37166Y33779D01*
X37117Y33707D01*
X37100Y33622D01*
X37117Y33537D01*
X37166Y33465D01*
X37187Y33450D01*
Y33400D01*
X37166Y33386D01*
X37117Y33313D01*
X37100Y33228D01*
X37117Y33143D01*
X37166Y33071D01*
X37187Y33056D01*
Y33006D01*
X37166Y32992D01*
X37117Y32920D01*
X37100Y32835D01*
X37117Y32750D01*
X37166Y32677D01*
X37187Y32663D01*
Y32613D01*
X37166Y32598D01*
X37117Y32526D01*
X37100Y32441D01*
X37117Y32356D01*
X37166Y32284D01*
X37187Y32269D01*
Y32219D01*
X37166Y32204D01*
X37117Y32132D01*
X37100Y32047D01*
X37117Y31962D01*
X37166Y31890D01*
X37187Y31875D01*
Y31825D01*
X37166Y31811D01*
X37117Y31739D01*
X37100Y31654D01*
X37117Y31568D01*
X37166Y31496D01*
X37187Y31482D01*
Y31432D01*
X37166Y31417D01*
X37117Y31345D01*
X37100Y31260D01*
X37117Y31175D01*
X37166Y31103D01*
X37187Y31088D01*
Y31038D01*
X37166Y31023D01*
X37117Y30951D01*
X37100Y30866D01*
X37117Y30781D01*
X37166Y30709D01*
X37187Y30694D01*
Y30644D01*
X37166Y30630D01*
X37117Y30558D01*
X37100Y30472D01*
X37117Y30387D01*
X37166Y30315D01*
X37187Y30301D01*
Y30251D01*
X37166Y30236D01*
X37117Y30164D01*
X37100Y30079D01*
X37117Y29994D01*
X37132Y29971D01*
X37106Y29921D01*
X6108Y29921D01*
X6082Y29971D01*
X6111Y30015D01*
X6128Y30100D01*
X6111Y30186D01*
X6063Y30258D01*
X6041Y30272D01*
Y30322D01*
X6063Y30337D01*
X6111Y30409D01*
X6128Y30494D01*
X6111Y30579D01*
X6063Y30651D01*
X6041Y30666D01*
Y30716D01*
X6063Y30731D01*
X6111Y30803D01*
X6128Y30888D01*
X6111Y30973D01*
X6063Y31045D01*
X6041Y31060D01*
Y31110D01*
X6063Y31124D01*
X6111Y31196D01*
X6128Y31282D01*
X6111Y31367D01*
X6063Y31439D01*
X6041Y31453D01*
Y31503D01*
X6063Y31518D01*
X6111Y31590D01*
X6128Y31675D01*
X6111Y31760D01*
X6063Y31832D01*
X6041Y31847D01*
Y31897D01*
X6063Y31912D01*
X6111Y31984D01*
X6128Y32069D01*
X6111Y32154D01*
X6063Y32226D01*
X6041Y32241D01*
Y32291D01*
X6063Y32305D01*
X6111Y32378D01*
X6128Y32463D01*
X6111Y32548D01*
X6063Y32620D01*
X6041Y32634D01*
Y32684D01*
X6063Y32699D01*
X6111Y32771D01*
X6128Y32856D01*
X6111Y32941D01*
X6063Y33014D01*
X6041Y33028D01*
Y33078D01*
X6063Y33093D01*
X6111Y33165D01*
X6128Y33250D01*
X6111Y33335D01*
X6063Y33407D01*
X6041Y33422D01*
Y33472D01*
X6063Y33486D01*
X6111Y33559D01*
X6128Y33644D01*
X6111Y33729D01*
X6063Y33801D01*
X6041Y33816D01*
Y33866D01*
X6063Y33880D01*
X6111Y33952D01*
X6128Y34037D01*
X6111Y34123D01*
X6063Y34195D01*
X6041Y34209D01*
Y34259D01*
X6063Y34274D01*
X6111Y34346D01*
X6128Y34431D01*
X6111Y34516D01*
X6063Y34588D01*
X6041Y34603D01*
Y34653D01*
X6063Y34668D01*
X6111Y34740D01*
X6128Y34825D01*
X6115Y34887D01*
X6148Y34937D01*
X37097D01*
X37121Y34893D01*
D02*
G37*
G36*
X34409Y18015D02*
X33757D01*
X33717Y18055D01*
X33655Y18081D01*
X33589D01*
X33527Y18055D01*
X33487Y18015D01*
X33363D01*
X33323Y18055D01*
X33262Y18081D01*
X33195D01*
X33134Y18055D01*
X33094Y18015D01*
X32969D01*
X32929Y18055D01*
X32868Y18081D01*
X32801D01*
X32740Y18055D01*
X32700Y18015D01*
X23822D01*
X22110Y19727D01*
Y26046D01*
X22150Y26086D01*
X22175Y26148D01*
Y26214D01*
X22150Y26276D01*
X22110Y26316D01*
Y26440D01*
X22150Y26480D01*
X22175Y26542D01*
Y26608D01*
X22150Y26670D01*
X22110Y26709D01*
Y26834D01*
X22150Y26874D01*
X22175Y26935D01*
Y27002D01*
X22150Y27063D01*
X22110Y27103D01*
Y27320D01*
X23822Y29032D01*
X32700D01*
X32740Y28992D01*
X32801Y28967D01*
X32868D01*
X32929Y28992D01*
X32969Y29032D01*
X33094D01*
X33134Y28992D01*
X33195Y28967D01*
X33262D01*
X33323Y28992D01*
X33363Y29032D01*
X33487D01*
X33527Y28992D01*
X33589Y28967D01*
X33655D01*
X33717Y28992D01*
X33757Y29032D01*
X34409D01*
Y18015D01*
D02*
G37*
G36*
X18307D02*
X17654D01*
X17614Y18055D01*
X17553Y18081D01*
X17486D01*
X17425Y18055D01*
X17385Y18015D01*
X17261D01*
X17221Y18055D01*
X17159Y18081D01*
X17093D01*
X17031Y18055D01*
X16991Y18015D01*
X16867D01*
X16827Y18055D01*
X16766Y18081D01*
X16699D01*
X16638Y18055D01*
X16598Y18015D01*
X7719D01*
X6007Y19727D01*
Y26046D01*
X6047Y26086D01*
X6073Y26148D01*
Y26214D01*
X6047Y26276D01*
X6007Y26316D01*
Y26440D01*
X6047Y26480D01*
X6073Y26542D01*
Y26608D01*
X6047Y26670D01*
X6007Y26709D01*
Y26834D01*
X6047Y26874D01*
X6073Y26935D01*
Y27002D01*
X6047Y27063D01*
X6007Y27103D01*
Y27320D01*
X7719Y29032D01*
X16598D01*
X16638Y28992D01*
X16699Y28967D01*
X16766D01*
X16827Y28992D01*
X16867Y29032D01*
X16991D01*
X17031Y28992D01*
X17093Y28967D01*
X17159D01*
X17221Y28992D01*
X17261Y29032D01*
X17385D01*
X17425Y28992D01*
X17486Y28967D01*
X17553D01*
X17614Y28992D01*
X17654Y29032D01*
X18307D01*
Y18015D01*
D02*
G37*
G36*
X34409Y6007D02*
X33757D01*
X33717Y6047D01*
X33655Y6073D01*
X33589D01*
X33527Y6047D01*
X33487Y6007D01*
X33363D01*
X33323Y6047D01*
X33262Y6073D01*
X33195D01*
X33134Y6047D01*
X33094Y6007D01*
X32969D01*
X32929Y6047D01*
X32868Y6073D01*
X32801D01*
X32740Y6047D01*
X32700Y6007D01*
X23822D01*
X22110Y7719D01*
Y14039D01*
X22150Y14078D01*
X22175Y14140D01*
Y14207D01*
X22150Y14268D01*
X22110Y14308D01*
Y14432D01*
X22150Y14472D01*
X22175Y14534D01*
Y14600D01*
X22150Y14662D01*
X22110Y14702D01*
Y14826D01*
X22150Y14866D01*
X22175Y14927D01*
Y14994D01*
X22150Y15055D01*
X22110Y15095D01*
Y15312D01*
X23822Y17024D01*
X32700D01*
X32740Y16984D01*
X32801Y16959D01*
X32868D01*
X32929Y16984D01*
X32969Y17024D01*
X33094D01*
X33134Y16984D01*
X33195Y16959D01*
X33262D01*
X33323Y16984D01*
X33363Y17024D01*
X33487D01*
X33527Y16984D01*
X33589Y16959D01*
X33655D01*
X33717Y16984D01*
X33757Y17024D01*
X34409D01*
Y6007D01*
D02*
G37*
G36*
X18307D02*
X17654D01*
X17614Y6047D01*
X17553Y6073D01*
X17486D01*
X17425Y6047D01*
X17385Y6007D01*
X17261D01*
X17221Y6047D01*
X17159Y6073D01*
X17093D01*
X17031Y6047D01*
X16991Y6007D01*
X16867D01*
X16827Y6047D01*
X16766Y6073D01*
X16699D01*
X16638Y6047D01*
X16598Y6007D01*
X7719D01*
X6007Y7719D01*
Y14039D01*
X6047Y14078D01*
X6073Y14140D01*
Y14207D01*
X6047Y14268D01*
X6007Y14308D01*
Y14432D01*
X6047Y14472D01*
X6073Y14534D01*
Y14600D01*
X6047Y14662D01*
X6007Y14702D01*
Y14826D01*
X6047Y14866D01*
X6073Y14927D01*
Y14994D01*
X6047Y15055D01*
X6007Y15095D01*
Y15312D01*
X7719Y17024D01*
X16598D01*
X16638Y16984D01*
X16699Y16959D01*
X16766D01*
X16827Y16984D01*
X16867Y17024D01*
X16991D01*
X17031Y16984D01*
X17093Y16959D01*
X17159D01*
X17221Y16984D01*
X17261Y17024D01*
X17385D01*
X17425Y16984D01*
X17486Y16959D01*
X17553D01*
X17614Y16984D01*
X17654Y17024D01*
X18307D01*
Y6007D01*
D02*
G37*
G36*
X43126Y102D02*
X37548D01*
X37525Y146D01*
X37528Y151D01*
X37545Y236D01*
X37528Y321D01*
X37480Y394D01*
X37458Y408D01*
Y458D01*
X37480Y473D01*
X37528Y545D01*
X37545Y630D01*
X37528Y715D01*
X37480Y787D01*
X37458Y802D01*
Y852D01*
X37480Y866D01*
X37528Y939D01*
X37545Y1024D01*
X37528Y1109D01*
X37480Y1181D01*
X37458Y1195D01*
Y1245D01*
X37480Y1260D01*
X37528Y1332D01*
X37545Y1417D01*
X37528Y1502D01*
X37480Y1575D01*
X37458Y1589D01*
Y1639D01*
X37480Y1654D01*
X37528Y1726D01*
X37545Y1811D01*
X37528Y1896D01*
X37480Y1968D01*
X37458Y1983D01*
Y2033D01*
X37480Y2047D01*
X37528Y2120D01*
X37545Y2205D01*
X37528Y2290D01*
X37480Y2362D01*
X37458Y2377D01*
Y2427D01*
X37480Y2441D01*
X37528Y2513D01*
X37545Y2598D01*
X37528Y2684D01*
X37480Y2756D01*
X37458Y2770D01*
Y2820D01*
X37480Y2835D01*
X37528Y2907D01*
X37545Y2992D01*
X37528Y3077D01*
X37480Y3149D01*
X37458Y3164D01*
Y3214D01*
X37480Y3229D01*
X37528Y3301D01*
X37545Y3386D01*
X37528Y3471D01*
X37480Y3543D01*
X37458Y3558D01*
Y3608D01*
X37480Y3622D01*
X37528Y3694D01*
X37545Y3780D01*
X37528Y3865D01*
X37480Y3937D01*
X37458Y3951D01*
Y4001D01*
X37480Y4016D01*
X37528Y4088D01*
X37545Y4173D01*
X37528Y4258D01*
X37480Y4330D01*
X37458Y4345D01*
Y4395D01*
X37480Y4410D01*
X37528Y4482D01*
X37545Y4567D01*
X37528Y4652D01*
X37480Y4724D01*
X37458Y4739D01*
Y4789D01*
X37480Y4803D01*
X37528Y4876D01*
X37545Y4961D01*
X37528Y5046D01*
X37513Y5068D01*
X37540Y5118D01*
X38110D01*
X38110Y29921D01*
X37540D01*
X37513Y29971D01*
X37528Y29994D01*
X37545Y30079D01*
X37528Y30164D01*
X37480Y30236D01*
X37458Y30251D01*
Y30301D01*
X37480Y30315D01*
X37528Y30387D01*
X37545Y30472D01*
X37528Y30558D01*
X37480Y30630D01*
X37458Y30644D01*
Y30694D01*
X37480Y30709D01*
X37528Y30781D01*
X37545Y30866D01*
X37528Y30951D01*
X37480Y31023D01*
X37458Y31038D01*
Y31088D01*
X37480Y31103D01*
X37528Y31175D01*
X37545Y31260D01*
X37528Y31345D01*
X37480Y31417D01*
X37458Y31432D01*
Y31482D01*
X37480Y31496D01*
X37528Y31568D01*
X37545Y31654D01*
X37528Y31739D01*
X37480Y31811D01*
X37458Y31825D01*
Y31875D01*
X37480Y31890D01*
X37528Y31962D01*
X37545Y32047D01*
X37528Y32132D01*
X37480Y32204D01*
X37458Y32219D01*
Y32269D01*
X37480Y32284D01*
X37528Y32356D01*
X37545Y32441D01*
X37528Y32526D01*
X37480Y32598D01*
X37458Y32613D01*
Y32663D01*
X37480Y32677D01*
X37528Y32750D01*
X37545Y32835D01*
X37528Y32920D01*
X37480Y32992D01*
X37458Y33006D01*
Y33056D01*
X37480Y33071D01*
X37528Y33143D01*
X37545Y33228D01*
X37528Y33313D01*
X37480Y33386D01*
X37458Y33400D01*
Y33450D01*
X37480Y33465D01*
X37528Y33537D01*
X37545Y33622D01*
X37528Y33707D01*
X37480Y33779D01*
X37458Y33794D01*
Y33844D01*
X37480Y33858D01*
X37528Y33931D01*
X37545Y34016D01*
X37528Y34101D01*
X37480Y34173D01*
X37458Y34188D01*
Y34238D01*
X37480Y34252D01*
X37528Y34324D01*
X37545Y34409D01*
X37528Y34495D01*
X37480Y34567D01*
X37458Y34581D01*
Y34631D01*
X37480Y34646D01*
X37528Y34718D01*
X37545Y34803D01*
X37528Y34888D01*
X37525Y34893D01*
X37548Y34937D01*
X43126D01*
X43126Y102D01*
D02*
G37*
G36*
X37106Y5118D02*
X37132Y5068D01*
X37117Y5046D01*
X37100Y4961D01*
X37117Y4876D01*
X37166Y4803D01*
X37187Y4789D01*
Y4739D01*
X37166Y4724D01*
X37117Y4652D01*
X37100Y4567D01*
X37117Y4482D01*
X37166Y4410D01*
X37187Y4395D01*
Y4345D01*
X37166Y4330D01*
X37117Y4258D01*
X37100Y4173D01*
X37117Y4088D01*
X37166Y4016D01*
X37187Y4001D01*
Y3951D01*
X37166Y3937D01*
X37117Y3865D01*
X37100Y3780D01*
X37117Y3694D01*
X37166Y3622D01*
X37187Y3608D01*
Y3558D01*
X37166Y3543D01*
X37117Y3471D01*
X37100Y3386D01*
X37117Y3301D01*
X37166Y3229D01*
X37187Y3214D01*
Y3164D01*
X37166Y3149D01*
X37117Y3077D01*
X37100Y2992D01*
X37117Y2907D01*
X37166Y2835D01*
X37187Y2820D01*
Y2770D01*
X37166Y2756D01*
X37117Y2684D01*
X37100Y2598D01*
X37117Y2513D01*
X37166Y2441D01*
X37187Y2427D01*
Y2377D01*
X37166Y2362D01*
X37117Y2290D01*
X37100Y2205D01*
X37117Y2120D01*
X37166Y2047D01*
X37187Y2033D01*
Y1983D01*
X37166Y1968D01*
X37117Y1896D01*
X37100Y1811D01*
X37117Y1726D01*
X37166Y1654D01*
X37187Y1639D01*
Y1589D01*
X37166Y1575D01*
X37117Y1502D01*
X37100Y1417D01*
X37117Y1332D01*
X37166Y1260D01*
X37187Y1245D01*
Y1195D01*
X37166Y1181D01*
X37117Y1109D01*
X37100Y1024D01*
X37117Y939D01*
X37166Y866D01*
X37187Y852D01*
Y802D01*
X37166Y787D01*
X37117Y715D01*
X37100Y630D01*
X37117Y545D01*
X37166Y473D01*
X37187Y458D01*
Y408D01*
X37166Y394D01*
X37117Y321D01*
X37100Y236D01*
X37117Y151D01*
X37121Y146D01*
X37097Y102D01*
X6119D01*
X6092Y152D01*
X6111Y181D01*
X6128Y266D01*
X6111Y351D01*
X6063Y423D01*
X6041Y438D01*
Y488D01*
X6063Y502D01*
X6111Y574D01*
X6128Y659D01*
X6111Y744D01*
X6063Y817D01*
X6041Y831D01*
Y881D01*
X6063Y896D01*
X6111Y968D01*
X6128Y1053D01*
X6111Y1138D01*
X6063Y1210D01*
X6041Y1225D01*
Y1275D01*
X6063Y1289D01*
X6111Y1362D01*
X6128Y1447D01*
X6111Y1532D01*
X6063Y1604D01*
X6041Y1619D01*
Y1669D01*
X6063Y1683D01*
X6111Y1755D01*
X6128Y1840D01*
X6111Y1926D01*
X6063Y1998D01*
X6041Y2012D01*
Y2062D01*
X6063Y2077D01*
X6111Y2149D01*
X6128Y2234D01*
X6111Y2319D01*
X6063Y2391D01*
X6041Y2406D01*
Y2456D01*
X6063Y2471D01*
X6111Y2543D01*
X6128Y2628D01*
X6111Y2713D01*
X6063Y2785D01*
X6041Y2800D01*
Y2850D01*
X6063Y2864D01*
X6111Y2936D01*
X6128Y3022D01*
X6111Y3107D01*
X6063Y3179D01*
X6041Y3193D01*
Y3243D01*
X6063Y3258D01*
X6111Y3330D01*
X6128Y3415D01*
X6111Y3500D01*
X6063Y3573D01*
X6041Y3587D01*
Y3637D01*
X6063Y3652D01*
X6111Y3724D01*
X6128Y3809D01*
X6111Y3894D01*
X6063Y3966D01*
X6041Y3981D01*
Y4031D01*
X6063Y4045D01*
X6111Y4118D01*
X6128Y4203D01*
X6111Y4288D01*
X6063Y4360D01*
X6041Y4374D01*
Y4424D01*
X6063Y4439D01*
X6111Y4511D01*
X6128Y4596D01*
X6111Y4681D01*
X6063Y4754D01*
X6041Y4768D01*
Y4818D01*
X6063Y4833D01*
X6111Y4905D01*
X6128Y4990D01*
X6112Y5068D01*
X6126Y5104D01*
X6134Y5118D01*
X37106Y5118D01*
D02*
G37*
G36*
X5696Y34887D02*
X5683Y34825D01*
X5700Y34740D01*
X5748Y34668D01*
X5770Y34653D01*
Y34603D01*
X5748Y34588D01*
X5700Y34516D01*
X5683Y34431D01*
X5700Y34346D01*
X5748Y34274D01*
X5770Y34259D01*
Y34209D01*
X5748Y34195D01*
X5700Y34123D01*
X5683Y34037D01*
X5700Y33952D01*
X5748Y33880D01*
X5770Y33866D01*
Y33816D01*
X5748Y33801D01*
X5700Y33729D01*
X5683Y33644D01*
X5700Y33559D01*
X5748Y33486D01*
X5770Y33472D01*
Y33422D01*
X5748Y33407D01*
X5700Y33335D01*
X5683Y33250D01*
X5700Y33165D01*
X5748Y33093D01*
X5770Y33078D01*
Y33028D01*
X5748Y33014D01*
X5700Y32941D01*
X5683Y32856D01*
X5700Y32771D01*
X5748Y32699D01*
X5770Y32684D01*
Y32634D01*
X5748Y32620D01*
X5700Y32548D01*
X5683Y32463D01*
X5700Y32378D01*
X5748Y32305D01*
X5770Y32291D01*
Y32241D01*
X5748Y32226D01*
X5700Y32154D01*
X5683Y32069D01*
X5700Y31984D01*
X5748Y31912D01*
X5770Y31897D01*
Y31847D01*
X5748Y31832D01*
X5700Y31760D01*
X5683Y31675D01*
X5700Y31590D01*
X5748Y31518D01*
X5770Y31503D01*
Y31453D01*
X5748Y31439D01*
X5700Y31367D01*
X5683Y31282D01*
X5700Y31196D01*
X5748Y31124D01*
X5770Y31110D01*
Y31060D01*
X5748Y31045D01*
X5700Y30973D01*
X5683Y30888D01*
X5700Y30803D01*
X5748Y30731D01*
X5770Y30716D01*
Y30666D01*
X5748Y30651D01*
X5700Y30579D01*
X5683Y30494D01*
X5700Y30409D01*
X5748Y30337D01*
X5770Y30322D01*
Y30272D01*
X5748Y30258D01*
X5700Y30186D01*
X5683Y30100D01*
X5700Y30015D01*
X5730Y29971D01*
X5703Y29921D01*
X5118D01*
X5118Y5118D01*
X5677D01*
X5685Y5104D01*
X5699Y5068D01*
X5683Y4990D01*
X5700Y4905D01*
X5748Y4833D01*
X5770Y4818D01*
Y4768D01*
X5748Y4754D01*
X5700Y4681D01*
X5683Y4596D01*
X5700Y4511D01*
X5748Y4439D01*
X5770Y4424D01*
Y4374D01*
X5748Y4360D01*
X5700Y4288D01*
X5683Y4203D01*
X5700Y4118D01*
X5748Y4045D01*
X5770Y4031D01*
Y3981D01*
X5748Y3966D01*
X5700Y3894D01*
X5683Y3809D01*
X5700Y3724D01*
X5748Y3652D01*
X5770Y3637D01*
Y3587D01*
X5748Y3573D01*
X5700Y3500D01*
X5683Y3415D01*
X5700Y3330D01*
X5748Y3258D01*
X5770Y3243D01*
Y3193D01*
X5748Y3179D01*
X5700Y3107D01*
X5683Y3022D01*
X5700Y2936D01*
X5748Y2864D01*
X5770Y2850D01*
Y2800D01*
X5748Y2785D01*
X5700Y2713D01*
X5683Y2628D01*
X5700Y2543D01*
X5748Y2471D01*
X5770Y2456D01*
Y2406D01*
X5748Y2391D01*
X5700Y2319D01*
X5683Y2234D01*
X5700Y2149D01*
X5748Y2077D01*
X5770Y2062D01*
Y2012D01*
X5748Y1998D01*
X5700Y1926D01*
X5683Y1840D01*
X5700Y1755D01*
X5748Y1683D01*
X5770Y1669D01*
Y1619D01*
X5748Y1604D01*
X5700Y1532D01*
X5683Y1447D01*
X5700Y1362D01*
X5748Y1289D01*
X5770Y1275D01*
Y1225D01*
X5748Y1210D01*
X5700Y1138D01*
X5683Y1053D01*
X5700Y968D01*
X5748Y896D01*
X5770Y881D01*
Y831D01*
X5748Y817D01*
X5700Y744D01*
X5683Y659D01*
X5700Y574D01*
X5748Y502D01*
X5770Y488D01*
Y438D01*
X5748Y423D01*
X5700Y351D01*
X5683Y266D01*
X5700Y181D01*
X5719Y152D01*
X5692Y102D01*
X102D01*
X102Y34937D01*
X5663D01*
X5696Y34887D01*
D02*
G37*
%LPC*%
G36*
X29257Y28780D02*
X29198D01*
X29156Y28762D01*
X28337D01*
X28294Y28754D01*
X28259Y28730D01*
X27426Y27897D01*
X27387Y27881D01*
X27345Y27840D01*
X27323Y27785D01*
Y27727D01*
X27331Y27708D01*
Y27437D01*
X26793Y26900D01*
X26772D01*
X26718Y26877D01*
X26676Y26836D01*
X26654Y26781D01*
Y26760D01*
X26113Y26220D01*
X26089Y26184D01*
X26081Y26142D01*
Y25217D01*
X26066Y25202D01*
X26043Y25147D01*
Y25089D01*
X26066Y25034D01*
X26107Y24993D01*
X26162Y24970D01*
X26182D01*
X26425Y24728D01*
Y24199D01*
X26414Y24188D01*
X26392Y24134D01*
Y24075D01*
X26414Y24021D01*
X26456Y23979D01*
X26510Y23957D01*
X26517D01*
X26634Y23840D01*
X25447Y22653D01*
X25426D01*
X25372Y22630D01*
X25330Y22589D01*
X25308Y22534D01*
Y22476D01*
X25330Y22421D01*
X25372Y22380D01*
X25426Y22357D01*
X25485D01*
X25539Y22380D01*
X25580Y22421D01*
X25603Y22476D01*
Y22496D01*
X26821Y23714D01*
X26878Y23717D01*
X26932Y23695D01*
X26991D01*
X27045Y23717D01*
X27060Y23732D01*
X27342D01*
X27357Y23717D01*
X27411Y23695D01*
X27470D01*
X27524Y23717D01*
X27539Y23732D01*
X27696D01*
X27711Y23717D01*
X27765Y23695D01*
X27824D01*
X27878Y23717D01*
X27893Y23732D01*
X28051D01*
X28066Y23717D01*
X28120Y23695D01*
X28179D01*
X28233Y23717D01*
X28248Y23732D01*
X28543D01*
X28558Y23717D01*
X28613Y23695D01*
X28671D01*
X28726Y23717D01*
X28740Y23732D01*
X28996D01*
X29011Y23717D01*
X29065Y23695D01*
X29124D01*
X29178Y23717D01*
X29193Y23732D01*
X29774D01*
X29788Y23717D01*
X29843Y23695D01*
X29901D01*
X29956Y23717D01*
X29970Y23732D01*
X30132D01*
X30174Y23741D01*
X30210Y23764D01*
X30737Y24291D01*
X30758D01*
X30812Y24314D01*
X30854Y24355D01*
X30876Y24410D01*
Y24468D01*
X30854Y24523D01*
X30839Y24537D01*
Y25354D01*
X30844Y25359D01*
X30866Y25414D01*
Y25472D01*
X30844Y25527D01*
X30802Y25568D01*
X30748Y25591D01*
X30689D01*
X30635Y25568D01*
X30593Y25527D01*
X30571Y25472D01*
Y25414D01*
X30593Y25359D01*
X30618Y25335D01*
Y24537D01*
X30603Y24523D01*
X30581Y24468D01*
Y24447D01*
X30086Y23953D01*
X29970D01*
X29956Y23968D01*
X29901Y23990D01*
X29843D01*
X29788Y23968D01*
X29774Y23953D01*
X29193D01*
X29178Y23968D01*
X29124Y23990D01*
X29065D01*
X29011Y23968D01*
X28996Y23953D01*
X28740D01*
X28726Y23968D01*
X28671Y23990D01*
X28613D01*
X28558Y23968D01*
X28543Y23953D01*
X28248D01*
X28233Y23968D01*
X28179Y23990D01*
X28120D01*
X28066Y23968D01*
X28051Y23953D01*
X27893D01*
X27878Y23968D01*
X27824Y23990D01*
X27765D01*
X27711Y23968D01*
X27696Y23953D01*
X27539D01*
X27524Y23968D01*
X27470Y23990D01*
X27411D01*
X27357Y23968D01*
X27342Y23953D01*
X27060D01*
X27045Y23968D01*
X26991Y23990D01*
X26932D01*
X26878Y23968D01*
X26863Y23953D01*
X26833D01*
X26687Y24099D01*
Y24134D01*
X26665Y24188D01*
X26646Y24207D01*
Y24774D01*
X26637Y24816D01*
X26613Y24852D01*
X26339Y25127D01*
Y25147D01*
X26316Y25202D01*
X26301Y25217D01*
Y26096D01*
X26810Y26604D01*
X26831D01*
X26885Y26627D01*
X26926Y26668D01*
X26949Y26723D01*
Y26743D01*
X27519Y27314D01*
X27543Y27349D01*
X27551Y27392D01*
Y27630D01*
X27554Y27631D01*
X27596Y27672D01*
X27618Y27727D01*
Y27777D01*
X28382Y28541D01*
X29109D01*
X29144Y28507D01*
X29198Y28484D01*
X29257D01*
X29311Y28507D01*
X29345Y28541D01*
X29649D01*
X30561Y27629D01*
Y27599D01*
X30579Y27556D01*
Y27106D01*
X30564Y27092D01*
X30541Y27037D01*
X30491Y27018D01*
X30167Y27342D01*
Y27392D01*
X30145Y27446D01*
X30103Y27487D01*
X30049Y27510D01*
X29990D01*
X29936Y27487D01*
X29895Y27446D01*
X29872Y27392D01*
Y27333D01*
X29895Y27279D01*
X29936Y27237D01*
X29990Y27215D01*
X30040D01*
X30482Y26772D01*
X30511Y26753D01*
X30546Y26746D01*
X30564D01*
X30577Y26737D01*
X30612Y26731D01*
X30937D01*
X30974Y26693D01*
Y26644D01*
X30997Y26590D01*
X31038Y26548D01*
X31093Y26526D01*
X31151D01*
X31206Y26548D01*
X31247Y26590D01*
X31270Y26644D01*
Y26703D01*
X31247Y26757D01*
X31206Y26798D01*
X31151Y26821D01*
X31102D01*
X31038Y26885D01*
X31009Y26904D01*
X30974Y26911D01*
X30863D01*
X30829Y26961D01*
X30837Y26979D01*
Y27037D01*
X30814Y27092D01*
X30799Y27106D01*
Y27510D01*
X30834Y27544D01*
X30856Y27599D01*
Y27657D01*
X30834Y27712D01*
X30792Y27753D01*
X30738Y27776D01*
X30727D01*
X29773Y28730D01*
X29737Y28754D01*
X29695Y28762D01*
X29299D01*
X29257Y28780D01*
D02*
G37*
G36*
X24196Y26616D02*
X24194D01*
Y26270D01*
X24539D01*
Y26273D01*
X24512Y26373D01*
X24460Y26463D01*
X24386Y26537D01*
X24296Y26589D01*
X24196Y26616D01*
D02*
G37*
G36*
X24094D02*
X24092D01*
X23991Y26589D01*
X23901Y26537D01*
X23827Y26463D01*
X23775Y26373D01*
X23748Y26273D01*
Y26270D01*
X24094D01*
Y26616D01*
D02*
G37*
G36*
X24539Y26170D02*
X24194D01*
Y25825D01*
X24196D01*
X24296Y25852D01*
X24386Y25904D01*
X24460Y25978D01*
X24512Y26068D01*
X24539Y26168D01*
Y26170D01*
D02*
G37*
G36*
X24094D02*
X23748D01*
Y26168D01*
X23775Y26068D01*
X23827Y25978D01*
X23901Y25904D01*
X23991Y25852D01*
X24092Y25825D01*
X24094D01*
Y26170D01*
D02*
G37*
G36*
X24488Y25565D02*
X23799D01*
Y24876D01*
X24488D01*
Y25565D01*
D02*
G37*
G36*
X30413Y23169D02*
X30354D01*
X30300Y23147D01*
X30259Y23105D01*
X30255Y23097D01*
X30030D01*
X30001Y23091D01*
X29976Y23075D01*
X28336Y21435D01*
X28314Y21457D01*
X28235Y21502D01*
X28148Y21526D01*
X28057D01*
X27969Y21502D01*
X27891Y21457D01*
X27827Y21393D01*
X27781Y21314D01*
X27758Y21226D01*
Y21136D01*
X27781Y21048D01*
X27827Y20970D01*
X27891Y20905D01*
X27969Y20860D01*
X28057Y20837D01*
X28148D01*
X28235Y20860D01*
X28314Y20905D01*
X28378Y20970D01*
X28423Y21048D01*
X28447Y21136D01*
Y21226D01*
X28424Y21310D01*
X30061Y22946D01*
X30255D01*
X30259Y22938D01*
X30300Y22896D01*
X30354Y22874D01*
X30413D01*
X30467Y22896D01*
X30509Y22938D01*
X30531Y22992D01*
Y23051D01*
X30509Y23105D01*
X30467Y23147D01*
X30413Y23169D01*
D02*
G37*
G36*
X31498Y21576D02*
X31252D01*
Y21331D01*
X31498D01*
Y21576D01*
D02*
G37*
G36*
X30952D02*
X30707D01*
Y21331D01*
X30952D01*
Y21576D01*
D02*
G37*
G36*
X30148Y21526D02*
X30057D01*
X29969Y21502D01*
X29891Y21457D01*
X29827Y21393D01*
X29781Y21314D01*
X29758Y21226D01*
Y21136D01*
X29781Y21048D01*
X29827Y20970D01*
X29891Y20905D01*
X29969Y20860D01*
X30057Y20837D01*
X30148D01*
X30235Y20860D01*
X30314Y20905D01*
X30378Y20970D01*
X30423Y21048D01*
X30447Y21136D01*
Y21226D01*
X30423Y21314D01*
X30378Y21393D01*
X30314Y21457D01*
X30235Y21502D01*
X30148Y21526D01*
D02*
G37*
G36*
X29148D02*
X29057D01*
X28969Y21502D01*
X28891Y21457D01*
X28827Y21393D01*
X28781Y21314D01*
X28758Y21226D01*
Y21136D01*
X28781Y21048D01*
X28827Y20970D01*
X28891Y20905D01*
X28969Y20860D01*
X29057Y20837D01*
X29148D01*
X29235Y20860D01*
X29314Y20905D01*
X29378Y20970D01*
X29423Y21048D01*
X29447Y21136D01*
Y21226D01*
X29423Y21314D01*
X29378Y21393D01*
X29314Y21457D01*
X29235Y21502D01*
X29148Y21526D01*
D02*
G37*
G36*
X27148D02*
X27057D01*
X26969Y21502D01*
X26891Y21457D01*
X26827Y21393D01*
X26781Y21314D01*
X26758Y21226D01*
Y21136D01*
X26781Y21048D01*
X26827Y20970D01*
X26891Y20905D01*
X26969Y20860D01*
X27057Y20837D01*
X27148D01*
X27235Y20860D01*
X27314Y20905D01*
X27378Y20970D01*
X27423Y21048D01*
X27447Y21136D01*
Y21226D01*
X27423Y21314D01*
X27378Y21393D01*
X27314Y21457D01*
X27235Y21502D01*
X27148Y21526D01*
D02*
G37*
G36*
X24951Y24872D02*
X24892D01*
X24838Y24850D01*
X24796Y24808D01*
X24774Y24754D01*
Y24695D01*
X24796Y24641D01*
X24821Y24616D01*
Y22480D01*
X24829Y22442D01*
X24850Y22409D01*
X25847Y21413D01*
X25827Y21393D01*
X25781Y21314D01*
X25758Y21226D01*
Y21136D01*
X25781Y21048D01*
X25827Y20970D01*
X25891Y20905D01*
X25969Y20860D01*
X26057Y20837D01*
X26148D01*
X26235Y20860D01*
X26314Y20905D01*
X26378Y20970D01*
X26423Y21048D01*
X26447Y21136D01*
Y21226D01*
X26423Y21314D01*
X26378Y21393D01*
X26314Y21457D01*
X26235Y21502D01*
X26148Y21526D01*
X26057D01*
X26026Y21517D01*
X25022Y22522D01*
Y24616D01*
X25046Y24641D01*
X25069Y24695D01*
Y24754D01*
X25046Y24808D01*
X25005Y24850D01*
X24951Y24872D01*
D02*
G37*
G36*
X31498Y21031D02*
X31252D01*
Y20786D01*
X31498D01*
Y21031D01*
D02*
G37*
G36*
X30952D02*
X30707D01*
Y20786D01*
X30952D01*
Y21031D01*
D02*
G37*
G36*
X13154Y28780D02*
X13096D01*
X13053Y28762D01*
X12234D01*
X12192Y28754D01*
X12156Y28730D01*
X11324Y27897D01*
X11284Y27881D01*
X11243Y27840D01*
X11220Y27785D01*
Y27727D01*
X11228Y27708D01*
Y27437D01*
X10690Y26900D01*
X10669D01*
X10615Y26877D01*
X10574Y26836D01*
X10551Y26781D01*
Y26760D01*
X10011Y26220D01*
X9987Y26184D01*
X9978Y26142D01*
Y25217D01*
X9963Y25202D01*
X9941Y25147D01*
Y25089D01*
X9963Y25034D01*
X10005Y24993D01*
X10059Y24970D01*
X10080D01*
X10323Y24728D01*
Y24199D01*
X10312Y24188D01*
X10289Y24134D01*
Y24075D01*
X10312Y24021D01*
X10353Y23979D01*
X10408Y23957D01*
X10415D01*
X10532Y23840D01*
X9344Y22653D01*
X9324D01*
X9269Y22630D01*
X9228Y22589D01*
X9205Y22534D01*
Y22476D01*
X9228Y22421D01*
X9269Y22380D01*
X9324Y22357D01*
X9382D01*
X9437Y22380D01*
X9478Y22421D01*
X9501Y22476D01*
Y22496D01*
X10718Y23714D01*
X10776Y23717D01*
X10830Y23695D01*
X10889D01*
X10943Y23717D01*
X10958Y23732D01*
X11239D01*
X11254Y23717D01*
X11308Y23695D01*
X11367D01*
X11421Y23717D01*
X11436Y23732D01*
X11594D01*
X11609Y23717D01*
X11663Y23695D01*
X11722D01*
X11776Y23717D01*
X11791Y23732D01*
X11949D01*
X11964Y23717D01*
X12018Y23695D01*
X12077D01*
X12131Y23717D01*
X12146Y23732D01*
X12441D01*
X12456Y23717D01*
X12510Y23695D01*
X12569D01*
X12623Y23717D01*
X12638Y23732D01*
X12894D01*
X12908Y23717D01*
X12963Y23695D01*
X13021D01*
X13076Y23717D01*
X13091Y23732D01*
X13671D01*
X13686Y23717D01*
X13740Y23695D01*
X13799D01*
X13853Y23717D01*
X13868Y23732D01*
X14030D01*
X14072Y23741D01*
X14108Y23764D01*
X14634Y24291D01*
X14655D01*
X14710Y24314D01*
X14751Y24355D01*
X14774Y24410D01*
Y24468D01*
X14751Y24523D01*
X14736Y24537D01*
Y25354D01*
X14741Y25359D01*
X14764Y25414D01*
Y25472D01*
X14741Y25527D01*
X14700Y25568D01*
X14646Y25591D01*
X14587D01*
X14533Y25568D01*
X14491Y25527D01*
X14469Y25472D01*
Y25414D01*
X14491Y25359D01*
X14516Y25335D01*
Y24537D01*
X14501Y24523D01*
X14478Y24468D01*
Y24447D01*
X13984Y23953D01*
X13868D01*
X13853Y23968D01*
X13799Y23990D01*
X13740D01*
X13686Y23968D01*
X13671Y23953D01*
X13091D01*
X13076Y23968D01*
X13021Y23990D01*
X12963D01*
X12908Y23968D01*
X12894Y23953D01*
X12638D01*
X12623Y23968D01*
X12569Y23990D01*
X12510D01*
X12456Y23968D01*
X12441Y23953D01*
X12146D01*
X12131Y23968D01*
X12077Y23990D01*
X12018D01*
X11964Y23968D01*
X11949Y23953D01*
X11791D01*
X11776Y23968D01*
X11722Y23990D01*
X11663D01*
X11609Y23968D01*
X11594Y23953D01*
X11436D01*
X11421Y23968D01*
X11367Y23990D01*
X11308D01*
X11254Y23968D01*
X11239Y23953D01*
X10958D01*
X10943Y23968D01*
X10889Y23990D01*
X10830D01*
X10776Y23968D01*
X10761Y23953D01*
X10731D01*
X10585Y24099D01*
Y24134D01*
X10562Y24188D01*
X10543Y24207D01*
Y24774D01*
X10535Y24816D01*
X10511Y24852D01*
X10236Y25127D01*
Y25147D01*
X10214Y25202D01*
X10199Y25217D01*
Y26096D01*
X10707Y26604D01*
X10728D01*
X10782Y26627D01*
X10824Y26668D01*
X10846Y26723D01*
Y26743D01*
X11417Y27314D01*
X11441Y27349D01*
X11449Y27392D01*
Y27630D01*
X11452Y27631D01*
X11493Y27672D01*
X11516Y27727D01*
Y27777D01*
X12280Y28541D01*
X13007D01*
X13041Y28507D01*
X13096Y28484D01*
X13154D01*
X13209Y28507D01*
X13243Y28541D01*
X13547D01*
X14459Y27629D01*
Y27599D01*
X14476Y27556D01*
Y27106D01*
X14461Y27092D01*
X14439Y27037D01*
X14389Y27018D01*
X14065Y27342D01*
Y27392D01*
X14042Y27446D01*
X14001Y27487D01*
X13947Y27510D01*
X13888D01*
X13834Y27487D01*
X13792Y27446D01*
X13770Y27392D01*
Y27333D01*
X13792Y27279D01*
X13834Y27237D01*
X13888Y27215D01*
X13937D01*
X14379Y26772D01*
X14409Y26753D01*
X14443Y26746D01*
X14462D01*
X14475Y26737D01*
X14509Y26731D01*
X14835D01*
X14872Y26693D01*
Y26644D01*
X14895Y26590D01*
X14936Y26548D01*
X14990Y26526D01*
X15049D01*
X15103Y26548D01*
X15145Y26590D01*
X15167Y26644D01*
Y26703D01*
X15145Y26757D01*
X15103Y26798D01*
X15049Y26821D01*
X15000D01*
X14936Y26885D01*
X14907Y26904D01*
X14872Y26911D01*
X14760D01*
X14727Y26961D01*
X14734Y26979D01*
Y27037D01*
X14712Y27092D01*
X14697Y27106D01*
Y27510D01*
X14731Y27544D01*
X14754Y27599D01*
Y27657D01*
X14731Y27712D01*
X14690Y27753D01*
X14636Y27776D01*
X14625D01*
X13671Y28730D01*
X13635Y28754D01*
X13593Y28762D01*
X13197D01*
X13154Y28780D01*
D02*
G37*
G36*
X8093Y26616D02*
X8091D01*
Y26270D01*
X8437D01*
Y26273D01*
X8410Y26373D01*
X8358Y26463D01*
X8284Y26537D01*
X8194Y26589D01*
X8093Y26616D01*
D02*
G37*
G36*
X7991D02*
X7989D01*
X7889Y26589D01*
X7799Y26537D01*
X7725Y26463D01*
X7673Y26373D01*
X7646Y26273D01*
Y26270D01*
X7991D01*
Y26616D01*
D02*
G37*
G36*
X8437Y26170D02*
X8091D01*
Y25825D01*
X8093D01*
X8194Y25852D01*
X8284Y25904D01*
X8358Y25978D01*
X8410Y26068D01*
X8437Y26168D01*
Y26170D01*
D02*
G37*
G36*
X7991D02*
X7646D01*
Y26168D01*
X7673Y26068D01*
X7725Y25978D01*
X7799Y25904D01*
X7889Y25852D01*
X7989Y25825D01*
X7991D01*
Y26170D01*
D02*
G37*
G36*
X8386Y25565D02*
X7697D01*
Y24876D01*
X8386D01*
Y25565D01*
D02*
G37*
G36*
X14311Y23169D02*
X14252D01*
X14198Y23147D01*
X14156Y23105D01*
X14153Y23097D01*
X13927D01*
X13898Y23091D01*
X13874Y23075D01*
X12234Y21435D01*
X12212Y21457D01*
X12133Y21502D01*
X12045Y21526D01*
X11955D01*
X11867Y21502D01*
X11788Y21457D01*
X11724Y21393D01*
X11679Y21314D01*
X11656Y21226D01*
Y21136D01*
X11679Y21048D01*
X11724Y20970D01*
X11788Y20905D01*
X11867Y20860D01*
X11955Y20837D01*
X12045D01*
X12133Y20860D01*
X12212Y20905D01*
X12276Y20970D01*
X12321Y21048D01*
X12344Y21136D01*
Y21226D01*
X12322Y21310D01*
X13958Y22946D01*
X14153D01*
X14156Y22938D01*
X14198Y22896D01*
X14252Y22874D01*
X14311D01*
X14365Y22896D01*
X14407Y22938D01*
X14429Y22992D01*
Y23051D01*
X14407Y23105D01*
X14365Y23147D01*
X14311Y23169D01*
D02*
G37*
G36*
X15395Y21576D02*
X15150D01*
Y21331D01*
X15395D01*
Y21576D01*
D02*
G37*
G36*
X14850D02*
X14605D01*
Y21331D01*
X14850D01*
Y21576D01*
D02*
G37*
G36*
X14045Y21526D02*
X13955D01*
X13867Y21502D01*
X13788Y21457D01*
X13724Y21393D01*
X13679Y21314D01*
X13656Y21226D01*
Y21136D01*
X13679Y21048D01*
X13724Y20970D01*
X13788Y20905D01*
X13867Y20860D01*
X13955Y20837D01*
X14045D01*
X14133Y20860D01*
X14212Y20905D01*
X14276Y20970D01*
X14321Y21048D01*
X14344Y21136D01*
Y21226D01*
X14321Y21314D01*
X14276Y21393D01*
X14212Y21457D01*
X14133Y21502D01*
X14045Y21526D01*
D02*
G37*
G36*
X13045D02*
X12955D01*
X12867Y21502D01*
X12788Y21457D01*
X12724Y21393D01*
X12679Y21314D01*
X12656Y21226D01*
Y21136D01*
X12679Y21048D01*
X12724Y20970D01*
X12788Y20905D01*
X12867Y20860D01*
X12955Y20837D01*
X13045D01*
X13133Y20860D01*
X13212Y20905D01*
X13276Y20970D01*
X13321Y21048D01*
X13344Y21136D01*
Y21226D01*
X13321Y21314D01*
X13276Y21393D01*
X13212Y21457D01*
X13133Y21502D01*
X13045Y21526D01*
D02*
G37*
G36*
X11045D02*
X10955D01*
X10867Y21502D01*
X10788Y21457D01*
X10724Y21393D01*
X10679Y21314D01*
X10656Y21226D01*
Y21136D01*
X10679Y21048D01*
X10724Y20970D01*
X10788Y20905D01*
X10867Y20860D01*
X10955Y20837D01*
X11045D01*
X11133Y20860D01*
X11212Y20905D01*
X11276Y20970D01*
X11321Y21048D01*
X11344Y21136D01*
Y21226D01*
X11321Y21314D01*
X11276Y21393D01*
X11212Y21457D01*
X11133Y21502D01*
X11045Y21526D01*
D02*
G37*
G36*
X8848Y24872D02*
X8790D01*
X8735Y24850D01*
X8694Y24808D01*
X8671Y24754D01*
Y24695D01*
X8694Y24641D01*
X8719Y24616D01*
Y22480D01*
X8726Y22442D01*
X8748Y22409D01*
X9745Y21413D01*
X9724Y21393D01*
X9679Y21314D01*
X9656Y21226D01*
Y21136D01*
X9679Y21048D01*
X9724Y20970D01*
X9788Y20905D01*
X9867Y20860D01*
X9955Y20837D01*
X10045D01*
X10133Y20860D01*
X10212Y20905D01*
X10276Y20970D01*
X10321Y21048D01*
X10344Y21136D01*
Y21226D01*
X10321Y21314D01*
X10276Y21393D01*
X10212Y21457D01*
X10133Y21502D01*
X10045Y21526D01*
X9955D01*
X9924Y21517D01*
X8919Y22522D01*
Y24616D01*
X8944Y24641D01*
X8967Y24695D01*
Y24754D01*
X8944Y24808D01*
X8903Y24850D01*
X8848Y24872D01*
D02*
G37*
G36*
X15395Y21031D02*
X15150D01*
Y20786D01*
X15395D01*
Y21031D01*
D02*
G37*
G36*
X14850D02*
X14605D01*
Y20786D01*
X14850D01*
Y21031D01*
D02*
G37*
G36*
X29257Y16772D02*
X29198D01*
X29156Y16754D01*
X28337D01*
X28294Y16746D01*
X28259Y16722D01*
X27426Y15890D01*
X27387Y15873D01*
X27345Y15832D01*
X27323Y15777D01*
Y15719D01*
X27331Y15700D01*
Y15430D01*
X26793Y14892D01*
X26772D01*
X26718Y14869D01*
X26676Y14828D01*
X26654Y14773D01*
Y14753D01*
X26113Y14212D01*
X26089Y14176D01*
X26081Y14134D01*
Y13209D01*
X26066Y13194D01*
X26043Y13140D01*
Y13081D01*
X26066Y13027D01*
X26107Y12985D01*
X26162Y12963D01*
X26182D01*
X26425Y12720D01*
Y12191D01*
X26414Y12180D01*
X26392Y12126D01*
Y12067D01*
X26414Y12013D01*
X26456Y11971D01*
X26510Y11949D01*
X26517D01*
X26634Y11832D01*
X25447Y10645D01*
X25426D01*
X25372Y10622D01*
X25330Y10581D01*
X25308Y10526D01*
Y10468D01*
X25330Y10413D01*
X25372Y10372D01*
X25426Y10349D01*
X25485D01*
X25539Y10372D01*
X25580Y10413D01*
X25603Y10468D01*
Y10489D01*
X26821Y11706D01*
X26878Y11710D01*
X26932Y11687D01*
X26991D01*
X27045Y11710D01*
X27060Y11724D01*
X27342D01*
X27357Y11710D01*
X27411Y11687D01*
X27470D01*
X27524Y11710D01*
X27539Y11724D01*
X27696D01*
X27711Y11710D01*
X27765Y11687D01*
X27824D01*
X27878Y11710D01*
X27893Y11724D01*
X28051D01*
X28066Y11710D01*
X28120Y11687D01*
X28179D01*
X28233Y11710D01*
X28248Y11724D01*
X28543D01*
X28558Y11710D01*
X28613Y11687D01*
X28671D01*
X28726Y11710D01*
X28740Y11724D01*
X28996D01*
X29011Y11710D01*
X29065Y11687D01*
X29124D01*
X29178Y11710D01*
X29193Y11724D01*
X29774D01*
X29788Y11710D01*
X29843Y11687D01*
X29901D01*
X29956Y11710D01*
X29970Y11724D01*
X30132D01*
X30174Y11733D01*
X30210Y11757D01*
X30737Y12283D01*
X30758D01*
X30812Y12306D01*
X30854Y12347D01*
X30876Y12402D01*
Y12460D01*
X30854Y12515D01*
X30839Y12529D01*
Y13346D01*
X30844Y13351D01*
X30866Y13406D01*
Y13464D01*
X30844Y13519D01*
X30802Y13560D01*
X30748Y13583D01*
X30689D01*
X30635Y13560D01*
X30593Y13519D01*
X30571Y13464D01*
Y13406D01*
X30593Y13351D01*
X30618Y13327D01*
Y12529D01*
X30603Y12515D01*
X30581Y12460D01*
Y12440D01*
X30086Y11945D01*
X29970D01*
X29956Y11960D01*
X29901Y11982D01*
X29843D01*
X29788Y11960D01*
X29774Y11945D01*
X29193D01*
X29178Y11960D01*
X29124Y11982D01*
X29065D01*
X29011Y11960D01*
X28996Y11945D01*
X28740D01*
X28726Y11960D01*
X28671Y11982D01*
X28613D01*
X28558Y11960D01*
X28543Y11945D01*
X28248D01*
X28233Y11960D01*
X28179Y11982D01*
X28120D01*
X28066Y11960D01*
X28051Y11945D01*
X27893D01*
X27878Y11960D01*
X27824Y11982D01*
X27765D01*
X27711Y11960D01*
X27696Y11945D01*
X27539D01*
X27524Y11960D01*
X27470Y11982D01*
X27411D01*
X27357Y11960D01*
X27342Y11945D01*
X27060D01*
X27045Y11960D01*
X26991Y11982D01*
X26932D01*
X26878Y11960D01*
X26863Y11945D01*
X26833D01*
X26687Y12091D01*
Y12126D01*
X26665Y12180D01*
X26646Y12199D01*
Y12766D01*
X26637Y12808D01*
X26613Y12844D01*
X26339Y13119D01*
Y13140D01*
X26316Y13194D01*
X26301Y13209D01*
Y14088D01*
X26810Y14596D01*
X26831D01*
X26885Y14619D01*
X26926Y14660D01*
X26949Y14715D01*
Y14736D01*
X27519Y15306D01*
X27543Y15342D01*
X27551Y15384D01*
Y15622D01*
X27554Y15623D01*
X27596Y15664D01*
X27618Y15719D01*
Y15769D01*
X28382Y16533D01*
X29109D01*
X29144Y16499D01*
X29198Y16476D01*
X29257D01*
X29311Y16499D01*
X29345Y16533D01*
X29649D01*
X30561Y15621D01*
Y15591D01*
X30579Y15548D01*
Y15098D01*
X30564Y15084D01*
X30541Y15029D01*
X30491Y15010D01*
X30167Y15334D01*
Y15384D01*
X30145Y15438D01*
X30103Y15479D01*
X30049Y15502D01*
X29990D01*
X29936Y15479D01*
X29895Y15438D01*
X29872Y15384D01*
Y15325D01*
X29895Y15271D01*
X29936Y15229D01*
X29990Y15207D01*
X30040D01*
X30482Y14765D01*
X30511Y14745D01*
X30546Y14738D01*
X30564D01*
X30577Y14730D01*
X30612Y14723D01*
X30937D01*
X30974Y14685D01*
Y14636D01*
X30997Y14582D01*
X31038Y14540D01*
X31093Y14518D01*
X31151D01*
X31206Y14540D01*
X31247Y14582D01*
X31270Y14636D01*
Y14695D01*
X31247Y14749D01*
X31206Y14791D01*
X31151Y14813D01*
X31102D01*
X31038Y14877D01*
X31009Y14896D01*
X30974Y14903D01*
X30863D01*
X30829Y14953D01*
X30837Y14971D01*
Y15029D01*
X30814Y15084D01*
X30799Y15098D01*
Y15502D01*
X30834Y15536D01*
X30856Y15591D01*
Y15649D01*
X30834Y15704D01*
X30792Y15745D01*
X30738Y15768D01*
X30727D01*
X29773Y16722D01*
X29737Y16746D01*
X29695Y16754D01*
X29299D01*
X29257Y16772D01*
D02*
G37*
G36*
X24196Y14608D02*
X24194D01*
Y14263D01*
X24539D01*
Y14265D01*
X24512Y14365D01*
X24460Y14455D01*
X24386Y14529D01*
X24296Y14581D01*
X24196Y14608D01*
D02*
G37*
G36*
X24094D02*
X24092D01*
X23991Y14581D01*
X23901Y14529D01*
X23827Y14455D01*
X23775Y14365D01*
X23748Y14265D01*
Y14263D01*
X24094D01*
Y14608D01*
D02*
G37*
G36*
X24539Y14163D02*
X24194D01*
Y13817D01*
X24196D01*
X24296Y13844D01*
X24386Y13896D01*
X24460Y13970D01*
X24512Y14060D01*
X24539Y14161D01*
Y14163D01*
D02*
G37*
G36*
X24094D02*
X23748D01*
Y14161D01*
X23775Y14060D01*
X23827Y13970D01*
X23901Y13896D01*
X23991Y13844D01*
X24092Y13817D01*
X24094D01*
Y14163D01*
D02*
G37*
G36*
X24488Y13557D02*
X23799D01*
Y12868D01*
X24488D01*
Y13557D01*
D02*
G37*
G36*
X30413Y11161D02*
X30354D01*
X30300Y11139D01*
X30259Y11097D01*
X30255Y11089D01*
X30030D01*
X30001Y11083D01*
X29976Y11067D01*
X28336Y9427D01*
X28314Y9449D01*
X28235Y9494D01*
X28148Y9518D01*
X28057D01*
X27969Y9494D01*
X27891Y9449D01*
X27827Y9385D01*
X27781Y9306D01*
X27758Y9219D01*
Y9128D01*
X27781Y9040D01*
X27827Y8962D01*
X27891Y8898D01*
X27969Y8852D01*
X28057Y8829D01*
X28148D01*
X28235Y8852D01*
X28314Y8898D01*
X28378Y8962D01*
X28423Y9040D01*
X28447Y9128D01*
Y9219D01*
X28424Y9302D01*
X30061Y10939D01*
X30255D01*
X30259Y10930D01*
X30300Y10889D01*
X30354Y10866D01*
X30413D01*
X30467Y10889D01*
X30509Y10930D01*
X30531Y10984D01*
Y11043D01*
X30509Y11097D01*
X30467Y11139D01*
X30413Y11161D01*
D02*
G37*
G36*
X31498Y9568D02*
X31252D01*
Y9323D01*
X31498D01*
Y9568D01*
D02*
G37*
G36*
X30952D02*
X30707D01*
Y9323D01*
X30952D01*
Y9568D01*
D02*
G37*
G36*
X30148Y9518D02*
X30057D01*
X29969Y9494D01*
X29891Y9449D01*
X29827Y9385D01*
X29781Y9306D01*
X29758Y9219D01*
Y9128D01*
X29781Y9040D01*
X29827Y8962D01*
X29891Y8898D01*
X29969Y8852D01*
X30057Y8829D01*
X30148D01*
X30235Y8852D01*
X30314Y8898D01*
X30378Y8962D01*
X30423Y9040D01*
X30447Y9128D01*
Y9219D01*
X30423Y9306D01*
X30378Y9385D01*
X30314Y9449D01*
X30235Y9494D01*
X30148Y9518D01*
D02*
G37*
G36*
X29148D02*
X29057D01*
X28969Y9494D01*
X28891Y9449D01*
X28827Y9385D01*
X28781Y9306D01*
X28758Y9219D01*
Y9128D01*
X28781Y9040D01*
X28827Y8962D01*
X28891Y8898D01*
X28969Y8852D01*
X29057Y8829D01*
X29148D01*
X29235Y8852D01*
X29314Y8898D01*
X29378Y8962D01*
X29423Y9040D01*
X29447Y9128D01*
Y9219D01*
X29423Y9306D01*
X29378Y9385D01*
X29314Y9449D01*
X29235Y9494D01*
X29148Y9518D01*
D02*
G37*
G36*
X27148D02*
X27057D01*
X26969Y9494D01*
X26891Y9449D01*
X26827Y9385D01*
X26781Y9306D01*
X26758Y9219D01*
Y9128D01*
X26781Y9040D01*
X26827Y8962D01*
X26891Y8898D01*
X26969Y8852D01*
X27057Y8829D01*
X27148D01*
X27235Y8852D01*
X27314Y8898D01*
X27378Y8962D01*
X27423Y9040D01*
X27447Y9128D01*
Y9219D01*
X27423Y9306D01*
X27378Y9385D01*
X27314Y9449D01*
X27235Y9494D01*
X27148Y9518D01*
D02*
G37*
G36*
X24951Y12864D02*
X24892D01*
X24838Y12842D01*
X24796Y12800D01*
X24774Y12746D01*
Y12687D01*
X24796Y12633D01*
X24821Y12608D01*
Y10472D01*
X24829Y10434D01*
X24850Y10401D01*
X25847Y9405D01*
X25827Y9385D01*
X25781Y9306D01*
X25758Y9219D01*
Y9128D01*
X25781Y9040D01*
X25827Y8962D01*
X25891Y8898D01*
X25969Y8852D01*
X26057Y8829D01*
X26148D01*
X26235Y8852D01*
X26314Y8898D01*
X26378Y8962D01*
X26423Y9040D01*
X26447Y9128D01*
Y9219D01*
X26423Y9306D01*
X26378Y9385D01*
X26314Y9449D01*
X26235Y9494D01*
X26148Y9518D01*
X26057D01*
X26026Y9509D01*
X25022Y10514D01*
Y12608D01*
X25046Y12633D01*
X25069Y12687D01*
Y12746D01*
X25046Y12800D01*
X25005Y12842D01*
X24951Y12864D01*
D02*
G37*
G36*
X31498Y9023D02*
X31252D01*
Y8778D01*
X31498D01*
Y9023D01*
D02*
G37*
G36*
X30952D02*
X30707D01*
Y8778D01*
X30952D01*
Y9023D01*
D02*
G37*
G36*
X13154Y16772D02*
X13096D01*
X13053Y16754D01*
X12234D01*
X12192Y16746D01*
X12156Y16722D01*
X11324Y15890D01*
X11284Y15873D01*
X11243Y15832D01*
X11220Y15777D01*
Y15719D01*
X11228Y15700D01*
Y15430D01*
X10690Y14892D01*
X10669D01*
X10615Y14869D01*
X10574Y14828D01*
X10551Y14773D01*
Y14753D01*
X10011Y14212D01*
X9987Y14176D01*
X9978Y14134D01*
Y13209D01*
X9963Y13194D01*
X9941Y13140D01*
Y13081D01*
X9963Y13027D01*
X10005Y12985D01*
X10059Y12963D01*
X10080D01*
X10323Y12720D01*
Y12191D01*
X10312Y12180D01*
X10289Y12126D01*
Y12067D01*
X10312Y12013D01*
X10353Y11971D01*
X10408Y11949D01*
X10415D01*
X10532Y11832D01*
X9344Y10645D01*
X9324D01*
X9269Y10622D01*
X9228Y10581D01*
X9205Y10526D01*
Y10468D01*
X9228Y10413D01*
X9269Y10372D01*
X9324Y10349D01*
X9382D01*
X9437Y10372D01*
X9478Y10413D01*
X9501Y10468D01*
Y10489D01*
X10718Y11706D01*
X10776Y11710D01*
X10830Y11687D01*
X10889D01*
X10943Y11710D01*
X10958Y11724D01*
X11239D01*
X11254Y11710D01*
X11308Y11687D01*
X11367D01*
X11421Y11710D01*
X11436Y11724D01*
X11594D01*
X11609Y11710D01*
X11663Y11687D01*
X11722D01*
X11776Y11710D01*
X11791Y11724D01*
X11949D01*
X11964Y11710D01*
X12018Y11687D01*
X12077D01*
X12131Y11710D01*
X12146Y11724D01*
X12441D01*
X12456Y11710D01*
X12510Y11687D01*
X12569D01*
X12623Y11710D01*
X12638Y11724D01*
X12894D01*
X12908Y11710D01*
X12963Y11687D01*
X13021D01*
X13076Y11710D01*
X13091Y11724D01*
X13671D01*
X13686Y11710D01*
X13740Y11687D01*
X13799D01*
X13853Y11710D01*
X13868Y11724D01*
X14030D01*
X14072Y11733D01*
X14108Y11757D01*
X14634Y12283D01*
X14655D01*
X14710Y12306D01*
X14751Y12347D01*
X14774Y12402D01*
Y12460D01*
X14751Y12515D01*
X14736Y12529D01*
Y13346D01*
X14741Y13351D01*
X14764Y13406D01*
Y13464D01*
X14741Y13519D01*
X14700Y13560D01*
X14646Y13583D01*
X14587D01*
X14533Y13560D01*
X14491Y13519D01*
X14469Y13464D01*
Y13406D01*
X14491Y13351D01*
X14516Y13327D01*
Y12529D01*
X14501Y12515D01*
X14478Y12460D01*
Y12440D01*
X13984Y11945D01*
X13868D01*
X13853Y11960D01*
X13799Y11982D01*
X13740D01*
X13686Y11960D01*
X13671Y11945D01*
X13091D01*
X13076Y11960D01*
X13021Y11982D01*
X12963D01*
X12908Y11960D01*
X12894Y11945D01*
X12638D01*
X12623Y11960D01*
X12569Y11982D01*
X12510D01*
X12456Y11960D01*
X12441Y11945D01*
X12146D01*
X12131Y11960D01*
X12077Y11982D01*
X12018D01*
X11964Y11960D01*
X11949Y11945D01*
X11791D01*
X11776Y11960D01*
X11722Y11982D01*
X11663D01*
X11609Y11960D01*
X11594Y11945D01*
X11436D01*
X11421Y11960D01*
X11367Y11982D01*
X11308D01*
X11254Y11960D01*
X11239Y11945D01*
X10958D01*
X10943Y11960D01*
X10889Y11982D01*
X10830D01*
X10776Y11960D01*
X10761Y11945D01*
X10731D01*
X10585Y12091D01*
Y12126D01*
X10562Y12180D01*
X10543Y12199D01*
Y12766D01*
X10535Y12808D01*
X10511Y12844D01*
X10236Y13119D01*
Y13140D01*
X10214Y13194D01*
X10199Y13209D01*
Y14088D01*
X10707Y14596D01*
X10728D01*
X10782Y14619D01*
X10824Y14660D01*
X10846Y14715D01*
Y14736D01*
X11417Y15306D01*
X11441Y15342D01*
X11449Y15384D01*
Y15622D01*
X11452Y15623D01*
X11493Y15664D01*
X11516Y15719D01*
Y15769D01*
X12280Y16533D01*
X13007D01*
X13041Y16499D01*
X13096Y16476D01*
X13154D01*
X13209Y16499D01*
X13243Y16533D01*
X13547D01*
X14459Y15621D01*
Y15591D01*
X14476Y15548D01*
Y15098D01*
X14461Y15084D01*
X14439Y15029D01*
X14389Y15010D01*
X14065Y15334D01*
Y15384D01*
X14042Y15438D01*
X14001Y15479D01*
X13947Y15502D01*
X13888D01*
X13834Y15479D01*
X13792Y15438D01*
X13770Y15384D01*
Y15325D01*
X13792Y15271D01*
X13834Y15229D01*
X13888Y15207D01*
X13937D01*
X14379Y14765D01*
X14409Y14745D01*
X14443Y14738D01*
X14462D01*
X14475Y14730D01*
X14509Y14723D01*
X14835D01*
X14872Y14685D01*
Y14636D01*
X14895Y14582D01*
X14936Y14540D01*
X14990Y14518D01*
X15049D01*
X15103Y14540D01*
X15145Y14582D01*
X15167Y14636D01*
Y14695D01*
X15145Y14749D01*
X15103Y14791D01*
X15049Y14813D01*
X15000D01*
X14936Y14877D01*
X14907Y14896D01*
X14872Y14903D01*
X14760D01*
X14727Y14953D01*
X14734Y14971D01*
Y15029D01*
X14712Y15084D01*
X14697Y15098D01*
Y15502D01*
X14731Y15536D01*
X14754Y15591D01*
Y15649D01*
X14731Y15704D01*
X14690Y15745D01*
X14636Y15768D01*
X14625D01*
X13671Y16722D01*
X13635Y16746D01*
X13593Y16754D01*
X13197D01*
X13154Y16772D01*
D02*
G37*
G36*
X8093Y14608D02*
X8091D01*
Y14263D01*
X8437D01*
Y14265D01*
X8410Y14365D01*
X8358Y14455D01*
X8284Y14529D01*
X8194Y14581D01*
X8093Y14608D01*
D02*
G37*
G36*
X7991D02*
X7989D01*
X7889Y14581D01*
X7799Y14529D01*
X7725Y14455D01*
X7673Y14365D01*
X7646Y14265D01*
Y14263D01*
X7991D01*
Y14608D01*
D02*
G37*
G36*
X8437Y14163D02*
X8091D01*
Y13817D01*
X8093D01*
X8194Y13844D01*
X8284Y13896D01*
X8358Y13970D01*
X8410Y14060D01*
X8437Y14161D01*
Y14163D01*
D02*
G37*
G36*
X7991D02*
X7646D01*
Y14161D01*
X7673Y14060D01*
X7725Y13970D01*
X7799Y13896D01*
X7889Y13844D01*
X7989Y13817D01*
X7991D01*
Y14163D01*
D02*
G37*
G36*
X8386Y13557D02*
X7697D01*
Y12868D01*
X8386D01*
Y13557D01*
D02*
G37*
G36*
X14311Y11161D02*
X14252D01*
X14198Y11139D01*
X14156Y11097D01*
X14153Y11089D01*
X13927D01*
X13898Y11083D01*
X13874Y11067D01*
X12234Y9427D01*
X12212Y9449D01*
X12133Y9494D01*
X12045Y9518D01*
X11955D01*
X11867Y9494D01*
X11788Y9449D01*
X11724Y9385D01*
X11679Y9306D01*
X11656Y9219D01*
Y9128D01*
X11679Y9040D01*
X11724Y8962D01*
X11788Y8898D01*
X11867Y8852D01*
X11955Y8829D01*
X12045D01*
X12133Y8852D01*
X12212Y8898D01*
X12276Y8962D01*
X12321Y9040D01*
X12344Y9128D01*
Y9219D01*
X12322Y9302D01*
X13958Y10939D01*
X14153D01*
X14156Y10930D01*
X14198Y10889D01*
X14252Y10866D01*
X14311D01*
X14365Y10889D01*
X14407Y10930D01*
X14429Y10984D01*
Y11043D01*
X14407Y11097D01*
X14365Y11139D01*
X14311Y11161D01*
D02*
G37*
G36*
X15395Y9568D02*
X15150D01*
Y9323D01*
X15395D01*
Y9568D01*
D02*
G37*
G36*
X14850D02*
X14605D01*
Y9323D01*
X14850D01*
Y9568D01*
D02*
G37*
G36*
X14045Y9518D02*
X13955D01*
X13867Y9494D01*
X13788Y9449D01*
X13724Y9385D01*
X13679Y9306D01*
X13656Y9219D01*
Y9128D01*
X13679Y9040D01*
X13724Y8962D01*
X13788Y8898D01*
X13867Y8852D01*
X13955Y8829D01*
X14045D01*
X14133Y8852D01*
X14212Y8898D01*
X14276Y8962D01*
X14321Y9040D01*
X14344Y9128D01*
Y9219D01*
X14321Y9306D01*
X14276Y9385D01*
X14212Y9449D01*
X14133Y9494D01*
X14045Y9518D01*
D02*
G37*
G36*
X13045D02*
X12955D01*
X12867Y9494D01*
X12788Y9449D01*
X12724Y9385D01*
X12679Y9306D01*
X12656Y9219D01*
Y9128D01*
X12679Y9040D01*
X12724Y8962D01*
X12788Y8898D01*
X12867Y8852D01*
X12955Y8829D01*
X13045D01*
X13133Y8852D01*
X13212Y8898D01*
X13276Y8962D01*
X13321Y9040D01*
X13344Y9128D01*
Y9219D01*
X13321Y9306D01*
X13276Y9385D01*
X13212Y9449D01*
X13133Y9494D01*
X13045Y9518D01*
D02*
G37*
G36*
X11045D02*
X10955D01*
X10867Y9494D01*
X10788Y9449D01*
X10724Y9385D01*
X10679Y9306D01*
X10656Y9219D01*
Y9128D01*
X10679Y9040D01*
X10724Y8962D01*
X10788Y8898D01*
X10867Y8852D01*
X10955Y8829D01*
X11045D01*
X11133Y8852D01*
X11212Y8898D01*
X11276Y8962D01*
X11321Y9040D01*
X11344Y9128D01*
Y9219D01*
X11321Y9306D01*
X11276Y9385D01*
X11212Y9449D01*
X11133Y9494D01*
X11045Y9518D01*
D02*
G37*
G36*
X8848Y12864D02*
X8790D01*
X8735Y12842D01*
X8694Y12800D01*
X8671Y12746D01*
Y12687D01*
X8694Y12633D01*
X8719Y12608D01*
Y10472D01*
X8726Y10434D01*
X8748Y10401D01*
X9745Y9405D01*
X9724Y9385D01*
X9679Y9306D01*
X9656Y9219D01*
Y9128D01*
X9679Y9040D01*
X9724Y8962D01*
X9788Y8898D01*
X9867Y8852D01*
X9955Y8829D01*
X10045D01*
X10133Y8852D01*
X10212Y8898D01*
X10276Y8962D01*
X10321Y9040D01*
X10344Y9128D01*
Y9219D01*
X10321Y9306D01*
X10276Y9385D01*
X10212Y9449D01*
X10133Y9494D01*
X10045Y9518D01*
X9955D01*
X9924Y9509D01*
X8919Y10514D01*
Y12608D01*
X8944Y12633D01*
X8967Y12687D01*
Y12746D01*
X8944Y12800D01*
X8903Y12842D01*
X8848Y12864D01*
D02*
G37*
G36*
X15395Y9023D02*
X15150D01*
Y8778D01*
X15395D01*
Y9023D01*
D02*
G37*
G36*
X14850D02*
X14605D01*
Y8778D01*
X14850D01*
Y9023D01*
D02*
G37*
G36*
X41260Y2468D02*
X41130Y2451D01*
X41010Y2401D01*
X40906Y2322D01*
X40827Y2218D01*
X40777Y2098D01*
X40760Y1969D01*
X40777Y1839D01*
X40827Y1719D01*
X40906Y1615D01*
X41010Y1536D01*
X41130Y1486D01*
X41260Y1469D01*
X41389Y1486D01*
X41510Y1536D01*
X41613Y1615D01*
X41693Y1719D01*
X41743Y1839D01*
X41760Y1969D01*
X41743Y2098D01*
X41693Y2218D01*
X41613Y2322D01*
X41510Y2401D01*
X41389Y2451D01*
X41260Y2468D01*
D02*
G37*
G36*
X1969Y33571D02*
X1839Y33554D01*
X1719Y33504D01*
X1615Y33424D01*
X1536Y33321D01*
X1486Y33200D01*
X1469Y33071D01*
X1486Y32941D01*
X1536Y32821D01*
X1615Y32717D01*
X1719Y32638D01*
X1839Y32588D01*
X1969Y32571D01*
X2098Y32588D01*
X2218Y32638D01*
X2322Y32717D01*
X2401Y32821D01*
X2451Y32941D01*
X2468Y33071D01*
X2451Y33200D01*
X2401Y33321D01*
X2322Y33424D01*
X2218Y33504D01*
X2098Y33554D01*
X1969Y33571D01*
D02*
G37*
G36*
Y2468D02*
X1839Y2451D01*
X1719Y2401D01*
X1615Y2322D01*
X1536Y2218D01*
X1486Y2098D01*
X1469Y1969D01*
X1486Y1839D01*
X1536Y1719D01*
X1615Y1615D01*
X1719Y1536D01*
X1839Y1486D01*
X1969Y1469D01*
X2098Y1486D01*
X2218Y1536D01*
X2322Y1615D01*
X2401Y1719D01*
X2451Y1839D01*
X2468Y1969D01*
X2451Y2098D01*
X2401Y2218D01*
X2322Y2322D01*
X2218Y2401D01*
X2098Y2451D01*
X1969Y2468D01*
D02*
G37*
%LPD*%
D10*
Y33071D02*
D03*
X41260Y1969D02*
D03*
X1969D02*
D03*
D29*
X12087Y9173D02*
X13927Y11014D01*
X14282D01*
X12000Y9173D02*
X12087D01*
X28189D02*
X30030Y11014D01*
X30384D01*
X28102Y9173D02*
X28189D01*
X12087Y21181D02*
X13927Y23022D01*
X14282D01*
X12000Y21181D02*
X12087D01*
X28189D02*
X30030Y23022D01*
X30384D01*
X28102Y21181D02*
X28189D01*
D30*
X9353Y10497D02*
X10685Y11829D01*
X10433Y12087D02*
X10685Y11835D01*
X14587Y15000D02*
Y15650D01*
X12234Y16644D02*
X13593D01*
X11339Y15748D02*
X12234Y16644D01*
X11339Y15384D02*
Y15748D01*
X10433Y12087D02*
Y12766D01*
X13770Y11835D02*
X14030D01*
X12992D02*
X13770D01*
X12540D02*
X12992D01*
X12047D02*
X12540D01*
X10685D02*
X10859D01*
X11692D02*
X12047D01*
X11338D02*
X11692D01*
X10859D02*
X11338D01*
X14030D02*
X14626Y12431D01*
Y13425D01*
X13593Y16644D02*
X14587Y15650D01*
X10699Y14744D02*
X11339Y15384D01*
X10089Y14134D02*
X10699Y14744D01*
X10089Y13110D02*
Y14134D01*
Y13110D02*
X10433Y12766D01*
X14616Y13435D02*
X14626Y13425D01*
X25455Y10497D02*
X26787Y11829D01*
X26535Y12087D02*
X26787Y11835D01*
X30689Y15000D02*
Y15650D01*
X28337Y16644D02*
X29695D01*
X27441Y15748D02*
X28337Y16644D01*
X27441Y15384D02*
Y15748D01*
X26535Y12087D02*
Y12766D01*
X29872Y11835D02*
X30132D01*
X29094D02*
X29872D01*
X28642D02*
X29094D01*
X28150D02*
X28642D01*
X26787D02*
X26962D01*
X27795D02*
X28150D01*
X27440D02*
X27795D01*
X26962D02*
X27440D01*
X30132D02*
X30728Y12431D01*
Y13425D01*
X29695Y16644D02*
X30689Y15650D01*
X26801Y14744D02*
X27441Y15384D01*
X26191Y14134D02*
X26801Y14744D01*
X26191Y13110D02*
Y14134D01*
Y13110D02*
X26535Y12766D01*
X30719Y13435D02*
X30728Y13425D01*
X9353Y22505D02*
X10685Y23837D01*
X10433Y24094D02*
X10685Y23843D01*
X14587Y27008D02*
Y27657D01*
X12234Y28652D02*
X13593D01*
X11339Y27756D02*
X12234Y28652D01*
X11339Y27392D02*
Y27756D01*
X10433Y24094D02*
Y24774D01*
X13770Y23843D02*
X14030D01*
X12992D02*
X13770D01*
X12540D02*
X12992D01*
X12047D02*
X12540D01*
X10685D02*
X10859D01*
X11692D02*
X12047D01*
X11338D02*
X11692D01*
X10859D02*
X11338D01*
X14030D02*
X14626Y24439D01*
Y25433D01*
X13593Y28652D02*
X14587Y27657D01*
X10699Y26752D02*
X11339Y27392D01*
X10089Y26142D02*
X10699Y26752D01*
X10089Y25118D02*
Y26142D01*
Y25118D02*
X10433Y24774D01*
X14616Y25443D02*
X14626Y25433D01*
X25455Y22505D02*
X26787Y23837D01*
X26535Y24094D02*
X26787Y23843D01*
X30689Y27008D02*
Y27657D01*
X28337Y28652D02*
X29695D01*
X27441Y27756D02*
X28337Y28652D01*
X27441Y27392D02*
Y27756D01*
X26535Y24094D02*
Y24774D01*
X29872Y23843D02*
X30132D01*
X29094D02*
X29872D01*
X28642D02*
X29094D01*
X28150D02*
X28642D01*
X26787D02*
X26962D01*
X27795D02*
X28150D01*
X27440D02*
X27795D01*
X26962D02*
X27440D01*
X30132D02*
X30728Y24439D01*
Y25433D01*
X29695Y28652D02*
X30689Y27657D01*
X26801Y26752D02*
X27441Y27392D01*
X26191Y26142D02*
X26801Y26752D01*
X26191Y25118D02*
Y26142D01*
Y25118D02*
X26535Y24774D01*
X30719Y25443D02*
X30728Y25433D01*
D31*
X8819Y10472D02*
Y12717D01*
Y10472D02*
X10000Y9291D01*
X24921Y10472D02*
Y12717D01*
Y10472D02*
X26102Y9291D01*
X8819Y22480D02*
Y24724D01*
Y22480D02*
X10000Y21299D01*
X24921Y22480D02*
Y24724D01*
Y22480D02*
X26102Y21299D01*
D35*
X13917Y15354D02*
X14443Y14828D01*
X14872Y14813D02*
X15020Y14665D01*
X14509Y14813D02*
X14872D01*
X14494Y14828D02*
X14509Y14813D01*
X14443Y14828D02*
X14494D01*
X30020Y15354D02*
X30546Y14828D01*
X30974Y14813D02*
X31122Y14665D01*
X30612Y14813D02*
X30974D01*
X30596Y14828D02*
X30612Y14813D01*
X30546Y14828D02*
X30596D01*
X13917Y27362D02*
X14443Y26836D01*
X14872Y26821D02*
X15020Y26673D01*
X14509Y26821D02*
X14872D01*
X14494Y26836D02*
X14509Y26821D01*
X14443Y26836D02*
X14494D01*
X30020Y27362D02*
X30546Y26836D01*
X30974Y26821D02*
X31122Y26673D01*
X30612Y26821D02*
X30974D01*
X30596Y26836D02*
X30612Y26821D01*
X30546Y26836D02*
X30596D01*
D43*
X37323Y4961D02*
D03*
Y4173D02*
D03*
Y4567D02*
D03*
Y630D02*
D03*
Y1024D02*
D03*
Y1417D02*
D03*
Y2205D02*
D03*
Y1811D02*
D03*
Y2992D02*
D03*
Y2598D02*
D03*
Y3780D02*
D03*
Y3386D02*
D03*
Y236D02*
D03*
Y30079D02*
D03*
Y30866D02*
D03*
Y30472D02*
D03*
Y34409D02*
D03*
Y34016D02*
D03*
Y33622D02*
D03*
Y32835D02*
D03*
Y33228D02*
D03*
Y32047D02*
D03*
Y32441D02*
D03*
Y31260D02*
D03*
Y31654D02*
D03*
Y34803D02*
D03*
X5906Y34825D02*
D03*
Y31675D02*
D03*
Y31282D02*
D03*
Y32463D02*
D03*
Y32069D02*
D03*
Y33250D02*
D03*
Y32856D02*
D03*
Y33644D02*
D03*
Y34037D02*
D03*
Y34431D02*
D03*
Y30494D02*
D03*
Y30888D02*
D03*
Y30100D02*
D03*
Y4990D02*
D03*
Y4203D02*
D03*
Y4596D02*
D03*
Y659D02*
D03*
Y1053D02*
D03*
Y1447D02*
D03*
Y2234D02*
D03*
Y1840D02*
D03*
Y3022D02*
D03*
Y2628D02*
D03*
Y3809D02*
D03*
Y3415D02*
D03*
Y266D02*
D03*
X17520Y5906D02*
D03*
X17126D02*
D03*
X16732D02*
D03*
X5906Y14173D02*
D03*
Y14567D02*
D03*
Y14961D02*
D03*
X21220Y14173D02*
D03*
Y14567D02*
D03*
Y14961D02*
D03*
X17520Y17126D02*
D03*
X17126D02*
D03*
X16732D02*
D03*
X33622Y5906D02*
D03*
X33228D02*
D03*
X32835D02*
D03*
X22008Y14173D02*
D03*
Y14567D02*
D03*
Y14961D02*
D03*
X37323Y14173D02*
D03*
Y14567D02*
D03*
Y14961D02*
D03*
X33622Y17126D02*
D03*
X33228D02*
D03*
X32835D02*
D03*
X17520Y17913D02*
D03*
X17126D02*
D03*
X16732D02*
D03*
X5906Y26181D02*
D03*
Y26575D02*
D03*
Y26969D02*
D03*
X21220Y26181D02*
D03*
Y26575D02*
D03*
Y26969D02*
D03*
X17520Y29134D02*
D03*
X17126D02*
D03*
X16732D02*
D03*
X33622Y17913D02*
D03*
X33228D02*
D03*
X32835D02*
D03*
X22008Y26181D02*
D03*
Y26575D02*
D03*
Y26969D02*
D03*
X37323Y26181D02*
D03*
Y26575D02*
D03*
Y26969D02*
D03*
X33622Y29134D02*
D03*
X33228D02*
D03*
X32835D02*
D03*
D44*
X8041Y13213D02*
D03*
X24144D02*
D03*
X8041Y25220D02*
D03*
X24144D02*
D03*
D45*
X8041Y14213D02*
D03*
X14000Y9173D02*
D03*
X13000D02*
D03*
X12000D02*
D03*
X11000D02*
D03*
X10000D02*
D03*
X24144Y14213D02*
D03*
X30102Y9173D02*
D03*
X29102D02*
D03*
X28102D02*
D03*
X27102D02*
D03*
X26102D02*
D03*
X8041Y26220D02*
D03*
X14000Y21181D02*
D03*
X13000D02*
D03*
X12000D02*
D03*
X11000D02*
D03*
X10000D02*
D03*
X24144Y26220D02*
D03*
X30102Y21181D02*
D03*
X29102D02*
D03*
X28102D02*
D03*
X27102D02*
D03*
X26102D02*
D03*
D46*
X15000Y9173D02*
D03*
X31102D02*
D03*
X15000Y21181D02*
D03*
X31102D02*
D03*
D47*
X10097Y8003D02*
D03*
X11143Y8003D02*
D03*
X14143D02*
D03*
X15143D02*
D03*
X13143D02*
D03*
X12143D02*
D03*
X16250Y7896D02*
D03*
X15984Y12992D02*
D03*
X8465Y7008D02*
D03*
X8819Y12717D02*
D03*
X9353Y10497D02*
D03*
X10827Y10443D02*
D03*
X13760Y11329D02*
D03*
X12077Y11339D02*
D03*
X11604Y11358D02*
D03*
X18143Y16003D02*
D03*
Y12003D02*
D03*
Y10003D02*
D03*
Y8003D02*
D03*
X17643Y7003D02*
D03*
X17143Y16003D02*
D03*
Y12003D02*
D03*
Y10003D02*
D03*
Y8003D02*
D03*
X16643Y7003D02*
D03*
X16143Y16003D02*
D03*
X15643Y7003D02*
D03*
X15143Y12003D02*
D03*
X14643Y11003D02*
D03*
Y7003D02*
D03*
X13643Y11003D02*
D03*
X14143Y10003D02*
D03*
X13643Y7003D02*
D03*
X12643D02*
D03*
X12143Y10003D02*
D03*
X11643Y7003D02*
D03*
X10643D02*
D03*
X10143Y16003D02*
D03*
X9643Y13003D02*
D03*
X10143Y12003D02*
D03*
X9643Y7003D02*
D03*
X9143Y16003D02*
D03*
X8643Y13003D02*
D03*
X9143Y12003D02*
D03*
X8143Y16003D02*
D03*
X7643Y15003D02*
D03*
Y11003D02*
D03*
Y7003D02*
D03*
X6643Y15003D02*
D03*
X7143Y14003D02*
D03*
X6643Y13003D02*
D03*
X7143Y12003D02*
D03*
X6643Y11003D02*
D03*
X7143Y10003D02*
D03*
X6643Y9003D02*
D03*
X16467Y15374D02*
D03*
X12963Y10394D02*
D03*
X9173Y12264D02*
D03*
X9931Y12283D02*
D03*
X17087Y12992D02*
D03*
X16634Y13730D02*
D03*
X16250D02*
D03*
X16260Y14361D02*
D03*
X16634Y14360D02*
D03*
X17392Y13740D02*
D03*
X17402Y14390D02*
D03*
X14970Y15512D02*
D03*
X15870Y13730D02*
D03*
X15118Y11614D02*
D03*
X10716Y11516D02*
D03*
X10437Y12096D02*
D03*
X9606Y11693D02*
D03*
X12992Y11835D02*
D03*
X10859D02*
D03*
X14282Y11014D02*
D03*
X15326Y14611D02*
D03*
X15786Y15761D02*
D03*
X12540Y11835D02*
D03*
X13770D02*
D03*
X15406Y14361D02*
D03*
X15886D02*
D03*
X14906Y14371D02*
D03*
X12047Y11835D02*
D03*
X11692D02*
D03*
X14488Y11841D02*
D03*
X11338Y11835D02*
D03*
X10266Y15699D02*
D03*
X9636Y14921D02*
D03*
Y14439D02*
D03*
X10699Y14744D02*
D03*
X12156Y16004D02*
D03*
X12421Y15423D02*
D03*
X11368Y15748D02*
D03*
X13917Y15354D02*
D03*
X14380Y13858D02*
D03*
X9636Y16782D02*
D03*
X9636Y15699D02*
D03*
X14282Y16782D02*
D03*
X14587Y15000D02*
D03*
X10591Y14970D02*
D03*
X11634Y16486D02*
D03*
X13125Y16624D02*
D03*
X13671Y15650D02*
D03*
X14606Y15620D02*
D03*
X14833Y15000D02*
D03*
X14400Y14636D02*
D03*
X15020Y14665D02*
D03*
X15404Y13307D02*
D03*
X11063Y16654D02*
D03*
X10748Y13809D02*
D03*
X14616Y13435D02*
D03*
X10089Y13110D02*
D03*
X10256Y16309D02*
D03*
X14626Y12431D02*
D03*
X15336Y16051D02*
D03*
X13287Y16427D02*
D03*
X14872Y15699D02*
D03*
X15522Y13730D02*
D03*
X15876Y16782D02*
D03*
X14970Y13730D02*
D03*
X9941Y14439D02*
D03*
X10620Y16654D02*
D03*
X14980Y16782D02*
D03*
X14921Y12441D02*
D03*
X26199Y8003D02*
D03*
X27246Y8003D02*
D03*
X30246D02*
D03*
X31246D02*
D03*
X29246D02*
D03*
X28246D02*
D03*
X32353Y7896D02*
D03*
X32087Y12992D02*
D03*
X24567Y7008D02*
D03*
X24921Y12717D02*
D03*
X25455Y10497D02*
D03*
X26929Y10443D02*
D03*
X29862Y11329D02*
D03*
X28179Y11339D02*
D03*
X27707Y11358D02*
D03*
X34246Y16003D02*
D03*
Y12003D02*
D03*
Y10003D02*
D03*
Y8003D02*
D03*
X33746Y7003D02*
D03*
X33246Y16003D02*
D03*
Y12003D02*
D03*
Y10003D02*
D03*
Y8003D02*
D03*
X32746Y7003D02*
D03*
X32246Y16003D02*
D03*
X31746Y7003D02*
D03*
X31246Y12003D02*
D03*
X30746Y11003D02*
D03*
Y7003D02*
D03*
X29746Y11003D02*
D03*
X30246Y10003D02*
D03*
X29746Y7003D02*
D03*
X28746D02*
D03*
X28246Y10003D02*
D03*
X27746Y7003D02*
D03*
X26746D02*
D03*
X26246Y16003D02*
D03*
X25746Y13003D02*
D03*
X26246Y12003D02*
D03*
X25746Y7003D02*
D03*
X25246Y16003D02*
D03*
X24746Y13003D02*
D03*
X25246Y12003D02*
D03*
X24246Y16003D02*
D03*
X23746Y15003D02*
D03*
Y11003D02*
D03*
Y7003D02*
D03*
X22746Y15003D02*
D03*
X23246Y14003D02*
D03*
X22746Y13003D02*
D03*
X23246Y12003D02*
D03*
X22746Y11003D02*
D03*
X23246Y10003D02*
D03*
X22746Y9003D02*
D03*
X32569Y15374D02*
D03*
X29065Y10394D02*
D03*
X25276Y12264D02*
D03*
X26033Y12283D02*
D03*
X33189Y12992D02*
D03*
X32736Y13730D02*
D03*
X32352D02*
D03*
X32362Y14361D02*
D03*
X32736Y14360D02*
D03*
X33494Y13740D02*
D03*
X33504Y14390D02*
D03*
X31073Y15512D02*
D03*
X31973Y13730D02*
D03*
X31220Y11614D02*
D03*
X26818Y11516D02*
D03*
X26539Y12096D02*
D03*
X25709Y11693D02*
D03*
X29094Y11835D02*
D03*
X26962D02*
D03*
X30384Y11014D02*
D03*
X31428Y14611D02*
D03*
X31888Y15761D02*
D03*
X28642Y11835D02*
D03*
X29872D02*
D03*
X31508Y14361D02*
D03*
X31988D02*
D03*
X31008Y14371D02*
D03*
X28150Y11835D02*
D03*
X27795D02*
D03*
X30591Y11841D02*
D03*
X27440Y11835D02*
D03*
X26368Y15699D02*
D03*
X25738Y14921D02*
D03*
Y14439D02*
D03*
X26801Y14744D02*
D03*
X28258Y16004D02*
D03*
X28524Y15423D02*
D03*
X27470Y15748D02*
D03*
X30020Y15354D02*
D03*
X30482Y13858D02*
D03*
X25738Y16782D02*
D03*
X25738Y15699D02*
D03*
X30384Y16782D02*
D03*
X30689Y15000D02*
D03*
X26693Y14970D02*
D03*
X27736Y16486D02*
D03*
X29227Y16624D02*
D03*
X29774Y15650D02*
D03*
X30709Y15620D02*
D03*
X30935Y15000D02*
D03*
X30502Y14636D02*
D03*
X31122Y14665D02*
D03*
X31506Y13307D02*
D03*
X27165Y16654D02*
D03*
X26850Y13809D02*
D03*
X30719Y13435D02*
D03*
X26191Y13110D02*
D03*
X26358Y16309D02*
D03*
X30728Y12431D02*
D03*
X31438Y16051D02*
D03*
X29390Y16427D02*
D03*
X30974Y15699D02*
D03*
X31624Y13730D02*
D03*
X31978Y16782D02*
D03*
X31073Y13730D02*
D03*
X26043Y14439D02*
D03*
X26722Y16654D02*
D03*
X31083Y16782D02*
D03*
X31024Y12441D02*
D03*
X10097Y20011D02*
D03*
X11143Y20011D02*
D03*
X14143D02*
D03*
X15143D02*
D03*
X13143D02*
D03*
X12143D02*
D03*
X16250Y19904D02*
D03*
X15984Y25000D02*
D03*
X8465Y19016D02*
D03*
X8819Y24724D02*
D03*
X9353Y22505D02*
D03*
X10827Y22451D02*
D03*
X13760Y23337D02*
D03*
X12077Y23346D02*
D03*
X11604Y23366D02*
D03*
X18143Y28011D02*
D03*
Y24011D02*
D03*
Y22011D02*
D03*
Y20011D02*
D03*
X17643Y19011D02*
D03*
X17143Y28011D02*
D03*
Y24011D02*
D03*
Y22011D02*
D03*
Y20011D02*
D03*
X16643Y19011D02*
D03*
X16143Y28011D02*
D03*
X15643Y19011D02*
D03*
X15143Y24011D02*
D03*
X14643Y23011D02*
D03*
Y19011D02*
D03*
X13643Y23011D02*
D03*
X14143Y22011D02*
D03*
X13643Y19011D02*
D03*
X12643D02*
D03*
X12143Y22011D02*
D03*
X11643Y19011D02*
D03*
X10643D02*
D03*
X10143Y28011D02*
D03*
X9643Y25011D02*
D03*
X10143Y24011D02*
D03*
X9643Y19011D02*
D03*
X9143Y28011D02*
D03*
X8643Y25011D02*
D03*
X9143Y24011D02*
D03*
X8143Y28011D02*
D03*
X7643Y27011D02*
D03*
Y23011D02*
D03*
Y19011D02*
D03*
X6643Y27011D02*
D03*
X7143Y26011D02*
D03*
X6643Y25011D02*
D03*
X7143Y24011D02*
D03*
X6643Y23011D02*
D03*
X7143Y22011D02*
D03*
X6643Y21011D02*
D03*
X16467Y27382D02*
D03*
X12963Y22402D02*
D03*
X9173Y24272D02*
D03*
X9931Y24291D02*
D03*
X17087Y25000D02*
D03*
X16634Y25738D02*
D03*
X16250D02*
D03*
X16260Y26369D02*
D03*
X16634Y26368D02*
D03*
X17392Y25748D02*
D03*
X17402Y26398D02*
D03*
X14970Y27520D02*
D03*
X15870Y25738D02*
D03*
X15118Y23622D02*
D03*
X10716Y23524D02*
D03*
X10437Y24104D02*
D03*
X9606Y23701D02*
D03*
X12992Y23843D02*
D03*
X10859D02*
D03*
X14282Y23022D02*
D03*
X15326Y26619D02*
D03*
X15786Y27769D02*
D03*
X12540Y23843D02*
D03*
X13770D02*
D03*
X15406Y26369D02*
D03*
X15886D02*
D03*
X14906Y26379D02*
D03*
X12047Y23843D02*
D03*
X11692D02*
D03*
X14488Y23848D02*
D03*
X11338Y23843D02*
D03*
X10266Y27707D02*
D03*
X9636Y26929D02*
D03*
Y26447D02*
D03*
X10699Y26752D02*
D03*
X12156Y28012D02*
D03*
X12421Y27431D02*
D03*
X11368Y27756D02*
D03*
X13917Y27362D02*
D03*
X14380Y25866D02*
D03*
X9636Y28789D02*
D03*
X9636Y27707D02*
D03*
X14282Y28789D02*
D03*
X14587Y27008D02*
D03*
X10591Y26978D02*
D03*
X11634Y28494D02*
D03*
X13125Y28632D02*
D03*
X13671Y27657D02*
D03*
X14606Y27628D02*
D03*
X14833Y27008D02*
D03*
X14400Y26644D02*
D03*
X15020Y26673D02*
D03*
X15404Y25315D02*
D03*
X11063Y28661D02*
D03*
X10748Y25817D02*
D03*
X14616Y25443D02*
D03*
X10089Y25118D02*
D03*
X10256Y28317D02*
D03*
X14626Y24439D02*
D03*
X15336Y28059D02*
D03*
X13287Y28435D02*
D03*
X14872Y27707D02*
D03*
X15522Y25738D02*
D03*
X15876Y28789D02*
D03*
X14970Y25738D02*
D03*
X9941Y26447D02*
D03*
X10620Y28661D02*
D03*
X14980Y28789D02*
D03*
X14921Y24449D02*
D03*
X26199Y20011D02*
D03*
X27246Y20011D02*
D03*
X30246D02*
D03*
X31246D02*
D03*
X29246D02*
D03*
X28246D02*
D03*
X32353Y19904D02*
D03*
X32087Y25000D02*
D03*
X24567Y19016D02*
D03*
X24921Y24724D02*
D03*
X25455Y22505D02*
D03*
X26929Y22451D02*
D03*
X29862Y23337D02*
D03*
X28179Y23346D02*
D03*
X27707Y23366D02*
D03*
X34246Y28011D02*
D03*
Y24011D02*
D03*
Y22011D02*
D03*
Y20011D02*
D03*
X33746Y19011D02*
D03*
X33246Y28011D02*
D03*
Y24011D02*
D03*
Y22011D02*
D03*
Y20011D02*
D03*
X32746Y19011D02*
D03*
X32246Y28011D02*
D03*
X31746Y19011D02*
D03*
X31246Y24011D02*
D03*
X30746Y23011D02*
D03*
Y19011D02*
D03*
X29746Y23011D02*
D03*
X30246Y22011D02*
D03*
X29746Y19011D02*
D03*
X28746D02*
D03*
X28246Y22011D02*
D03*
X27746Y19011D02*
D03*
X26746D02*
D03*
X26246Y28011D02*
D03*
X25746Y25011D02*
D03*
X26246Y24011D02*
D03*
X25746Y19011D02*
D03*
X25246Y28011D02*
D03*
X24746Y25011D02*
D03*
X25246Y24011D02*
D03*
X24246Y28011D02*
D03*
X23746Y27011D02*
D03*
Y23011D02*
D03*
Y19011D02*
D03*
X22746Y27011D02*
D03*
X23246Y26011D02*
D03*
X22746Y25011D02*
D03*
X23246Y24011D02*
D03*
X22746Y23011D02*
D03*
X23246Y22011D02*
D03*
X22746Y21011D02*
D03*
X32569Y27382D02*
D03*
X29065Y22402D02*
D03*
X25276Y24272D02*
D03*
X26033Y24291D02*
D03*
X33189Y25000D02*
D03*
X32736Y25738D02*
D03*
X32352D02*
D03*
X32362Y26369D02*
D03*
X32736Y26368D02*
D03*
X33494Y25748D02*
D03*
X33504Y26398D02*
D03*
X31073Y27520D02*
D03*
X31973Y25738D02*
D03*
X31220Y23622D02*
D03*
X26818Y23524D02*
D03*
X26539Y24104D02*
D03*
X25709Y23701D02*
D03*
X29094Y23843D02*
D03*
X26962D02*
D03*
X30384Y23022D02*
D03*
X31428Y26619D02*
D03*
X31888Y27769D02*
D03*
X28642Y23843D02*
D03*
X29872D02*
D03*
X31508Y26369D02*
D03*
X31988D02*
D03*
X31008Y26379D02*
D03*
X28150Y23843D02*
D03*
X27795D02*
D03*
X30591Y23848D02*
D03*
X27440Y23843D02*
D03*
X26368Y27707D02*
D03*
X25738Y26929D02*
D03*
Y26447D02*
D03*
X26801Y26752D02*
D03*
X28258Y28012D02*
D03*
X28524Y27431D02*
D03*
X27470Y27756D02*
D03*
X30020Y27362D02*
D03*
X30482Y25866D02*
D03*
X25738Y28789D02*
D03*
X25738Y27707D02*
D03*
X30384Y28789D02*
D03*
X30689Y27008D02*
D03*
X26693Y26978D02*
D03*
X27736Y28494D02*
D03*
X29227Y28632D02*
D03*
X29774Y27657D02*
D03*
X30709Y27628D02*
D03*
X30935Y27008D02*
D03*
X30502Y26644D02*
D03*
X31122Y26673D02*
D03*
X31506Y25315D02*
D03*
X27165Y28661D02*
D03*
X26850Y25817D02*
D03*
X30719Y25443D02*
D03*
X26191Y25118D02*
D03*
X26358Y28317D02*
D03*
X30728Y24439D02*
D03*
X31438Y28059D02*
D03*
X29390Y28435D02*
D03*
X30974Y27707D02*
D03*
X31624Y25738D02*
D03*
X31978Y28789D02*
D03*
X31073Y25738D02*
D03*
X26043Y26447D02*
D03*
X26722Y28661D02*
D03*
X31083Y28789D02*
D03*
X31024Y24449D02*
D03*
D48*
X12047Y14370D02*
D03*
X12572D02*
D03*
X13097D02*
D03*
X13622D02*
D03*
X12047Y13898D02*
D03*
X12572D02*
D03*
X13097D02*
D03*
X13622D02*
D03*
X12047Y13425D02*
D03*
X12572D02*
D03*
X13097D02*
D03*
X13622D02*
D03*
X12047Y12953D02*
D03*
X12572D02*
D03*
X13097D02*
D03*
X13622D02*
D03*
X28150Y14370D02*
D03*
X28675D02*
D03*
X29199D02*
D03*
X29724D02*
D03*
X28150Y13898D02*
D03*
X28675D02*
D03*
X29199D02*
D03*
X29724D02*
D03*
X28150Y13425D02*
D03*
X28675D02*
D03*
X29199D02*
D03*
X29724D02*
D03*
X28150Y12953D02*
D03*
X28675D02*
D03*
X29199D02*
D03*
X29724D02*
D03*
X12047Y26378D02*
D03*
X12572D02*
D03*
X13097D02*
D03*
X13622D02*
D03*
X12047Y25906D02*
D03*
X12572D02*
D03*
X13097D02*
D03*
X13622D02*
D03*
X12047Y25433D02*
D03*
X12572D02*
D03*
X13097D02*
D03*
X13622D02*
D03*
X12047Y24961D02*
D03*
X12572D02*
D03*
X13097D02*
D03*
X13622D02*
D03*
X28150Y26378D02*
D03*
X28675D02*
D03*
X29199D02*
D03*
X29724D02*
D03*
X28150Y25906D02*
D03*
X28675D02*
D03*
X29199D02*
D03*
X29724D02*
D03*
X28150Y25433D02*
D03*
X28675D02*
D03*
X29199D02*
D03*
X29724D02*
D03*
X28150Y24961D02*
D03*
X28675D02*
D03*
X29199D02*
D03*
X29724D02*
D03*
M02*
