G04*
G04 #@! TF.GenerationSoftware,Altium Limited,Altium Designer,24.0.1 (36)*
G04*
G04 Layer_Color=8388736*
%FSLAX24Y24*%
%MOIN*%
G70*
G04*
G04 #@! TF.SameCoordinates,E6425953-F81D-4A1B-B41F-9E3DC787EA87*
G04*
G04*
G04 #@! TF.FilePolarity,Negative*
G04*
G01*
G75*
%ADD37R,0.0359X0.1005*%
%ADD38R,0.0158X0.0247*%
%ADD39R,0.0247X0.0158*%
%ADD40R,0.0572X0.0532*%
%ADD41R,0.0296X0.0257*%
%ADD42R,0.0288X0.0257*%
%ADD43R,0.0375X0.0355*%
%ADD44R,0.0257X0.0296*%
%ADD45R,0.0611X0.1143*%
%ADD46R,0.0256X0.0276*%
%ADD47R,0.0166X0.0178*%
%ADD48R,0.0395X0.0434*%
%ADD49C,0.0128*%
%ADD50R,0.0178X0.0166*%
%ADD51R,0.0157X0.0146*%
%ADD52R,0.0375X0.0355*%
%ADD53R,0.0355X0.0375*%
%ADD54C,0.0197*%
%ADD55R,0.2165X0.2008*%
%ADD56C,0.0296*%
%ADD57R,0.0651X0.0651*%
%ADD58C,0.0651*%
%ADD59R,0.0651X0.0651*%
D37*
X1126Y3287D02*
D03*
X1626D02*
D03*
X2126D02*
D03*
X2626D02*
D03*
X3126D02*
D03*
X1126Y1752D02*
D03*
X1626D02*
D03*
X2126D02*
D03*
X2626D02*
D03*
X3126D02*
D03*
D38*
X2549Y5246D02*
D03*
X2746D02*
D03*
X2943D02*
D03*
Y4528D02*
D03*
X2746D02*
D03*
X2549D02*
D03*
D39*
X3204Y5182D02*
D03*
Y4985D02*
D03*
Y4788D02*
D03*
Y4592D02*
D03*
X2288D02*
D03*
Y4788D02*
D03*
Y4985D02*
D03*
Y5182D02*
D03*
D40*
X2963Y8691D02*
D03*
Y9478D02*
D03*
D41*
X3110Y4134D02*
D03*
X2717D02*
D03*
X6949Y10100D02*
D03*
X6555D02*
D03*
X6732Y9766D02*
D03*
X6339D02*
D03*
X8435Y9744D02*
D03*
X8041D02*
D03*
D42*
X11953Y8150D02*
D03*
X11039D02*
D03*
D43*
X11870Y7746D02*
D03*
Y8553D02*
D03*
X11122D02*
D03*
Y7746D02*
D03*
D44*
X12293Y8278D02*
D03*
Y8671D02*
D03*
X5728Y10246D02*
D03*
Y9852D02*
D03*
X7352Y10266D02*
D03*
Y9872D02*
D03*
D45*
X11772Y5896D02*
D03*
X10197D02*
D03*
X11772Y3238D02*
D03*
X10197D02*
D03*
D46*
X2943Y7992D02*
D03*
Y7598D02*
D03*
D47*
X4758Y9537D02*
D03*
X4533D02*
D03*
X8756Y8150D02*
D03*
X8980D02*
D03*
X8852Y7707D02*
D03*
X8628D02*
D03*
X4346Y6388D02*
D03*
X4571D02*
D03*
X7757Y9449D02*
D03*
X7533D02*
D03*
X8872Y9518D02*
D03*
X8648D02*
D03*
D48*
X9882Y9559D02*
D03*
X9429Y8988D02*
D03*
X9882D02*
D03*
X9429Y9559D02*
D03*
D49*
X5906Y8858D02*
D03*
X5748D02*
D03*
X5591Y7992D02*
D03*
Y7835D02*
D03*
Y7520D02*
D03*
Y7362D02*
D03*
X5748Y7598D02*
D03*
Y7441D02*
D03*
Y7283D02*
D03*
Y7126D02*
D03*
Y6811D02*
D03*
X5591Y6732D02*
D03*
X5748Y6654D02*
D03*
X5906D02*
D03*
X6063D02*
D03*
X5984Y6496D02*
D03*
X6220Y6654D02*
D03*
X6378D02*
D03*
X6299Y6496D02*
D03*
X6535Y6654D02*
D03*
X6693D02*
D03*
X6614Y6496D02*
D03*
X6850Y6654D02*
D03*
X6772Y6496D02*
D03*
X7008Y6654D02*
D03*
X7165D02*
D03*
X7717Y6496D02*
D03*
X7795Y6654D02*
D03*
X7874Y6496D02*
D03*
X7953Y6654D02*
D03*
X8110Y7047D02*
D03*
Y7677D02*
D03*
X7480Y8858D02*
D03*
X7323D02*
D03*
X5748Y8071D02*
D03*
Y7913D02*
D03*
X5591Y7047D02*
D03*
X5748Y6969D02*
D03*
X7087Y6496D02*
D03*
X7323Y6654D02*
D03*
X7244Y6496D02*
D03*
X7480Y6654D02*
D03*
X7402Y6496D02*
D03*
X7638Y6654D02*
D03*
X8110Y7835D02*
D03*
X7165Y8858D02*
D03*
X7008D02*
D03*
X6929Y9016D02*
D03*
X6850Y8858D02*
D03*
X6693D02*
D03*
X8110Y7520D02*
D03*
Y7362D02*
D03*
Y8780D02*
D03*
X7953Y8858D02*
D03*
X7717Y9016D02*
D03*
X7559Y6496D02*
D03*
X6929D02*
D03*
X6457D02*
D03*
X6142D02*
D03*
X5827D02*
D03*
X5591Y6890D02*
D03*
X8110Y7205D02*
D03*
X5591D02*
D03*
Y7677D02*
D03*
X5748Y7756D02*
D03*
X8110Y7992D02*
D03*
Y8150D02*
D03*
X5591D02*
D03*
X5748Y8228D02*
D03*
X8110Y8307D02*
D03*
X5591D02*
D03*
X5748Y8386D02*
D03*
X8110Y8465D02*
D03*
X5591D02*
D03*
X5748Y8543D02*
D03*
X8110Y8622D02*
D03*
X5591D02*
D03*
X5748Y8701D02*
D03*
X5591Y8780D02*
D03*
X6535Y8858D02*
D03*
X6378D02*
D03*
X6220D02*
D03*
X6063D02*
D03*
X7559Y9016D02*
D03*
X7402D02*
D03*
X7244D02*
D03*
X7087D02*
D03*
X6772D02*
D03*
X6614D02*
D03*
X5984D02*
D03*
X7638Y8858D02*
D03*
X7795D02*
D03*
X8110Y6890D02*
D03*
Y6732D02*
D03*
D50*
X7657Y5724D02*
D03*
Y5949D02*
D03*
X6477D02*
D03*
Y5724D02*
D03*
X5265D02*
D03*
Y5949D02*
D03*
X8898Y8911D02*
D03*
Y8687D02*
D03*
X5000Y9089D02*
D03*
Y8864D02*
D03*
X8681Y8687D02*
D03*
Y8911D02*
D03*
X8543Y8156D02*
D03*
Y8380D02*
D03*
D51*
X9203Y8234D02*
D03*
Y8459D02*
D03*
D52*
X4488Y7362D02*
D03*
Y7894D02*
D03*
X5157Y10406D02*
D03*
Y9874D02*
D03*
X4026Y7520D02*
D03*
Y8051D02*
D03*
X4715Y9874D02*
D03*
Y10406D02*
D03*
D53*
X8287Y10148D02*
D03*
X7756D02*
D03*
X6132Y10502D02*
D03*
X6663D02*
D03*
X4911Y8504D02*
D03*
X4380D02*
D03*
D54*
X5591Y9016D02*
D03*
Y6496D02*
D03*
X8110D02*
D03*
Y9016D02*
D03*
D55*
X6929Y7756D02*
D03*
D56*
X11614Y0D02*
D03*
X11220D02*
D03*
X10827D02*
D03*
X0Y8268D02*
D03*
Y8661D02*
D03*
Y9055D02*
D03*
X15315Y8268D02*
D03*
Y8661D02*
D03*
Y9055D02*
D03*
X11614Y11220D02*
D03*
X11220D02*
D03*
X10827D02*
D03*
D57*
X2136Y7307D02*
D03*
D58*
Y8307D02*
D03*
X8094Y3268D02*
D03*
X7094D02*
D03*
X6094D02*
D03*
X5094D02*
D03*
X4094D02*
D03*
D59*
X9094D02*
D03*
M02*
