G04*
G04 #@! TF.GenerationSoftware,Altium Limited,Altium Designer,24.0.1 (36)*
G04*
G04 Layer_Color=8421504*
%FSLAX24Y24*%
%MOIN*%
G70*
G04*
G04 #@! TF.SameCoordinates,E6425953-F81D-4A1B-B41F-9E3DC787EA87*
G04*
G04*
G04 #@! TF.FilePolarity,Positive*
G04*
G01*
G75*
G04:AMPARAMS|DCode=19|XSize=43.3mil|YSize=39.4mil|CornerRadius=3mil|HoleSize=0mil|Usage=FLASHONLY|Rotation=180.000|XOffset=0mil|YOffset=0mil|HoleType=Round|Shape=RoundedRectangle|*
%AMROUNDEDRECTD19*
21,1,0.0433,0.0335,0,0,180.0*
21,1,0.0374,0.0394,0,0,180.0*
1,1,0.0059,-0.0187,0.0167*
1,1,0.0059,0.0187,0.0167*
1,1,0.0059,0.0187,-0.0167*
1,1,0.0059,-0.0187,-0.0167*
%
%ADD19ROUNDEDRECTD19*%
%ADD20R,0.0299X0.0945*%
%ADD21R,0.0098X0.0187*%
%ADD22R,0.0187X0.0098*%
%ADD23R,0.0512X0.0472*%
%ADD24R,0.0236X0.0197*%
%ADD25R,0.0228X0.0197*%
%ADD26R,0.0315X0.0295*%
%ADD27R,0.0197X0.0236*%
%ADD28R,0.0551X0.1083*%
%ADD29R,0.0217X0.0236*%
%ADD30R,0.0106X0.0118*%
%ADD31R,0.0335X0.0374*%
%ADD32C,0.0098*%
%ADD33R,0.0118X0.0106*%
%ADD34R,0.0315X0.0295*%
%ADD35R,0.0295X0.0315*%
%ADD36C,0.0167*%
D19*
X7697Y7047D02*
D03*
X7185D02*
D03*
X6673D02*
D03*
X6161D02*
D03*
Y7520D02*
D03*
X6673D02*
D03*
X7185D02*
D03*
X7697D02*
D03*
X6161Y7992D02*
D03*
X6673D02*
D03*
X7185D02*
D03*
X7697D02*
D03*
X6161Y8465D02*
D03*
X6673D02*
D03*
X7185D02*
D03*
X7697D02*
D03*
D20*
X1126Y3287D02*
D03*
X1626D02*
D03*
X2126D02*
D03*
X2626D02*
D03*
X3126D02*
D03*
X1126Y1752D02*
D03*
X1626D02*
D03*
X2126D02*
D03*
X2626D02*
D03*
X3126D02*
D03*
D21*
X2549Y5246D02*
D03*
X2746D02*
D03*
X2943D02*
D03*
Y4528D02*
D03*
X2746D02*
D03*
X2549D02*
D03*
D22*
X3204Y5182D02*
D03*
Y4985D02*
D03*
Y4788D02*
D03*
Y4592D02*
D03*
X2288D02*
D03*
Y4788D02*
D03*
Y4985D02*
D03*
Y5182D02*
D03*
D23*
X2963Y8691D02*
D03*
Y9478D02*
D03*
D24*
X3110Y4134D02*
D03*
X2717D02*
D03*
X6949Y10100D02*
D03*
X6555D02*
D03*
X6732Y9766D02*
D03*
X6339D02*
D03*
X8435Y9744D02*
D03*
X8041D02*
D03*
D25*
X11953Y8150D02*
D03*
X11039D02*
D03*
D26*
X11870Y7746D02*
D03*
Y8553D02*
D03*
X11122D02*
D03*
Y7746D02*
D03*
D27*
X12293Y8278D02*
D03*
Y8671D02*
D03*
X5728Y10246D02*
D03*
Y9852D02*
D03*
X7352Y10266D02*
D03*
Y9872D02*
D03*
D28*
X11772Y5896D02*
D03*
X10197D02*
D03*
X11772Y3238D02*
D03*
X10197D02*
D03*
D29*
X2943Y7992D02*
D03*
Y7598D02*
D03*
D30*
X4758Y9537D02*
D03*
X4533D02*
D03*
X8756Y8150D02*
D03*
X8980D02*
D03*
X8852Y7707D02*
D03*
X8628D02*
D03*
X4346Y6388D02*
D03*
X4571D02*
D03*
X7757Y9449D02*
D03*
X7533D02*
D03*
X8872Y9518D02*
D03*
X8648D02*
D03*
D31*
X9882Y9559D02*
D03*
X9429Y8988D02*
D03*
X9882D02*
D03*
X9429Y9559D02*
D03*
D32*
X5906Y8858D02*
D03*
X5748D02*
D03*
X5591Y7992D02*
D03*
Y7835D02*
D03*
Y7520D02*
D03*
Y7362D02*
D03*
X5748Y7598D02*
D03*
Y7441D02*
D03*
Y7283D02*
D03*
Y7126D02*
D03*
Y6811D02*
D03*
X5591Y6732D02*
D03*
X5748Y6654D02*
D03*
X5906D02*
D03*
X6063D02*
D03*
X5984Y6496D02*
D03*
X6220Y6654D02*
D03*
X6378D02*
D03*
X6299Y6496D02*
D03*
X6535Y6654D02*
D03*
X6693D02*
D03*
X6614Y6496D02*
D03*
X6850Y6654D02*
D03*
X6772Y6496D02*
D03*
X7008Y6654D02*
D03*
X7165D02*
D03*
X7717Y6496D02*
D03*
X7795Y6654D02*
D03*
X7874Y6496D02*
D03*
X7953Y6654D02*
D03*
X8110Y7047D02*
D03*
Y7677D02*
D03*
X7480Y8858D02*
D03*
X7323D02*
D03*
X5748Y8071D02*
D03*
Y7913D02*
D03*
X5591Y7047D02*
D03*
X5748Y6969D02*
D03*
X7087Y6496D02*
D03*
X7323Y6654D02*
D03*
X7244Y6496D02*
D03*
X7480Y6654D02*
D03*
X7402Y6496D02*
D03*
X7638Y6654D02*
D03*
X8110Y7835D02*
D03*
X7165Y8858D02*
D03*
X7008D02*
D03*
X6929Y9016D02*
D03*
X6850Y8858D02*
D03*
X6693D02*
D03*
X8110Y7520D02*
D03*
Y7362D02*
D03*
Y8780D02*
D03*
X7953Y8858D02*
D03*
X7717Y9016D02*
D03*
X7559Y6496D02*
D03*
X6929D02*
D03*
X6457D02*
D03*
X6142D02*
D03*
X5827D02*
D03*
X5591Y6890D02*
D03*
X8110Y7205D02*
D03*
X5591D02*
D03*
Y7677D02*
D03*
X5748Y7756D02*
D03*
X8110Y7992D02*
D03*
Y8150D02*
D03*
X5591D02*
D03*
X5748Y8228D02*
D03*
X8110Y8307D02*
D03*
X5591D02*
D03*
X5748Y8386D02*
D03*
X8110Y8465D02*
D03*
X5591D02*
D03*
X5748Y8543D02*
D03*
X8110Y8622D02*
D03*
X5591D02*
D03*
X5748Y8701D02*
D03*
X5591Y8780D02*
D03*
X6535Y8858D02*
D03*
X6378D02*
D03*
X6220D02*
D03*
X6063D02*
D03*
X7559Y9016D02*
D03*
X7402D02*
D03*
X7244D02*
D03*
X7087D02*
D03*
X6772D02*
D03*
X6614D02*
D03*
X5984D02*
D03*
X7638Y8858D02*
D03*
X7795D02*
D03*
X8110Y6890D02*
D03*
Y6732D02*
D03*
D33*
X7657Y5724D02*
D03*
Y5949D02*
D03*
X6477D02*
D03*
Y5724D02*
D03*
X9203Y8234D02*
D03*
Y8459D02*
D03*
X5265Y5724D02*
D03*
Y5949D02*
D03*
X8898Y8911D02*
D03*
Y8687D02*
D03*
X5000Y9089D02*
D03*
Y8864D02*
D03*
X8681Y8687D02*
D03*
Y8911D02*
D03*
X8543Y8156D02*
D03*
Y8380D02*
D03*
D34*
X4488Y7362D02*
D03*
Y7894D02*
D03*
X5157Y10406D02*
D03*
Y9874D02*
D03*
X4026Y7520D02*
D03*
Y8051D02*
D03*
X4715Y9874D02*
D03*
Y10406D02*
D03*
D35*
X8287Y10148D02*
D03*
X7756D02*
D03*
X6132Y10502D02*
D03*
X6663D02*
D03*
X4911Y8504D02*
D03*
X4380D02*
D03*
D36*
X5591Y9016D02*
D03*
Y6496D02*
D03*
X8110D02*
D03*
Y9016D02*
D03*
M02*
