G04*
G04 #@! TF.GenerationSoftware,Altium Limited,Altium Designer,24.0.1 (36)*
G04*
G04 Layer_Color=16777215*
%FSLAX24Y24*%
%MOIN*%
G70*
G04*
G04 #@! TF.SameCoordinates,E6425953-F81D-4A1B-B41F-9E3DC787EA87*
G04*
G04*
G04 #@! TF.FilePolarity,Positive*
G04*
G01*
G75*
%ADD10C,0.0049*%
%ADD11C,0.0060*%
%ADD12C,0.0098*%
%ADD13C,0.0118*%
%ADD14C,0.0100*%
%ADD15C,0.0039*%
%ADD16C,0.0050*%
%ADD17C,0.0059*%
%ADD18C,0.0079*%
G36*
X5669Y9134D02*
X5472Y8937D01*
Y9134D01*
X5669Y9134D01*
D02*
G37*
G36*
X2017Y10440D02*
X1936D01*
X1808Y10754D01*
X1903D01*
X1977Y10536D01*
X2051Y10754D01*
X2146D01*
X2017Y10440D01*
D02*
G37*
G36*
X3058D02*
X2964D01*
Y10534D01*
X3058D01*
Y10440D01*
D02*
G37*
G36*
X2864D02*
X2779D01*
Y10817D01*
X2752D01*
Y10898D01*
X2864D01*
Y10440D01*
D02*
G37*
G36*
X2678D02*
X2584D01*
Y10534D01*
X2678D01*
Y10440D01*
D02*
G37*
G36*
X3300Y10908D02*
X3306Y10907D01*
X3313Y10906D01*
X3321Y10905D01*
X3330Y10903D01*
X3340Y10900D01*
X3350Y10897D01*
X3361Y10893D01*
X3371Y10888D01*
X3382Y10882D01*
X3393Y10875D01*
X3403Y10867D01*
X3412Y10857D01*
X3421Y10846D01*
X3422Y10846D01*
X3423Y10843D01*
X3425Y10840D01*
X3428Y10835D01*
X3431Y10828D01*
X3435Y10821D01*
X3439Y10811D01*
X3444Y10801D01*
X3448Y10789D01*
X3452Y10776D01*
X3456Y10762D01*
X3459Y10745D01*
X3462Y10729D01*
X3464Y10710D01*
X3466Y10690D01*
X3466Y10670D01*
Y10669D01*
Y10668D01*
Y10667D01*
Y10665D01*
Y10662D01*
X3466Y10659D01*
Y10651D01*
X3465Y10641D01*
X3464Y10630D01*
X3462Y10618D01*
X3460Y10605D01*
X3458Y10590D01*
X3455Y10576D01*
X3452Y10561D01*
X3447Y10547D01*
X3442Y10532D01*
X3436Y10518D01*
X3428Y10505D01*
X3421Y10492D01*
X3420Y10492D01*
X3419Y10490D01*
X3416Y10487D01*
X3412Y10483D01*
X3408Y10478D01*
X3402Y10473D01*
X3395Y10467D01*
X3388Y10461D01*
X3379Y10456D01*
X3369Y10450D01*
X3359Y10445D01*
X3347Y10440D01*
X3335Y10436D01*
X3322Y10433D01*
X3307Y10431D01*
X3292Y10430D01*
X3289D01*
X3284Y10431D01*
X3278Y10431D01*
X3271Y10432D01*
X3263Y10434D01*
X3254Y10435D01*
X3244Y10438D01*
X3234Y10441D01*
X3224Y10446D01*
X3213Y10451D01*
X3202Y10457D01*
X3191Y10463D01*
X3181Y10472D01*
X3172Y10481D01*
X3163Y10492D01*
X3162Y10493D01*
X3161Y10495D01*
X3159Y10498D01*
X3156Y10503D01*
X3152Y10510D01*
X3148Y10518D01*
X3145Y10527D01*
X3140Y10537D01*
X3136Y10549D01*
X3132Y10563D01*
X3128Y10577D01*
X3124Y10593D01*
X3122Y10610D01*
X3119Y10629D01*
X3118Y10648D01*
X3117Y10670D01*
Y10670D01*
Y10671D01*
Y10672D01*
Y10674D01*
Y10677D01*
X3118Y10680D01*
Y10688D01*
X3119Y10698D01*
X3120Y10709D01*
X3121Y10721D01*
X3123Y10734D01*
X3125Y10749D01*
X3128Y10763D01*
X3132Y10778D01*
X3137Y10793D01*
X3142Y10807D01*
X3148Y10821D01*
X3155Y10834D01*
X3163Y10846D01*
X3163Y10847D01*
X3165Y10849D01*
X3168Y10852D01*
X3171Y10856D01*
X3176Y10860D01*
X3181Y10866D01*
X3188Y10871D01*
X3196Y10877D01*
X3205Y10883D01*
X3214Y10888D01*
X3225Y10894D01*
X3237Y10898D01*
X3249Y10902D01*
X3263Y10906D01*
X3277Y10908D01*
X3292Y10908D01*
X3296D01*
X3300Y10908D01*
D02*
G37*
G36*
X2358D02*
X2364Y10907D01*
X2371Y10906D01*
X2379Y10905D01*
X2388Y10903D01*
X2398Y10900D01*
X2408Y10897D01*
X2418Y10893D01*
X2429Y10888D01*
X2440Y10882D01*
X2450Y10875D01*
X2461Y10867D01*
X2470Y10857D01*
X2479Y10846D01*
X2479Y10846D01*
X2481Y10843D01*
X2483Y10840D01*
X2486Y10835D01*
X2489Y10828D01*
X2493Y10821D01*
X2497Y10811D01*
X2502Y10801D01*
X2506Y10789D01*
X2510Y10776D01*
X2514Y10762D01*
X2517Y10745D01*
X2520Y10729D01*
X2522Y10710D01*
X2524Y10690D01*
X2524Y10670D01*
Y10669D01*
Y10668D01*
Y10667D01*
Y10665D01*
Y10662D01*
X2524Y10659D01*
Y10651D01*
X2523Y10641D01*
X2522Y10630D01*
X2520Y10618D01*
X2518Y10605D01*
X2516Y10590D01*
X2513Y10576D01*
X2509Y10561D01*
X2505Y10547D01*
X2500Y10532D01*
X2494Y10518D01*
X2486Y10505D01*
X2478Y10492D01*
X2478Y10492D01*
X2476Y10490D01*
X2473Y10487D01*
X2470Y10483D01*
X2466Y10478D01*
X2460Y10473D01*
X2453Y10467D01*
X2445Y10461D01*
X2437Y10456D01*
X2427Y10450D01*
X2416Y10445D01*
X2405Y10440D01*
X2393Y10436D01*
X2379Y10433D01*
X2365Y10431D01*
X2350Y10430D01*
X2347D01*
X2342Y10431D01*
X2336Y10431D01*
X2329Y10432D01*
X2321Y10434D01*
X2312Y10435D01*
X2302Y10438D01*
X2292Y10441D01*
X2282Y10446D01*
X2271Y10451D01*
X2260Y10457D01*
X2249Y10463D01*
X2239Y10472D01*
X2229Y10481D01*
X2221Y10492D01*
X2220Y10493D01*
X2219Y10495D01*
X2217Y10498D01*
X2214Y10503D01*
X2210Y10510D01*
X2206Y10518D01*
X2202Y10527D01*
X2198Y10537D01*
X2194Y10549D01*
X2190Y10563D01*
X2186Y10577D01*
X2182Y10593D01*
X2180Y10610D01*
X2177Y10629D01*
X2176Y10648D01*
X2175Y10670D01*
Y10670D01*
Y10671D01*
Y10672D01*
Y10674D01*
Y10677D01*
X2176Y10680D01*
Y10688D01*
X2177Y10698D01*
X2178Y10709D01*
X2179Y10721D01*
X2181Y10734D01*
X2183Y10749D01*
X2186Y10763D01*
X2190Y10778D01*
X2194Y10793D01*
X2199Y10807D01*
X2206Y10821D01*
X2213Y10834D01*
X2221Y10846D01*
X2221Y10847D01*
X2223Y10849D01*
X2226Y10852D01*
X2229Y10856D01*
X2234Y10860D01*
X2239Y10866D01*
X2246Y10871D01*
X2254Y10877D01*
X2262Y10883D01*
X2272Y10888D01*
X2283Y10894D01*
X2294Y10898D01*
X2307Y10902D01*
X2320Y10906D01*
X2335Y10908D01*
X2350Y10908D01*
X2354D01*
X2358Y10908D01*
D02*
G37*
G36*
X9093Y4092D02*
X4057D01*
Y5120D01*
X9093D01*
Y4092D01*
D02*
G37*
%LPC*%
G36*
X3292Y10829D02*
X3290D01*
X3288Y10829D01*
X3285D01*
X3282Y10828D01*
X3277Y10827D01*
X3273Y10826D01*
X3268Y10824D01*
X3263Y10822D01*
X3258Y10819D01*
X3252Y10816D01*
X3247Y10812D01*
X3241Y10807D01*
X3236Y10801D01*
X3231Y10795D01*
X3227Y10787D01*
Y10787D01*
X3226Y10785D01*
X3225Y10783D01*
X3223Y10779D01*
X3221Y10775D01*
X3219Y10770D01*
X3217Y10764D01*
X3215Y10757D01*
X3213Y10749D01*
X3211Y10740D01*
X3209Y10731D01*
X3207Y10720D01*
X3206Y10708D01*
X3205Y10697D01*
X3204Y10683D01*
X3204Y10670D01*
Y10669D01*
Y10666D01*
Y10662D01*
X3204Y10657D01*
Y10650D01*
X3205Y10643D01*
X3206Y10635D01*
X3207Y10626D01*
X3208Y10617D01*
X3210Y10607D01*
X3213Y10587D01*
X3219Y10568D01*
X3223Y10559D01*
X3227Y10551D01*
X3228Y10550D01*
X3228Y10549D01*
X3230Y10547D01*
X3232Y10545D01*
X3234Y10541D01*
X3237Y10538D01*
X3241Y10534D01*
X3244Y10530D01*
X3253Y10522D01*
X3259Y10518D01*
X3265Y10515D01*
X3271Y10513D01*
X3277Y10511D01*
X3285Y10509D01*
X3292Y10509D01*
X3294D01*
X3296Y10509D01*
X3299D01*
X3302Y10510D01*
X3306Y10511D01*
X3311Y10512D01*
X3316Y10514D01*
X3321Y10516D01*
X3326Y10519D01*
X3332Y10522D01*
X3337Y10526D01*
X3342Y10531D01*
X3347Y10537D01*
X3352Y10544D01*
X3357Y10551D01*
X3357Y10551D01*
X3358Y10553D01*
X3359Y10555D01*
X3360Y10559D01*
X3362Y10563D01*
X3364Y10568D01*
X3366Y10575D01*
X3368Y10581D01*
X3370Y10590D01*
X3372Y10599D01*
X3374Y10608D01*
X3376Y10619D01*
X3378Y10630D01*
X3379Y10642D01*
X3380Y10656D01*
Y10670D01*
Y10671D01*
Y10673D01*
Y10677D01*
X3379Y10682D01*
Y10688D01*
X3379Y10696D01*
X3378Y10704D01*
X3377Y10713D01*
X3374Y10732D01*
X3370Y10751D01*
X3364Y10770D01*
X3361Y10779D01*
X3357Y10787D01*
X3356Y10788D01*
X3356Y10789D01*
X3354Y10791D01*
X3352Y10794D01*
X3350Y10797D01*
X3347Y10800D01*
X3344Y10804D01*
X3340Y10808D01*
X3331Y10816D01*
X3326Y10820D01*
X3320Y10823D01*
X3313Y10826D01*
X3307Y10827D01*
X3300Y10829D01*
X3292Y10829D01*
D02*
G37*
G36*
X2350D02*
X2348D01*
X2346Y10829D01*
X2343D01*
X2340Y10828D01*
X2335Y10827D01*
X2331Y10826D01*
X2326Y10824D01*
X2321Y10822D01*
X2316Y10819D01*
X2310Y10816D01*
X2305Y10812D01*
X2299Y10807D01*
X2294Y10801D01*
X2289Y10795D01*
X2285Y10787D01*
Y10787D01*
X2284Y10785D01*
X2283Y10783D01*
X2281Y10779D01*
X2279Y10775D01*
X2277Y10770D01*
X2275Y10764D01*
X2273Y10757D01*
X2271Y10749D01*
X2269Y10740D01*
X2267Y10731D01*
X2265Y10720D01*
X2263Y10708D01*
X2262Y10697D01*
X2262Y10683D01*
X2261Y10670D01*
Y10669D01*
Y10666D01*
Y10662D01*
X2262Y10657D01*
Y10650D01*
X2263Y10643D01*
X2263Y10635D01*
X2264Y10626D01*
X2266Y10617D01*
X2267Y10607D01*
X2271Y10587D01*
X2277Y10568D01*
X2281Y10559D01*
X2285Y10551D01*
X2286Y10550D01*
X2286Y10549D01*
X2287Y10547D01*
X2289Y10545D01*
X2292Y10541D01*
X2295Y10538D01*
X2298Y10534D01*
X2302Y10530D01*
X2311Y10522D01*
X2317Y10518D01*
X2322Y10515D01*
X2329Y10513D01*
X2335Y10511D01*
X2343Y10509D01*
X2350Y10509D01*
X2352D01*
X2354Y10509D01*
X2357D01*
X2360Y10510D01*
X2364Y10511D01*
X2369Y10512D01*
X2374Y10514D01*
X2379Y10516D01*
X2384Y10519D01*
X2389Y10522D01*
X2395Y10526D01*
X2400Y10531D01*
X2405Y10537D01*
X2410Y10544D01*
X2414Y10551D01*
X2415Y10551D01*
X2415Y10553D01*
X2416Y10555D01*
X2418Y10559D01*
X2420Y10563D01*
X2422Y10568D01*
X2424Y10575D01*
X2426Y10581D01*
X2428Y10590D01*
X2430Y10599D01*
X2432Y10608D01*
X2434Y10619D01*
X2436Y10630D01*
X2437Y10642D01*
X2438Y10656D01*
Y10670D01*
Y10671D01*
Y10673D01*
Y10677D01*
X2437Y10682D01*
Y10688D01*
X2437Y10696D01*
X2436Y10704D01*
X2435Y10713D01*
X2432Y10732D01*
X2428Y10751D01*
X2422Y10770D01*
X2418Y10779D01*
X2414Y10787D01*
X2414Y10788D01*
X2413Y10789D01*
X2412Y10791D01*
X2410Y10794D01*
X2408Y10797D01*
X2405Y10800D01*
X2402Y10804D01*
X2398Y10808D01*
X2388Y10816D01*
X2383Y10820D01*
X2378Y10823D01*
X2371Y10826D01*
X2365Y10827D01*
X2357Y10829D01*
X2350Y10829D01*
D02*
G37*
G36*
X4658Y4916D02*
X4395D01*
X4651D01*
X4636Y4916D01*
X4623Y4915D01*
X4610Y4913D01*
X4597Y4911D01*
X4586Y4909D01*
X4574Y4906D01*
X4564Y4903D01*
X4555Y4901D01*
X4546Y4898D01*
X4538Y4895D01*
X4532Y4893D01*
X4527Y4890D01*
X4522Y4888D01*
X4519Y4887D01*
X4517Y4886D01*
X4516Y4885D01*
X4506Y4879D01*
X4496Y4872D01*
X4487Y4866D01*
X4478Y4859D01*
X4470Y4851D01*
X4463Y4844D01*
X4456Y4837D01*
X4450Y4830D01*
X4444Y4823D01*
X4440Y4817D01*
X4436Y4812D01*
X4433Y4807D01*
X4430Y4803D01*
X4428Y4800D01*
X4427Y4798D01*
X4427Y4798D01*
X4421Y4787D01*
X4416Y4776D01*
X4412Y4765D01*
X4409Y4754D01*
X4406Y4743D01*
X4403Y4732D01*
X4401Y4722D01*
X4399Y4712D01*
X4398Y4703D01*
X4397Y4695D01*
X4396Y4687D01*
X4396Y4681D01*
X4395Y4676D01*
Y4422D01*
Y4669D01*
X4396Y4655D01*
X4397Y4642D01*
X4398Y4629D01*
X4400Y4617D01*
X4403Y4605D01*
X4406Y4594D01*
X4409Y4585D01*
X4411Y4575D01*
X4414Y4567D01*
X4417Y4560D01*
X4420Y4553D01*
X4423Y4548D01*
X4425Y4544D01*
X4426Y4540D01*
X4427Y4538D01*
X4428Y4538D01*
X4434Y4528D01*
X4441Y4518D01*
X4448Y4509D01*
X4455Y4501D01*
X4463Y4493D01*
X4470Y4486D01*
X4477Y4480D01*
X4484Y4474D01*
X4491Y4469D01*
X4497Y4465D01*
X4502Y4461D01*
X4507Y4457D01*
X4511Y4455D01*
X4514Y4453D01*
X4516Y4452D01*
X4517Y4452D01*
X4528Y4446D01*
X4539Y4442D01*
X4550Y4438D01*
X4561Y4435D01*
X4572Y4432D01*
X4583Y4429D01*
X4594Y4427D01*
X4603Y4426D01*
X4612Y4424D01*
X4621Y4423D01*
X4628Y4423D01*
X4634Y4422D01*
X4640Y4422D01*
X4395D01*
X4647D01*
X4661Y4422D01*
X4674Y4423D01*
X4687Y4425D01*
X4700Y4427D01*
X4711Y4430D01*
X4722Y4433D01*
X4732Y4436D01*
X4741Y4439D01*
X4748Y4441D01*
X4756Y4445D01*
X4762Y4447D01*
X4767Y4450D01*
X4771Y4452D01*
X4774Y4454D01*
X4776Y4455D01*
X4777Y4455D01*
X4786Y4462D01*
X4795Y4469D01*
X4804Y4476D01*
X4811Y4484D01*
X4818Y4491D01*
X4825Y4499D01*
X4831Y4506D01*
X4837Y4513D01*
X4841Y4520D01*
X4845Y4526D01*
X4848Y4532D01*
X4851Y4536D01*
X4853Y4540D01*
X4855Y4543D01*
X4856Y4545D01*
X4856Y4546D01*
X4861Y4557D01*
X4865Y4567D01*
X4869Y4579D01*
X4872Y4590D01*
X4876Y4611D01*
X4878Y4621D01*
X4879Y4631D01*
X4881Y4640D01*
X4881Y4648D01*
X4882Y4655D01*
X4882Y4661D01*
X4883Y4666D01*
Y4445D01*
Y4685D01*
X4882Y4689D01*
Y4693D01*
Y4696D01*
X4882Y4698D01*
Y4700D01*
Y4700D01*
X4654D01*
Y4620D01*
X4790D01*
X4788Y4610D01*
X4785Y4600D01*
X4782Y4591D01*
X4779Y4583D01*
X4776Y4576D01*
X4773Y4571D01*
X4772Y4569D01*
X4771Y4568D01*
X4771Y4567D01*
Y4567D01*
X4764Y4558D01*
X4756Y4550D01*
X4748Y4543D01*
X4741Y4537D01*
X4734Y4532D01*
X4729Y4529D01*
X4727Y4527D01*
X4725Y4527D01*
X4724Y4526D01*
X4724D01*
X4712Y4520D01*
X4700Y4517D01*
X4687Y4514D01*
X4676Y4512D01*
X4671Y4511D01*
X4666Y4511D01*
X4661Y4510D01*
X4658D01*
X4655Y4510D01*
X4651D01*
X4633Y4511D01*
X4617Y4513D01*
X4610Y4515D01*
X4603Y4516D01*
X4596Y4518D01*
X4590Y4520D01*
X4585Y4522D01*
X4580Y4524D01*
X4576Y4526D01*
X4572Y4527D01*
X4570Y4528D01*
X4567Y4529D01*
X4566Y4530D01*
X4566D01*
X4553Y4538D01*
X4542Y4548D01*
X4533Y4557D01*
X4525Y4566D01*
X4519Y4574D01*
X4516Y4578D01*
X4514Y4581D01*
X4512Y4583D01*
X4511Y4585D01*
X4510Y4586D01*
Y4587D01*
X4504Y4600D01*
X4499Y4615D01*
X4496Y4628D01*
X4493Y4641D01*
X4492Y4647D01*
X4492Y4652D01*
X4491Y4657D01*
Y4661D01*
X4491Y4664D01*
Y4667D01*
Y4668D01*
Y4669D01*
X4492Y4686D01*
X4494Y4701D01*
X4497Y4715D01*
X4498Y4721D01*
X4500Y4727D01*
X4502Y4732D01*
X4503Y4737D01*
X4505Y4741D01*
X4506Y4744D01*
X4508Y4747D01*
X4508Y4749D01*
X4509Y4750D01*
Y4750D01*
X4517Y4763D01*
X4526Y4775D01*
X4535Y4784D01*
X4544Y4792D01*
X4552Y4799D01*
X4555Y4801D01*
X4558Y4803D01*
X4561Y4805D01*
X4563Y4806D01*
X4564Y4807D01*
X4564D01*
X4578Y4814D01*
X4592Y4819D01*
X4606Y4823D01*
X4619Y4825D01*
X4625Y4826D01*
X4630Y4827D01*
X4635Y4827D01*
X4639D01*
X4643Y4828D01*
X4647D01*
X4660Y4827D01*
X4674Y4826D01*
X4686Y4823D01*
X4698Y4820D01*
X4710Y4816D01*
X4720Y4812D01*
X4730Y4808D01*
X4740Y4804D01*
X4748Y4799D01*
X4755Y4795D01*
X4762Y4791D01*
X4767Y4787D01*
X4772Y4784D01*
X4775Y4781D01*
X4777Y4780D01*
X4778Y4779D01*
X4835Y4853D01*
X4820Y4865D01*
X4805Y4874D01*
X4789Y4882D01*
X4774Y4890D01*
X4758Y4896D01*
X4743Y4901D01*
X4728Y4905D01*
X4714Y4908D01*
X4701Y4911D01*
X4688Y4913D01*
X4678Y4914D01*
X4668Y4915D01*
X4661Y4916D01*
X4658Y4916D01*
D02*
G37*
G36*
X7136Y4745D02*
X7100D01*
D01*
X7136D01*
D02*
G37*
G36*
X8373Y4755D02*
X8069D01*
X8254D01*
X8242Y4754D01*
X8231Y4752D01*
X8221Y4750D01*
X8212Y4748D01*
X8204Y4745D01*
X8201Y4744D01*
X8199Y4743D01*
X8197Y4742D01*
X8195Y4741D01*
X8195Y4740D01*
X8194D01*
X8185Y4734D01*
X8177Y4727D01*
X8170Y4720D01*
X8163Y4713D01*
X8159Y4707D01*
X8155Y4702D01*
X8154Y4700D01*
X8153Y4699D01*
X8152Y4698D01*
Y4697D01*
X8151D01*
Y4745D01*
X8069D01*
Y4432D01*
X8373D01*
Y4625D01*
D01*
X8372Y4637D01*
X8371Y4648D01*
X8370Y4659D01*
X8368Y4668D01*
X8365Y4677D01*
X8362Y4685D01*
X8360Y4692D01*
X8357Y4699D01*
X8353Y4705D01*
X8351Y4710D01*
X8348Y4714D01*
X8346Y4717D01*
X8344Y4719D01*
X8342Y4721D01*
X8341Y4722D01*
X8341Y4723D01*
X8334Y4728D01*
X8328Y4733D01*
X8321Y4738D01*
X8314Y4742D01*
X8307Y4745D01*
X8299Y4747D01*
X8285Y4751D01*
X8279Y4752D01*
X8273Y4753D01*
X8268Y4754D01*
X8263Y4754D01*
X8260Y4755D01*
X8373D01*
D02*
G37*
G36*
X5814Y4755D02*
X5627D01*
X5704D01*
X5692Y4754D01*
X5681Y4752D01*
X5671Y4750D01*
X5662Y4747D01*
X5654Y4744D01*
X5651Y4743D01*
X5649Y4741D01*
X5647Y4740D01*
X5645Y4739D01*
X5644Y4739D01*
X5644D01*
X5635Y4732D01*
X5626Y4725D01*
X5619Y4717D01*
X5613Y4710D01*
X5609Y4703D01*
X5605Y4697D01*
X5604Y4695D01*
X5603Y4694D01*
X5602Y4693D01*
Y4692D01*
X5601D01*
X5595Y4703D01*
X5589Y4713D01*
X5583Y4721D01*
X5577Y4728D01*
X5572Y4733D01*
X5567Y4736D01*
X5564Y4739D01*
X5564Y4739D01*
X5563D01*
X5554Y4745D01*
X5544Y4748D01*
X5534Y4751D01*
X5524Y4753D01*
X5517Y4754D01*
X5513Y4754D01*
X5510Y4755D01*
X5504D01*
X5492Y4754D01*
X5482Y4752D01*
X5472Y4750D01*
X5463Y4748D01*
X5456Y4745D01*
X5451Y4743D01*
X5449Y4742D01*
X5448Y4741D01*
X5447Y4740D01*
X5447D01*
X5438Y4734D01*
X5430Y4727D01*
X5424Y4720D01*
X5418Y4714D01*
X5414Y4707D01*
X5411Y4702D01*
X5410Y4700D01*
X5409Y4699D01*
X5409Y4698D01*
Y4697D01*
X5407D01*
Y4745D01*
X5325D01*
Y4432D01*
X5610D01*
Y4591D01*
Y4599D01*
X5610Y4607D01*
X5611Y4614D01*
X5612Y4621D01*
X5614Y4626D01*
X5615Y4632D01*
X5617Y4637D01*
X5618Y4641D01*
X5620Y4645D01*
X5621Y4648D01*
X5623Y4651D01*
X5624Y4653D01*
X5625Y4655D01*
X5626Y4656D01*
X5627Y4657D01*
X5634Y4664D01*
X5641Y4669D01*
X5649Y4673D01*
X5656Y4675D01*
X5663Y4677D01*
X5668Y4677D01*
X5670Y4678D01*
X5673D01*
X5683Y4677D01*
X5692Y4675D01*
X5699Y4672D01*
X5705Y4669D01*
X5710Y4666D01*
X5713Y4663D01*
X5715Y4661D01*
X5716Y4660D01*
X5721Y4654D01*
X5724Y4646D01*
X5727Y4638D01*
X5728Y4630D01*
X5730Y4624D01*
X5730Y4618D01*
Y4616D01*
Y4614D01*
Y4613D01*
Y4613D01*
Y4432D01*
X5688D01*
X5814D01*
Y4630D01*
X5813Y4642D01*
X5812Y4652D01*
X5811Y4661D01*
X5809Y4671D01*
X5807Y4679D01*
X5804Y4686D01*
X5801Y4693D01*
X5798Y4700D01*
X5795Y4705D01*
X5793Y4710D01*
X5790Y4714D01*
X5788Y4717D01*
X5786Y4719D01*
X5785Y4721D01*
X5784Y4722D01*
X5783Y4723D01*
X5777Y4728D01*
X5771Y4733D01*
X5764Y4738D01*
X5758Y4742D01*
X5751Y4745D01*
X5745Y4747D01*
X5732Y4751D01*
X5727Y4752D01*
X5721Y4753D01*
X5717Y4754D01*
X5712Y4754D01*
X5709Y4755D01*
X5814D01*
D02*
G37*
G36*
X6594Y4906D02*
D01*
Y4628D01*
Y4906D01*
D02*
G37*
G36*
X6813Y4755D02*
X6799D01*
X6790Y4754D01*
X6774Y4751D01*
X6758Y4748D01*
X6751Y4746D01*
X6745Y4744D01*
X6739Y4742D01*
X6734Y4740D01*
X6730Y4738D01*
X6726Y4737D01*
X6723Y4735D01*
X6721Y4734D01*
X6719Y4734D01*
X6719Y4733D01*
X6705Y4725D01*
X6692Y4715D01*
X6682Y4705D01*
X6673Y4696D01*
X6666Y4687D01*
X6663Y4684D01*
X6660Y4681D01*
X6659Y4678D01*
X6657Y4676D01*
X6657Y4675D01*
X6656Y4674D01*
X6653Y4667D01*
X6649Y4659D01*
X6644Y4645D01*
X6640Y4630D01*
X6637Y4617D01*
X6636Y4611D01*
X6635Y4605D01*
X6635Y4600D01*
Y4596D01*
X6634Y4593D01*
Y4594D01*
Y4588D01*
X6635Y4579D01*
X6635Y4570D01*
X6638Y4554D01*
X6641Y4540D01*
X6643Y4533D01*
X6646Y4527D01*
X6648Y4522D01*
X6650Y4517D01*
X6652Y4512D01*
X6653Y4509D01*
X6655Y4506D01*
X6655Y4504D01*
X6656Y4502D01*
Y4502D01*
X6666Y4489D01*
X6676Y4477D01*
X6686Y4467D01*
X6696Y4458D01*
X6705Y4452D01*
X6709Y4449D01*
X6713Y4447D01*
X6715Y4445D01*
X6717Y4444D01*
X6718Y4443D01*
X6719Y4443D01*
X6726Y4439D01*
X6734Y4436D01*
X6749Y4431D01*
X6765Y4427D01*
X6778Y4424D01*
X6785Y4424D01*
X6790Y4423D01*
X6795Y4422D01*
X6800D01*
X6803Y4422D01*
X6634D01*
X6982Y4422D01*
Y4597D01*
X6981Y4606D01*
X6978Y4622D01*
X6974Y4636D01*
X6972Y4643D01*
X6970Y4649D01*
X6968Y4655D01*
X6966Y4660D01*
X6964Y4664D01*
X6963Y4667D01*
X6961Y4670D01*
X6960Y4673D01*
X6960Y4674D01*
X6959Y4674D01*
X6950Y4687D01*
X6940Y4699D01*
X6930Y4710D01*
X6920Y4718D01*
X6911Y4724D01*
X6907Y4727D01*
X6903Y4729D01*
X6901Y4731D01*
X6899Y4732D01*
X6898Y4733D01*
X6897D01*
X6890Y4737D01*
X6882Y4741D01*
X6867Y4746D01*
X6852Y4749D01*
X6838Y4752D01*
X6832Y4753D01*
X6826Y4754D01*
X6821Y4754D01*
X6816D01*
X6813Y4755D01*
D02*
G37*
G36*
X6030D02*
X5864D01*
X6018D01*
X6009Y4754D01*
X5993Y4751D01*
X5985Y4750D01*
X5978Y4748D01*
X5972Y4747D01*
X5966Y4745D01*
X5960Y4743D01*
X5955Y4741D01*
X5951Y4739D01*
X5947Y4737D01*
X5945Y4736D01*
X5943Y4735D01*
X5942Y4734D01*
X5941Y4734D01*
X5928Y4725D01*
X5917Y4716D01*
X5907Y4706D01*
X5899Y4696D01*
X5892Y4688D01*
X5890Y4684D01*
X5888Y4681D01*
X5886Y4679D01*
X5885Y4676D01*
X5885Y4675D01*
X5884Y4675D01*
X5877Y4660D01*
X5872Y4645D01*
X5869Y4630D01*
X5866Y4617D01*
X5865Y4611D01*
X5865Y4605D01*
X5864Y4600D01*
Y4596D01*
X5864Y4593D01*
Y4596D01*
Y4588D01*
X5864Y4578D01*
X5865Y4569D01*
X5867Y4553D01*
X5869Y4545D01*
X5871Y4538D01*
X5873Y4532D01*
X5875Y4525D01*
X5877Y4520D01*
X5878Y4515D01*
X5880Y4510D01*
X5882Y4507D01*
X5883Y4504D01*
X5884Y4502D01*
X5885Y4501D01*
Y4500D01*
X5894Y4487D01*
X5903Y4475D01*
X5913Y4465D01*
X5922Y4457D01*
X5931Y4450D01*
X5935Y4448D01*
X5938Y4446D01*
X5941Y4444D01*
X5943Y4443D01*
X5944Y4442D01*
X5944Y4442D01*
X5959Y4435D01*
X5974Y4430D01*
X5989Y4427D01*
X6003Y4424D01*
X6009Y4423D01*
X6015Y4423D01*
X6020Y4422D01*
X6025D01*
X6028Y4422D01*
X6179D01*
X6033D01*
X6049Y4422D01*
X6064Y4424D01*
X6076Y4427D01*
X6082Y4428D01*
X6088Y4430D01*
X6093Y4431D01*
X6097Y4433D01*
X6101Y4434D01*
X6103Y4435D01*
X6106Y4436D01*
X6108Y4437D01*
X6109Y4438D01*
X6109D01*
X6121Y4444D01*
X6133Y4450D01*
X6143Y4457D01*
X6152Y4464D01*
X6159Y4469D01*
X6162Y4471D01*
X6164Y4473D01*
X6166Y4475D01*
X6168Y4476D01*
X6168Y4477D01*
X6169Y4477D01*
X6127Y4538D01*
X6119Y4531D01*
X6110Y4524D01*
X6102Y4518D01*
X6094Y4513D01*
X6086Y4509D01*
X6078Y4505D01*
X6071Y4503D01*
X6064Y4501D01*
X6057Y4499D01*
X6051Y4498D01*
X6046Y4497D01*
X6041Y4496D01*
X6038D01*
X6036Y4495D01*
X6033D01*
X6020Y4496D01*
X6008Y4498D01*
X5998Y4502D01*
X5989Y4505D01*
X5981Y4508D01*
X5979Y4510D01*
X5977Y4512D01*
X5975Y4513D01*
X5973Y4514D01*
X5973Y4515D01*
X5972D01*
X5964Y4523D01*
X5958Y4532D01*
X5953Y4541D01*
X5949Y4551D01*
X5947Y4559D01*
X5946Y4563D01*
X5946Y4565D01*
X5945Y4568D01*
X5945Y4570D01*
Y4571D01*
Y4571D01*
X6179D01*
Y4588D01*
X6178Y4602D01*
X6177Y4616D01*
X6175Y4628D01*
X6172Y4641D01*
X6169Y4652D01*
X6166Y4662D01*
X6163Y4671D01*
X6159Y4679D01*
X6155Y4686D01*
X6151Y4693D01*
X6148Y4698D01*
X6145Y4703D01*
X6142Y4707D01*
X6140Y4709D01*
X6139Y4711D01*
X6138Y4711D01*
X6131Y4719D01*
X6122Y4725D01*
X6113Y4731D01*
X6104Y4736D01*
X6095Y4741D01*
X6086Y4744D01*
X6076Y4747D01*
X6068Y4749D01*
X6059Y4751D01*
X6051Y4752D01*
X6044Y4753D01*
X6039Y4754D01*
X6034D01*
X6030Y4755D01*
D02*
G37*
G36*
X8527Y4906D02*
X8444D01*
Y4432D01*
X8753D01*
D01*
X8608Y4602D01*
X8736Y4745D01*
X8630D01*
X8527Y4615D01*
Y4906D01*
D02*
G37*
G36*
X7999Y4902D02*
X7904D01*
Y4810D01*
X7999D01*
Y4432D01*
X7993D01*
Y4745D01*
X7910D01*
Y4432D01*
X7904D01*
D01*
X7999D01*
Y4902D01*
D02*
G37*
G36*
X7870Y4906D02*
X7585D01*
Y4432D01*
X7870D01*
Y4514D01*
Y4513D01*
X7671D01*
Y4906D01*
X7870D01*
D02*
G37*
G36*
X6435Y4906D02*
X6240D01*
Y4432D01*
X6594D01*
D01*
X6441D01*
X6453Y4432D01*
X6465Y4433D01*
X6476Y4435D01*
X6486Y4437D01*
X6496Y4440D01*
X6505Y4442D01*
X6513Y4445D01*
X6521Y4449D01*
X6528Y4452D01*
X6533Y4455D01*
X6539Y4458D01*
X6543Y4460D01*
X6546Y4463D01*
X6549Y4464D01*
X6550Y4465D01*
X6551Y4466D01*
X6559Y4472D01*
X6565Y4480D01*
X6571Y4488D01*
X6576Y4496D01*
X6580Y4504D01*
X6584Y4512D01*
X6586Y4521D01*
X6589Y4529D01*
X6591Y4536D01*
X6592Y4543D01*
X6593Y4550D01*
X6593Y4555D01*
Y4560D01*
X6594Y4563D01*
Y4568D01*
Y4566D01*
X6593Y4575D01*
X6593Y4584D01*
X6592Y4593D01*
X6590Y4600D01*
X6588Y4607D01*
X6586Y4614D01*
X6583Y4620D01*
X6581Y4625D01*
X6579Y4630D01*
X6576Y4635D01*
X6574Y4638D01*
X6572Y4641D01*
X6570Y4644D01*
X6569Y4645D01*
X6568Y4646D01*
X6568Y4647D01*
X6563Y4652D01*
X6558Y4656D01*
X6546Y4665D01*
X6534Y4671D01*
X6523Y4676D01*
X6513Y4679D01*
X6509Y4681D01*
X6505Y4682D01*
X6502Y4682D01*
X6500Y4683D01*
X6499Y4683D01*
X6498D01*
Y4685D01*
X6510Y4689D01*
X6521Y4695D01*
X6531Y4701D01*
X6538Y4707D01*
X6544Y4713D01*
X6548Y4717D01*
X6550Y4719D01*
X6551Y4721D01*
X6552Y4721D01*
Y4722D01*
X6558Y4732D01*
X6562Y4743D01*
X6566Y4754D01*
X6568Y4764D01*
X6569Y4774D01*
X6570Y4777D01*
Y4780D01*
X6570Y4783D01*
Y4785D01*
Y4786D01*
Y4787D01*
X6570Y4797D01*
X6569Y4807D01*
X6567Y4816D01*
X6564Y4825D01*
X6562Y4833D01*
X6558Y4840D01*
X6555Y4847D01*
X6551Y4853D01*
X6547Y4858D01*
X6544Y4863D01*
X6540Y4867D01*
X6537Y4870D01*
X6535Y4872D01*
X6533Y4874D01*
X6532Y4875D01*
X6532Y4875D01*
X6524Y4881D01*
X6516Y4886D01*
X6507Y4890D01*
X6499Y4893D01*
X6490Y4897D01*
X6482Y4899D01*
X6465Y4902D01*
X6458Y4904D01*
X6451Y4905D01*
X6444Y4905D01*
X6439Y4906D01*
X6435Y4906D01*
D02*
G37*
G36*
X5071Y4755D02*
X5064D01*
X5049Y4754D01*
X5035Y4752D01*
X5022Y4748D01*
X5011Y4745D01*
X5006Y4743D01*
X5002Y4742D01*
X4998Y4740D01*
X4994Y4738D01*
X4992Y4737D01*
X4990Y4736D01*
X4989Y4735D01*
X4989D01*
X4976Y4727D01*
X4965Y4718D01*
X4956Y4708D01*
X4948Y4699D01*
X4942Y4691D01*
X4940Y4687D01*
X4938Y4684D01*
X4936Y4681D01*
X4935Y4679D01*
X4934Y4678D01*
X4934Y4678D01*
X4927Y4663D01*
X4922Y4648D01*
X4919Y4633D01*
X4916Y4619D01*
X4915Y4613D01*
X4915Y4607D01*
X4914Y4601D01*
Y4597D01*
X4914Y4593D01*
Y4588D01*
X4915Y4569D01*
X4917Y4552D01*
X4919Y4544D01*
X4920Y4537D01*
X4922Y4530D01*
X4924Y4524D01*
X4926Y4518D01*
X4928Y4513D01*
X4930Y4508D01*
X4931Y4505D01*
X4932Y4502D01*
X4933Y4500D01*
X4934Y4499D01*
Y4498D01*
X4942Y4485D01*
X4951Y4473D01*
X4960Y4464D01*
X4969Y4456D01*
X4977Y4449D01*
X4980Y4447D01*
X4983Y4444D01*
X4985Y4443D01*
X4987Y4442D01*
X4988Y4441D01*
X4989D01*
X5002Y4435D01*
X5015Y4430D01*
X5028Y4427D01*
X5039Y4424D01*
X5045Y4423D01*
X5050Y4423D01*
X5054Y4422D01*
X5057D01*
X5060Y4422D01*
X4914D01*
X5253D01*
Y4745D01*
D01*
X5171D01*
Y4701D01*
X5169D01*
X5163Y4710D01*
X5156Y4718D01*
X5149Y4725D01*
X5143Y4730D01*
X5136Y4735D01*
X5132Y4738D01*
X5130Y4739D01*
X5128Y4740D01*
X5128Y4741D01*
X5127D01*
X5117Y4746D01*
X5107Y4749D01*
X5096Y4751D01*
X5086Y4753D01*
X5078Y4754D01*
X5074D01*
X5071Y4755D01*
D02*
G37*
G36*
X7349Y4745D02*
D01*
Y4296D01*
X7148D01*
X7349Y4745D01*
X7261D01*
X7179Y4554D01*
X7100Y4745D01*
X7002D01*
X7138Y4461D01*
X7061Y4296D01*
X7002D01*
X7349D01*
Y4745D01*
D02*
G37*
%LPD*%
G36*
X8236Y4677D02*
X8246Y4675D01*
X8254Y4671D01*
X8262Y4666D01*
X8268Y4661D01*
X8273Y4655D01*
X8278Y4648D01*
X8281Y4642D01*
X8284Y4635D01*
X8285Y4628D01*
X8287Y4622D01*
X8288Y4617D01*
X8288Y4612D01*
X8289Y4608D01*
Y4606D01*
Y4605D01*
Y4432D01*
X8151D01*
Y4585D01*
Y4594D01*
X8152Y4601D01*
X8153Y4609D01*
X8154Y4616D01*
X8156Y4623D01*
X8158Y4628D01*
X8159Y4633D01*
X8161Y4638D01*
X8163Y4642D01*
X8164Y4646D01*
X8166Y4649D01*
X8168Y4651D01*
X8169Y4653D01*
X8170Y4654D01*
X8171Y4655D01*
X8175Y4659D01*
X8179Y4662D01*
X8188Y4668D01*
X8196Y4672D01*
X8205Y4675D01*
X8213Y4677D01*
X8216Y4677D01*
X8219D01*
X8221Y4678D01*
X8224D01*
X8236Y4677D01*
D02*
G37*
G36*
X5482Y4677D02*
X5490Y4675D01*
X5497Y4672D01*
X5503Y4669D01*
X5508Y4666D01*
X5511Y4663D01*
X5513Y4661D01*
X5514Y4660D01*
X5518Y4654D01*
X5522Y4646D01*
X5524Y4638D01*
X5526Y4630D01*
X5527Y4624D01*
X5528Y4618D01*
Y4616D01*
Y4614D01*
Y4613D01*
Y4613D01*
Y4432D01*
X5408D01*
Y4590D01*
Y4598D01*
X5409Y4606D01*
X5409Y4613D01*
X5411Y4620D01*
X5412Y4626D01*
X5413Y4631D01*
X5415Y4636D01*
X5417Y4640D01*
X5418Y4644D01*
X5420Y4648D01*
X5421Y4650D01*
X5423Y4653D01*
X5424Y4655D01*
X5425Y4656D01*
X5425Y4656D01*
X5428Y4660D01*
X5432Y4663D01*
X5440Y4669D01*
X5448Y4673D01*
X5455Y4675D01*
X5461Y4677D01*
X5467Y4677D01*
X5469Y4678D01*
X5472D01*
X5482Y4677D01*
D02*
G37*
G36*
X6815Y4676D02*
X6822Y4675D01*
X6834Y4672D01*
X6845Y4669D01*
X6854Y4664D01*
X6861Y4660D01*
X6864Y4657D01*
X6867Y4656D01*
X6869Y4655D01*
X6870Y4653D01*
X6870Y4653D01*
X6871Y4652D01*
X6875Y4647D01*
X6879Y4642D01*
X6882Y4637D01*
X6885Y4632D01*
X6890Y4621D01*
X6893Y4611D01*
X6894Y4602D01*
X6895Y4598D01*
Y4594D01*
X6896Y4592D01*
Y4590D01*
Y4589D01*
Y4588D01*
X6895Y4581D01*
X6895Y4574D01*
X6892Y4562D01*
X6888Y4550D01*
X6883Y4541D01*
X6879Y4534D01*
X6877Y4531D01*
X6875Y4529D01*
X6873Y4527D01*
X6872Y4525D01*
X6871Y4525D01*
X6871Y4524D01*
X6867Y4520D01*
X6861Y4516D01*
X6856Y4513D01*
X6851Y4510D01*
X6840Y4506D01*
X6831Y4503D01*
X6822Y4502D01*
X6818Y4501D01*
X6814Y4501D01*
X6812Y4500D01*
X6808D01*
X6801Y4501D01*
X6794Y4501D01*
X6782Y4504D01*
X6771Y4508D01*
X6762Y4512D01*
X6754Y4517D01*
X6751Y4519D01*
X6749Y4520D01*
X6747Y4522D01*
X6746Y4523D01*
X6745Y4524D01*
X6745Y4524D01*
X6740Y4529D01*
X6737Y4534D01*
X6733Y4539D01*
X6730Y4544D01*
X6726Y4555D01*
X6723Y4565D01*
X6721Y4574D01*
X6721Y4578D01*
X6720Y4582D01*
X6720Y4584D01*
Y4586D01*
Y4588D01*
Y4588D01*
X6720Y4595D01*
X6721Y4602D01*
X6724Y4615D01*
X6728Y4626D01*
X6732Y4635D01*
X6737Y4642D01*
X6739Y4645D01*
X6741Y4648D01*
X6742Y4650D01*
X6744Y4651D01*
X6744Y4652D01*
X6745Y4652D01*
X6749Y4656D01*
X6754Y4660D01*
X6760Y4663D01*
X6765Y4666D01*
X6776Y4670D01*
X6786Y4673D01*
X6795Y4675D01*
X6798Y4676D01*
X6802D01*
X6804Y4676D01*
X6808D01*
X6815Y4676D01*
D02*
G37*
G36*
X6982Y4422D02*
X6808Y4422D01*
X6817Y4422D01*
X6826Y4423D01*
X6843Y4425D01*
X6851Y4427D01*
X6858Y4429D01*
X6865Y4431D01*
X6871Y4433D01*
X6877Y4435D01*
X6882Y4436D01*
X6886Y4438D01*
X6890Y4440D01*
X6893Y4441D01*
X6895Y4442D01*
X6897Y4443D01*
X6897D01*
X6911Y4452D01*
X6924Y4461D01*
X6934Y4471D01*
X6943Y4480D01*
X6950Y4489D01*
X6953Y4493D01*
X6955Y4496D01*
X6957Y4499D01*
X6958Y4501D01*
X6959Y4502D01*
Y4502D01*
X6963Y4509D01*
X6966Y4517D01*
X6972Y4532D01*
X6976Y4546D01*
X6979Y4559D01*
X6980Y4565D01*
X6981Y4571D01*
X6981Y4576D01*
Y4580D01*
X6982Y4583D01*
Y4422D01*
D02*
G37*
G36*
X6034Y4687D02*
X6044Y4686D01*
X6052Y4683D01*
X6060Y4680D01*
X6065Y4677D01*
X6070Y4674D01*
X6072Y4672D01*
X6073Y4671D01*
X6079Y4664D01*
X6085Y4657D01*
X6089Y4649D01*
X6091Y4642D01*
X6093Y4635D01*
X6094Y4630D01*
Y4628D01*
X6095Y4626D01*
Y4625D01*
Y4625D01*
X5947D01*
X5949Y4636D01*
X5953Y4646D01*
X5957Y4654D01*
X5961Y4660D01*
X5965Y4666D01*
X5968Y4669D01*
X5971Y4672D01*
X5972Y4672D01*
X5979Y4678D01*
X5988Y4682D01*
X5997Y4684D01*
X6005Y4686D01*
X6012Y4687D01*
X6018Y4688D01*
X6023D01*
X6034Y4687D01*
D02*
G37*
G36*
X8645Y4432D02*
X8527D01*
Y4581D01*
X8645Y4432D01*
D02*
G37*
G36*
X6425Y4826D02*
X6435Y4824D01*
X6442Y4822D01*
X6449Y4819D01*
X6455Y4816D01*
X6459Y4814D01*
X6461Y4812D01*
X6462Y4811D01*
X6468Y4806D01*
X6472Y4799D01*
X6475Y4792D01*
X6477Y4785D01*
X6478Y4779D01*
X6479Y4775D01*
X6479Y4773D01*
Y4771D01*
Y4771D01*
Y4770D01*
X6478Y4760D01*
X6476Y4751D01*
X6474Y4744D01*
X6471Y4738D01*
X6467Y4733D01*
X6465Y4730D01*
X6463Y4727D01*
X6462Y4727D01*
X6455Y4722D01*
X6446Y4718D01*
X6438Y4716D01*
X6430Y4714D01*
X6422Y4713D01*
X6419Y4713D01*
X6416D01*
X6414Y4712D01*
X6327D01*
Y4826D01*
X6414D01*
X6425Y4826D01*
D02*
G37*
G36*
X6436Y4637D02*
X6448Y4635D01*
X6458Y4632D01*
X6467Y4629D01*
X6473Y4626D01*
X6477Y4624D01*
X6480Y4622D01*
X6481Y4621D01*
X6488Y4614D01*
X6493Y4607D01*
X6497Y4599D01*
X6500Y4592D01*
X6501Y4585D01*
X6501Y4579D01*
X6502Y4577D01*
Y4576D01*
Y4575D01*
Y4574D01*
X6501Y4564D01*
X6499Y4555D01*
X6496Y4547D01*
X6492Y4540D01*
X6488Y4535D01*
X6485Y4531D01*
X6482Y4529D01*
X6481Y4528D01*
X6473Y4523D01*
X6464Y4518D01*
X6455Y4515D01*
X6446Y4513D01*
X6438Y4512D01*
X6435Y4512D01*
X6432D01*
X6429Y4511D01*
X6327D01*
Y4638D01*
X6422D01*
X6436Y4637D01*
D02*
G37*
G36*
X5092Y4676D02*
X5099Y4675D01*
X5111Y4672D01*
X5121Y4668D01*
X5130Y4664D01*
X5138Y4659D01*
X5141Y4657D01*
X5143Y4656D01*
X5145Y4654D01*
X5146Y4653D01*
X5147Y4652D01*
X5147Y4652D01*
X5151Y4647D01*
X5155Y4642D01*
X5161Y4631D01*
X5165Y4621D01*
X5168Y4611D01*
X5170Y4602D01*
X5170Y4598D01*
Y4594D01*
X5171Y4592D01*
Y4590D01*
Y4589D01*
Y4588D01*
X5170Y4581D01*
X5170Y4574D01*
X5167Y4562D01*
X5163Y4551D01*
X5159Y4541D01*
X5154Y4534D01*
X5152Y4531D01*
X5151Y4529D01*
X5149Y4527D01*
X5148Y4525D01*
X5148Y4525D01*
X5147Y4524D01*
X5143Y4520D01*
X5138Y4516D01*
X5133Y4513D01*
X5127Y4510D01*
X5117Y4506D01*
X5108Y4503D01*
X5099Y4502D01*
X5095Y4501D01*
X5092Y4501D01*
X5089Y4500D01*
X5086D01*
X5079Y4501D01*
X5072Y4501D01*
X5060Y4504D01*
X5050Y4508D01*
X5041Y4512D01*
X5033Y4517D01*
X5031Y4519D01*
X5028Y4520D01*
X5026Y4522D01*
X5025Y4523D01*
X5025Y4524D01*
X5024Y4524D01*
X5020Y4529D01*
X5017Y4534D01*
X5011Y4544D01*
X5007Y4555D01*
X5004Y4565D01*
X5002Y4574D01*
X5001Y4578D01*
Y4582D01*
X5001Y4584D01*
Y4586D01*
Y4588D01*
Y4588D01*
X5001Y4595D01*
X5002Y4602D01*
X5004Y4615D01*
X5008Y4625D01*
X5013Y4635D01*
X5017Y4642D01*
X5019Y4645D01*
X5021Y4647D01*
X5022Y4649D01*
X5023Y4651D01*
X5024Y4651D01*
Y4652D01*
X5028Y4656D01*
X5033Y4660D01*
X5038Y4663D01*
X5044Y4666D01*
X5054Y4670D01*
X5064Y4673D01*
X5072Y4675D01*
X5076Y4676D01*
X5079D01*
X5082Y4676D01*
X5086D01*
X5092Y4676D01*
D02*
G37*
G36*
X5171Y4432D02*
X5253D01*
Y4422D01*
X5064D01*
X5078Y4422D01*
X5090Y4424D01*
X5100Y4426D01*
X5110Y4429D01*
X5117Y4431D01*
X5120Y4433D01*
X5123Y4434D01*
X5125Y4434D01*
X5126Y4435D01*
X5127Y4436D01*
X5127D01*
X5137Y4441D01*
X5145Y4448D01*
X5152Y4454D01*
X5158Y4461D01*
X5163Y4467D01*
X5166Y4471D01*
X5169Y4474D01*
X5169Y4475D01*
Y4475D01*
X5171D01*
Y4432D01*
D02*
G37*
D10*
X2101Y5458D02*
G03*
X2101Y5458I-24J0D01*
G01*
X4839Y9451D02*
Y9624D01*
X4453Y9451D02*
Y9624D01*
X4577D01*
X4715D02*
X4839D01*
X4453Y9451D02*
X4577D01*
X4715D02*
X4839D01*
X7571Y5644D02*
Y5768D01*
Y5906D02*
Y6030D01*
X7744Y5644D02*
Y5768D01*
Y5906D02*
Y6030D01*
X7571D02*
X7744D01*
X7571Y5644D02*
X7744D01*
X6390D02*
X6564D01*
X6390Y6030D02*
X6564D01*
Y5906D02*
Y6030D01*
Y5644D02*
Y5768D01*
X6390Y5906D02*
Y6030D01*
Y5644D02*
Y5768D01*
X9116Y8154D02*
Y8278D01*
Y8415D02*
Y8539D01*
X9289Y8154D02*
Y8278D01*
Y8415D02*
Y8539D01*
X9116D02*
X9289D01*
X9116Y8154D02*
X9289D01*
X8675Y8236D02*
X8799D01*
X8937D02*
X9061D01*
X8675Y8063D02*
X8799D01*
X8937D02*
X9061D01*
Y8236D01*
X8675Y8063D02*
Y8236D01*
X8809Y7620D02*
X8933D01*
X8547D02*
X8671D01*
X8809Y7793D02*
X8933D01*
X8547D02*
X8671D01*
X8547Y7620D02*
Y7793D01*
X8933Y7620D02*
Y7793D01*
X4266Y6474D02*
X4390D01*
X4528D02*
X4652D01*
X4266Y6301D02*
X4390D01*
X4528D02*
X4652D01*
Y6474D01*
X4266Y6301D02*
Y6474D01*
X5179Y5644D02*
Y5768D01*
Y5906D02*
Y6030D01*
X5352Y5644D02*
Y5768D01*
Y5906D02*
Y6030D01*
X5179D02*
X5352D01*
X5179Y5644D02*
X5352D01*
X8984Y8868D02*
Y8992D01*
Y8606D02*
Y8730D01*
X8811Y8868D02*
Y8992D01*
Y8606D02*
Y8730D01*
Y8606D02*
X8984D01*
X8811Y8992D02*
X8984D01*
X7714Y9362D02*
X7838D01*
X7452D02*
X7576D01*
X7714Y9535D02*
X7838D01*
X7452D02*
X7576D01*
X7452Y9362D02*
Y9535D01*
X7838Y9362D02*
Y9535D01*
X5087Y9045D02*
Y9169D01*
Y8783D02*
Y8907D01*
X4913Y9045D02*
Y9169D01*
Y8783D02*
Y8907D01*
Y8783D02*
X5087D01*
X4913Y9169D02*
X5087D01*
X8829Y9431D02*
X8953D01*
X8567D02*
X8691D01*
X8829Y9604D02*
X8953D01*
X8567D02*
X8691D01*
X8567Y9431D02*
Y9604D01*
X8953Y9431D02*
Y9604D01*
X8594Y8606D02*
Y8730D01*
Y8868D02*
Y8992D01*
X8768Y8606D02*
Y8730D01*
Y8868D02*
Y8992D01*
X8594D02*
X8768D01*
X8594Y8606D02*
X8768D01*
X8457Y8075D02*
Y8199D01*
Y8337D02*
Y8461D01*
X8630Y8075D02*
Y8199D01*
Y8337D02*
Y8461D01*
X8457D02*
X8630D01*
X8457Y8075D02*
X8630D01*
X4098Y9439D02*
Y9655D01*
X4206D01*
X4242Y9619D01*
Y9547D01*
X4206Y9511D01*
X4098D01*
X4170D02*
X4242Y9439D01*
X4314D02*
X4386D01*
X4350D01*
Y9655D01*
X4314Y9619D01*
X9511Y10049D02*
X9656Y9833D01*
Y10049D02*
X9511Y9833D01*
X9728D02*
X9800D01*
X9764D01*
Y10049D01*
X9728Y10013D01*
X9412Y7743D02*
Y7527D01*
X9556D01*
X9629D02*
X9701D01*
X9665D01*
Y7743D01*
X9629Y7707D01*
X9810Y7667D02*
X9774Y7631D01*
Y7559D01*
X9810Y7523D01*
X9954D01*
X9990Y7559D01*
Y7631D01*
X9954Y7667D01*
X9990Y7884D02*
Y7740D01*
X9846Y7884D01*
X9810D01*
X9774Y7848D01*
Y7776D01*
X9810Y7740D01*
X9990Y7956D02*
Y8028D01*
Y7992D01*
X9774D01*
X9810Y7956D01*
X5722Y9518D02*
Y9337D01*
X5758Y9301D01*
X5830D01*
X5866Y9337D01*
Y9518D01*
X5938Y9301D02*
X6010D01*
X5974D01*
Y9518D01*
X5938Y9482D01*
X7851Y5789D02*
X7815Y5753D01*
Y5681D01*
X7851Y5645D01*
X7995D01*
X8031Y5681D01*
Y5753D01*
X7995Y5789D01*
X8031Y5861D02*
Y5933D01*
Y5897D01*
X7815D01*
X7851Y5861D01*
X8031Y6186D02*
Y6042D01*
X7887Y6186D01*
X7851D01*
X7815Y6150D01*
Y6078D01*
X7851Y6042D01*
X8614Y7503D02*
X8578Y7539D01*
X8506D01*
X8470Y7503D01*
Y7359D01*
X8506Y7323D01*
X8578D01*
X8614Y7359D01*
X8686Y7323D02*
X8758D01*
X8722D01*
Y7539D01*
X8686Y7503D01*
X8866D02*
X8903Y7539D01*
X8975D01*
X9011Y7503D01*
Y7467D01*
X8975Y7431D01*
X8939D01*
X8975D01*
X9011Y7395D01*
Y7359D01*
X8975Y7323D01*
X8903D01*
X8866Y7359D01*
X4875Y6470D02*
X4839Y6506D01*
X4767D01*
X4731Y6470D01*
Y6325D01*
X4767Y6289D01*
X4839D01*
X4875Y6325D01*
X4947D02*
X4984Y6289D01*
X5056D01*
X5092Y6325D01*
Y6470D01*
X5056Y6506D01*
X4984D01*
X4947Y6470D01*
Y6434D01*
X4984Y6398D01*
X5092D01*
X5061Y9560D02*
X5025Y9596D01*
X4952D01*
X4916Y9560D01*
Y9416D01*
X4952Y9380D01*
X5025D01*
X5061Y9416D01*
X5133Y9380D02*
X5205D01*
X5169D01*
Y9596D01*
X5133Y9560D01*
X5313D02*
X5349Y9596D01*
X5422D01*
X5458Y9560D01*
Y9524D01*
X5422Y9488D01*
X5458Y9452D01*
Y9416D01*
X5422Y9380D01*
X5349D01*
X5313Y9416D01*
Y9452D01*
X5349Y9488D01*
X5313Y9524D01*
Y9560D01*
X5349Y9488D02*
X5422D01*
X7841Y10650D02*
Y10433D01*
X7986D01*
X8202D02*
X8058D01*
X8202Y10577D01*
Y10613D01*
X8166Y10650D01*
X8094D01*
X8058Y10613D01*
X3884Y8332D02*
X4101D01*
Y8477D01*
Y8657D02*
X3884D01*
X3992Y8549D01*
Y8693D01*
X5646Y10632D02*
X5610Y10596D01*
Y10523D01*
X5646Y10487D01*
X5791D01*
X5827Y10523D01*
Y10596D01*
X5791Y10632D01*
X5827Y10704D02*
Y10776D01*
Y10740D01*
X5610D01*
X5646Y10704D01*
X5610Y11028D02*
X5646Y10956D01*
X5719Y10884D01*
X5791D01*
X5827Y10920D01*
Y10992D01*
X5791Y11028D01*
X5755D01*
X5719Y10992D01*
Y10884D01*
X6106Y10171D02*
X6070Y10207D01*
X5997D01*
X5961Y10171D01*
Y10026D01*
X5997Y9990D01*
X6070D01*
X6106Y10026D01*
X6322Y10207D02*
X6178D01*
Y10098D01*
X6250Y10135D01*
X6286D01*
X6322Y10098D01*
Y10026D01*
X6286Y9990D01*
X6214D01*
X6178Y10026D01*
X6217Y11004D02*
Y10787D01*
X6362D01*
X6434Y10968D02*
X6470Y11004D01*
X6542D01*
X6578Y10968D01*
Y10932D01*
X6542Y10896D01*
X6506D01*
X6542D01*
X6578Y10860D01*
Y10824D01*
X6542Y10787D01*
X6470D01*
X6434Y10824D01*
X4800Y7531D02*
X4764Y7495D01*
Y7423D01*
X4800Y7387D01*
X4944D01*
X4980Y7423D01*
Y7495D01*
X4944Y7531D01*
X4980Y7603D02*
Y7676D01*
Y7639D01*
X4764D01*
X4800Y7603D01*
X4944Y7784D02*
X4980Y7820D01*
Y7892D01*
X4944Y7928D01*
X4800D01*
X4764Y7892D01*
Y7820D01*
X4800Y7784D01*
X4836D01*
X4872Y7820D01*
Y7928D01*
X8202Y9501D02*
X8166Y9537D01*
X8094D01*
X8058Y9501D01*
Y9357D01*
X8094Y9321D01*
X8166D01*
X8202Y9357D01*
X8274Y9501D02*
X8310Y9537D01*
X8382D01*
X8419Y9501D01*
Y9465D01*
X8382Y9429D01*
X8346D01*
X8382D01*
X8419Y9393D01*
Y9357D01*
X8382Y9321D01*
X8310D01*
X8274Y9357D01*
X7159Y9521D02*
X7123Y9557D01*
X7051D01*
X7014Y9521D01*
Y9377D01*
X7051Y9341D01*
X7123D01*
X7159Y9377D01*
X7375Y9557D02*
X7303Y9521D01*
X7231Y9449D01*
Y9377D01*
X7267Y9341D01*
X7339D01*
X7375Y9377D01*
Y9413D01*
X7339Y9449D01*
X7231D01*
X9062Y8734D02*
X9026Y8698D01*
Y8625D01*
X9062Y8589D01*
X9206D01*
X9242Y8625D01*
Y8698D01*
X9206Y8734D01*
X9242Y8914D02*
X9026D01*
X9134Y8806D01*
Y8950D01*
X4652Y8940D02*
X4616Y8904D01*
Y8832D01*
X4652Y8796D01*
X4797D01*
X4833Y8832D01*
Y8904D01*
X4797Y8940D01*
X4652Y9012D02*
X4616Y9049D01*
Y9121D01*
X4652Y9157D01*
X4688D01*
X4724Y9121D01*
X4760Y9157D01*
X4797D01*
X4833Y9121D01*
Y9049D01*
X4797Y9012D01*
X4760D01*
X4724Y9049D01*
X4688Y9012D01*
X4652D01*
X4724Y9049D02*
Y9121D01*
X6499Y9511D02*
X6463Y9547D01*
X6391D01*
X6355Y9511D01*
Y9367D01*
X6391Y9331D01*
X6463D01*
X6499Y9367D01*
X6572Y9547D02*
X6716D01*
Y9511D01*
X6572Y9367D01*
Y9331D01*
X7290Y10673D02*
X7254Y10637D01*
Y10564D01*
X7290Y10528D01*
X7434D01*
X7470Y10564D01*
Y10637D01*
X7434Y10673D01*
X7470Y10889D02*
Y10745D01*
X7326Y10889D01*
X7290D01*
X7254Y10853D01*
Y10781D01*
X7290Y10745D01*
X4239Y10041D02*
X4203Y10005D01*
Y9933D01*
X4239Y9897D01*
X4383D01*
X4419Y9933D01*
Y10005D01*
X4383Y10041D01*
X4419Y10113D02*
Y10185D01*
Y10149D01*
X4203D01*
X4239Y10113D01*
X4203Y10294D02*
Y10438D01*
X4239D01*
X4383Y10294D01*
X4419D01*
X9150Y7677D02*
X9114Y7641D01*
Y7569D01*
X9150Y7533D01*
X9295D01*
X9331Y7569D01*
Y7641D01*
X9295Y7677D01*
X9331Y7749D02*
Y7821D01*
Y7785D01*
X9114D01*
X9150Y7749D01*
X4108Y8950D02*
X4072Y8986D01*
X3999D01*
X3963Y8950D01*
Y8806D01*
X3999Y8770D01*
X4072D01*
X4108Y8806D01*
X4324Y8770D02*
X4180D01*
X4324Y8914D01*
Y8950D01*
X4288Y8986D01*
X4216D01*
X4180Y8950D01*
X4396D02*
X4432Y8986D01*
X4505D01*
X4541Y8950D01*
Y8806D01*
X4505Y8770D01*
X4432D01*
X4396Y8806D01*
Y8950D01*
X5459Y5789D02*
X5423Y5753D01*
Y5681D01*
X5459Y5645D01*
X5604D01*
X5640Y5681D01*
Y5753D01*
X5604Y5789D01*
X5640Y5861D02*
Y5933D01*
Y5897D01*
X5423D01*
X5459Y5861D01*
Y6042D02*
X5423Y6078D01*
Y6150D01*
X5459Y6186D01*
X5604D01*
X5640Y6150D01*
Y6078D01*
X5604Y6042D01*
X5459D01*
X6670Y5786D02*
X6634Y5750D01*
Y5678D01*
X6670Y5641D01*
X6814D01*
X6850Y5678D01*
Y5750D01*
X6814Y5786D01*
X6850Y5858D02*
Y5930D01*
Y5894D01*
X6634D01*
X6670Y5858D01*
X6850Y6038D02*
Y6110D01*
Y6074D01*
X6634D01*
X6670Y6038D01*
X8702Y9334D02*
X8666Y9370D01*
X8594D01*
X8558Y9334D01*
Y9190D01*
X8594Y9154D01*
X8666D01*
X8702Y9190D01*
X8775Y9154D02*
X8847D01*
X8811D01*
Y9370D01*
X8775Y9334D01*
X9099Y9370D02*
X8955D01*
Y9262D01*
X9027Y9298D01*
X9063D01*
X9099Y9262D01*
Y9190D01*
X9063Y9154D01*
X8991D01*
X8955Y9190D01*
X8353Y8742D02*
X8317Y8706D01*
Y8634D01*
X8353Y8598D01*
X8497D01*
X8533Y8634D01*
Y8706D01*
X8497Y8742D01*
X8533Y8814D02*
Y8886D01*
Y8850D01*
X8317D01*
X8353Y8814D01*
X8533Y9103D02*
X8317D01*
X8425Y8994D01*
Y9139D01*
D11*
X11614Y4567D02*
G03*
X11614Y4567I-630J0D01*
G01*
X2559Y3996D02*
Y4272D01*
X3268Y3996D02*
Y4272D01*
X3012Y3996D02*
X3268D01*
X2559D02*
X2815D01*
X3012Y4272D02*
X3268D01*
X2559D02*
X2815D01*
X12156Y8829D02*
X12431D01*
X12156Y8120D02*
X12431D01*
X12156D02*
Y8376D01*
Y8573D02*
Y8829D01*
X12431Y8120D02*
Y8376D01*
Y8573D02*
Y8829D01*
X12165Y3386D02*
Y5748D01*
X9803Y3386D02*
X12165D01*
X9803D02*
Y5748D01*
X12165D01*
X2795Y8140D02*
X3091D01*
X2795Y7451D02*
X3091D01*
X2795D02*
Y7697D01*
Y7894D02*
Y8140D01*
X3091Y7451D02*
Y7697D01*
Y7894D02*
Y8140D01*
X10002Y9210D02*
Y9336D01*
X9632Y9699D02*
X9679D01*
X9309Y9210D02*
Y9336D01*
X9632Y8848D02*
X9679D01*
X4291Y7165D02*
X4685D01*
Y7530D01*
X4291Y7165D02*
Y7530D01*
X4685Y7726D02*
Y8091D01*
X4291D02*
X4685D01*
X4291Y7726D02*
Y8091D01*
X6850Y9963D02*
X7106D01*
X6398D02*
X6654D01*
X6850Y10238D02*
X7106D01*
X6398D02*
X6654D01*
X6398Y9963D02*
Y10238D01*
X7106Y9963D02*
Y10238D01*
X5591Y9695D02*
X5866D01*
X5591Y10404D02*
X5866D01*
Y10148D02*
Y10404D01*
Y9695D02*
Y9951D01*
X5591Y10148D02*
Y10404D01*
Y9695D02*
Y9951D01*
X8484Y9951D02*
Y10345D01*
X7559Y9951D02*
Y10345D01*
X8120Y9951D02*
X8484D01*
X7559D02*
X7923D01*
X8120Y10345D02*
X8484D01*
X7559D02*
X7923D01*
X4961Y10602D02*
X5354D01*
X4961Y9677D02*
X5354D01*
X4961D02*
Y10041D01*
Y10238D02*
Y10602D01*
X5354Y9677D02*
Y10041D01*
Y10238D02*
Y10602D01*
X3829Y7323D02*
Y7687D01*
Y7884D02*
Y8248D01*
X4222Y7323D02*
Y7687D01*
Y7884D02*
Y8248D01*
X3829Y7323D02*
X4222D01*
X3829Y8248D02*
X4222D01*
X5935Y10699D02*
X6299D01*
X6496D02*
X6860D01*
X5935Y10305D02*
X6299D01*
X6496D02*
X6860D01*
X5935D02*
Y10699D01*
X6860Y10305D02*
Y10699D01*
X7490Y10167D02*
Y10423D01*
Y9715D02*
Y9970D01*
X7215Y10167D02*
Y10423D01*
Y9715D02*
Y9970D01*
Y9715D02*
X7490D01*
X7215Y10423D02*
X7490D01*
X6634Y9628D02*
X6890D01*
X6181D02*
X6437D01*
X6634Y9904D02*
X6890D01*
X6181D02*
X6437D01*
X6181Y9628D02*
Y9904D01*
X6890Y9628D02*
Y9904D01*
X4183Y8701D02*
X4547D01*
X4744D02*
X5108D01*
X4183Y8307D02*
X4547D01*
X4744D02*
X5108D01*
Y8701D01*
X4183Y8307D02*
Y8701D01*
X4911Y10238D02*
Y10602D01*
Y9677D02*
Y10041D01*
X4518Y10238D02*
Y10602D01*
Y9677D02*
Y10041D01*
Y9677D02*
X4911D01*
X4518Y10602D02*
X4911D01*
X8337Y9606D02*
X8592D01*
X7884D02*
X8140D01*
X8337Y9882D02*
X8592D01*
X7884D02*
X8140D01*
X7884Y9606D02*
Y9882D01*
X8592Y9606D02*
Y9882D01*
D12*
X5285Y9075D02*
G03*
X5285Y9075I-49J0D01*
G01*
D13*
X2874Y2697D02*
X3376D01*
X2874D02*
Y3760D01*
X876Y1280D02*
X3376D01*
X876Y3760D02*
X3376D01*
Y1280D02*
Y3760D01*
X876Y1280D02*
Y3760D01*
D14*
X1636Y7807D02*
X1936D01*
X2336D02*
X2636D01*
X1636Y6807D02*
X2636D01*
Y8807D01*
X1636D02*
X2636D01*
X1636Y6807D02*
Y8807D01*
X8594Y2768D02*
Y3068D01*
Y3468D02*
Y3768D01*
X9594Y2768D02*
Y3768D01*
X3594D02*
X9594D01*
X3594Y2768D02*
Y3768D01*
Y2768D02*
X9594D01*
X4293Y2321D02*
X4030D01*
X3899Y2190D01*
X4030Y2059D01*
X4293D01*
Y1928D02*
X3899D01*
Y1731D01*
X3965Y1665D01*
X4227D01*
X4293Y1731D01*
Y1928D01*
Y1534D02*
X3899D01*
Y1337D01*
X3965Y1272D01*
X4227D01*
X4293Y1337D01*
Y1534D01*
X5267Y2124D02*
Y2256D01*
X5202Y2321D01*
X4939D01*
X4874Y2256D01*
Y2124D01*
X4939Y2059D01*
X5202D01*
X5267Y2124D01*
Y1928D02*
X4939D01*
X4874Y1862D01*
Y1731D01*
X4939Y1665D01*
X5267D01*
Y1534D02*
Y1272D01*
Y1403D01*
X4874D01*
X6281Y2302D02*
Y2170D01*
Y2236D01*
X5887D01*
Y2302D01*
Y2170D01*
Y1974D02*
X6281D01*
X5887Y1711D01*
X6281D01*
X8253Y2059D02*
X8318Y2124D01*
Y2256D01*
X8253Y2321D01*
X7990D01*
X7925Y2256D01*
Y2124D01*
X7990Y2059D01*
X8318Y1928D02*
X7925D01*
Y1665D01*
X8318Y1534D02*
X7925D01*
X8056D01*
X8318Y1272D01*
X8122Y1469D01*
X7925Y1272D01*
X9247Y2079D02*
X9312Y2144D01*
Y2275D01*
X9247Y2341D01*
X8984D01*
X8919Y2275D01*
Y2144D01*
X8984Y2079D01*
X9116D01*
Y2210D01*
X8919Y1947D02*
X9312D01*
X8919Y1685D01*
X9312D01*
Y1554D02*
X8919D01*
Y1357D01*
X8984Y1291D01*
X9247D01*
X9312Y1357D01*
Y1554D01*
D15*
X2156Y4395D02*
X3337D01*
X2156D02*
Y5379D01*
X3337Y4395D02*
Y5379D01*
X2156D02*
X3337D01*
D16*
X2667Y8415D02*
X3258D01*
X2667D02*
X2805Y8278D01*
X3120D01*
X3258Y8415D01*
Y8927D01*
X2667Y8415D02*
Y8927D01*
Y9242D02*
Y9754D01*
X3258Y9242D02*
Y9754D01*
X2667D02*
X3258D01*
D17*
X11720Y7933D02*
Y8366D01*
Y7933D02*
X11988D01*
X11720Y8366D02*
X11988D01*
X11327Y8642D02*
X11665D01*
X11988Y7933D02*
Y8008D01*
Y8291D02*
Y8366D01*
X11327Y7657D02*
X11665D01*
X11004Y7933D02*
X11073Y8002D01*
X11004Y8366D02*
X11073Y8297D01*
D18*
X4606Y7589D02*
Y7667D01*
X4370Y7589D02*
Y7667D01*
X7982Y10030D02*
X8061D01*
X7982Y10266D02*
X8061D01*
X5039Y10100D02*
Y10179D01*
X5276Y10100D02*
Y10179D01*
X5433Y6339D02*
Y9173D01*
X8268Y6339D02*
Y9173D01*
X5433D02*
X8268D01*
X5433Y6339D02*
X8268D01*
X3907Y7746D02*
Y7825D01*
X4144Y7746D02*
Y7825D01*
X6358Y10620D02*
X6437D01*
X6358Y10384D02*
X6437D01*
X4606Y8622D02*
X4685D01*
X4606Y8386D02*
X4685D01*
X4833Y10100D02*
Y10179D01*
X4596Y10100D02*
Y10179D01*
M02*
