G04*
G04 #@! TF.GenerationSoftware,Altium Limited,Altium Designer,24.0.1 (36)*
G04*
G04 Layer_Color=65280*
%FSLAX24Y24*%
%MOIN*%
G70*
G04*
G04 #@! TF.SameCoordinates,9228D32E-8527-4A6C-AAF6-1CDB9724A3A0*
G04*
G04*
G04 #@! TF.FilePolarity,Positive*
G04*
G01*
G75*
%ADD79C,0.0787*%
D79*
X21614Y17126D02*
G03*
X21220Y17520I-394J0D01*
G01*
X21614Y17126D02*
G03*
X21220Y17520I-394J0D01*
G01*
Y5512D02*
G03*
X21614Y5906I0J394D01*
G01*
X21220Y5512D02*
G03*
X21614Y5906I0J394D01*
G01*
X7677Y17520D02*
G03*
X7399Y17404I0J-394D01*
G01*
X7677Y17520D02*
G03*
X7399Y17404I0J-394D01*
G01*
X5627Y15633D02*
G03*
X5512Y15354I278J-278D01*
G01*
X5627Y15633D02*
G03*
X5512Y15354I278J-278D01*
G01*
X7399Y5627D02*
G03*
X7677Y5512I278J278D01*
G01*
X7399Y5627D02*
G03*
X7677Y5512I278J278D01*
G01*
X5512Y7677D02*
G03*
X5627Y7399I394J0D01*
G01*
X5512Y7677D02*
G03*
X5627Y7399I394J0D01*
G01*
X5512Y5512D02*
X7677D01*
X5512D02*
Y7677D01*
X5512Y15354D02*
Y17520D01*
X7677D01*
X21614Y15354D02*
Y17126D01*
Y5906D02*
Y13780D01*
X5512Y7677D02*
Y13780D01*
X7677Y5512D02*
X16339D01*
X17913Y5512D02*
X21220Y5512D01*
X17913Y17520D02*
X21220Y17520D01*
X7677D02*
X16339D01*
X5627Y15633D02*
X7399Y17404D01*
X5627Y7399D02*
X7399Y5627D01*
X37717Y17126D02*
G03*
X37323Y17520I-394J0D01*
G01*
X37717Y17126D02*
G03*
X37323Y17520I-394J0D01*
G01*
Y5512D02*
G03*
X37717Y5906I0J394D01*
G01*
X37323Y5512D02*
G03*
X37717Y5906I0J394D01*
G01*
X23780Y17520D02*
G03*
X23501Y17404I0J-394D01*
G01*
X23780Y17520D02*
G03*
X23501Y17404I0J-394D01*
G01*
X21729Y15633D02*
G03*
X21614Y15354I278J-278D01*
G01*
X21729Y15633D02*
G03*
X21614Y15354I278J-278D01*
G01*
X23501Y5627D02*
G03*
X23780Y5512I278J278D01*
G01*
X23501Y5627D02*
G03*
X23780Y5512I278J278D01*
G01*
X21614Y7677D02*
G03*
X21729Y7399I394J0D01*
G01*
X21614Y7677D02*
G03*
X21729Y7399I394J0D01*
G01*
X21614Y5512D02*
X23780D01*
X21614D02*
Y7677D01*
X21614Y15354D02*
Y17520D01*
X23780D01*
X37717Y15354D02*
Y17126D01*
Y5906D02*
Y13780D01*
X21614Y7677D02*
Y13780D01*
X23780Y5512D02*
X32441D01*
X34016Y5512D02*
X37323Y5512D01*
X34016Y17520D02*
X37323Y17520D01*
X23780D02*
X32441D01*
X21729Y15633D02*
X23501Y17404D01*
X21729Y7399D02*
X23501Y5627D01*
X21614Y29134D02*
G03*
X21220Y29528I-394J0D01*
G01*
X21614Y29134D02*
G03*
X21220Y29528I-394J0D01*
G01*
Y17520D02*
G03*
X21614Y17913I0J394D01*
G01*
X21220Y17520D02*
G03*
X21614Y17913I0J394D01*
G01*
X7677Y29528D02*
G03*
X7399Y29412I0J-394D01*
G01*
X7677Y29528D02*
G03*
X7399Y29412I0J-394D01*
G01*
X5627Y27641D02*
G03*
X5512Y27362I278J-278D01*
G01*
X5627Y27641D02*
G03*
X5512Y27362I278J-278D01*
G01*
X7399Y17635D02*
G03*
X7677Y17520I278J278D01*
G01*
X7399Y17635D02*
G03*
X7677Y17520I278J278D01*
G01*
X5512Y19685D02*
G03*
X5627Y19407I394J0D01*
G01*
X5512Y19685D02*
G03*
X5627Y19407I394J0D01*
G01*
X5512Y17520D02*
X7677D01*
X5512D02*
Y19685D01*
X5512Y27362D02*
Y29528D01*
X7677D01*
X21614Y27362D02*
Y29134D01*
Y17913D02*
Y25787D01*
X5512Y19685D02*
Y25787D01*
X7677Y17520D02*
X16339D01*
X17913Y17520D02*
X21220Y17520D01*
X17913Y29528D02*
X21220Y29528D01*
X7677D02*
X16339D01*
X5627Y27641D02*
X7399Y29412D01*
X5627Y19407D02*
X7399Y17635D01*
X37717Y29134D02*
G03*
X37323Y29528I-394J0D01*
G01*
X37717Y29134D02*
G03*
X37323Y29528I-394J0D01*
G01*
Y17520D02*
G03*
X37717Y17913I0J394D01*
G01*
X37323Y17520D02*
G03*
X37717Y17913I0J394D01*
G01*
X23780Y29528D02*
G03*
X23501Y29412I0J-394D01*
G01*
X23780Y29528D02*
G03*
X23501Y29412I0J-394D01*
G01*
X21729Y27641D02*
G03*
X21614Y27362I278J-278D01*
G01*
X21729Y27641D02*
G03*
X21614Y27362I278J-278D01*
G01*
X23501Y17635D02*
G03*
X23780Y17520I278J278D01*
G01*
X23501Y17635D02*
G03*
X23780Y17520I278J278D01*
G01*
X21614Y19685D02*
G03*
X21729Y19407I394J0D01*
G01*
X21614Y19685D02*
G03*
X21729Y19407I394J0D01*
G01*
X21614Y17520D02*
X23780D01*
X21614D02*
Y19685D01*
X21614Y27362D02*
Y29528D01*
X23780D01*
X37717Y27362D02*
Y29134D01*
Y17913D02*
Y25787D01*
X21614Y19685D02*
Y25787D01*
X23780Y17520D02*
X32441D01*
X34016Y17520D02*
X37323Y17520D01*
X34016Y29528D02*
X37323Y29528D01*
X23780D02*
X32441D01*
X21729Y27641D02*
X23501Y29412D01*
X21729Y19407D02*
X23501Y17635D01*
M02*
