G04*
G04 #@! TF.GenerationSoftware,Altium Limited,Altium Designer,24.0.1 (36)*
G04*
G04 Layer_Physical_Order=3*
G04 Layer_Color=14930282*
%FSLAX24Y24*%
%MOIN*%
G70*
G04*
G04 #@! TF.SameCoordinates,E6425953-F81D-4A1B-B41F-9E3DC787EA87*
G04*
G04*
G04 #@! TF.FilePolarity,Positive*
G04*
G01*
G75*
%ADD54C,0.0197*%
%ADD73C,0.0591*%
%ADD74R,0.0591X0.0591*%
%ADD75C,0.0240*%
G36*
X12402Y9006D02*
X8858D01*
X8825Y9056D01*
X8829Y9065D01*
Y9124D01*
X8806Y9178D01*
X8765Y9220D01*
X8710Y9242D01*
X8652D01*
X8597Y9220D01*
X8556Y9178D01*
X8533Y9124D01*
Y9065D01*
X8537Y9056D01*
X8504Y9006D01*
X8418D01*
X8418Y7234D01*
X12402D01*
Y102D01*
X11749D01*
X11709Y142D01*
X11647Y167D01*
X11581D01*
X11519Y142D01*
X11480Y102D01*
X11355D01*
X11315Y142D01*
X11254Y167D01*
X11187D01*
X11126Y142D01*
X11086Y102D01*
X10961D01*
X10922Y142D01*
X10860Y167D01*
X10793D01*
X10732Y142D01*
X10692Y102D01*
X1814D01*
X102Y1814D01*
Y8133D01*
X142Y8173D01*
X167Y8234D01*
Y8301D01*
X142Y8363D01*
X102Y8402D01*
Y8527D01*
X142Y8567D01*
X167Y8628D01*
Y8695D01*
X142Y8756D01*
X102Y8796D01*
Y8920D01*
X142Y8960D01*
X167Y9022D01*
Y9088D01*
X142Y9150D01*
X102Y9190D01*
Y9407D01*
X1814Y11119D01*
X10692D01*
X10732Y11079D01*
X10793Y11053D01*
X10860D01*
X10922Y11079D01*
X10961Y11119D01*
X11086D01*
X11126Y11079D01*
X11187Y11053D01*
X11254D01*
X11315Y11079D01*
X11355Y11119D01*
X11480D01*
X11519Y11079D01*
X11581Y11053D01*
X11647D01*
X11709Y11079D01*
X11749Y11119D01*
X12402D01*
Y9006D01*
D02*
G37*
%LPC*%
G36*
X7249Y10866D02*
X7190D01*
X7136Y10844D01*
X7094Y10802D01*
X7072Y10748D01*
Y10689D01*
X7094Y10635D01*
X7136Y10593D01*
X7190Y10571D01*
X7249D01*
X7303Y10593D01*
X7345Y10635D01*
X7367Y10689D01*
Y10748D01*
X7345Y10802D01*
X7303Y10844D01*
X7249Y10866D01*
D02*
G37*
G36*
X5492Y9990D02*
X5433D01*
X5379Y9968D01*
X5337Y9926D01*
X5315Y9872D01*
Y9813D01*
X5337Y9759D01*
X5379Y9717D01*
X5433Y9695D01*
X5492D01*
X5546Y9717D01*
X5588Y9759D01*
X5610Y9813D01*
Y9872D01*
X5588Y9926D01*
X5546Y9968D01*
X5492Y9990D01*
D02*
G37*
G36*
X8730Y9862D02*
X8671D01*
X8617Y9840D01*
X8576Y9798D01*
X8553Y9744D01*
Y9685D01*
X8576Y9631D01*
X8617Y9589D01*
X8671Y9567D01*
X8730D01*
X8784Y9589D01*
X8826Y9631D01*
X8848Y9685D01*
Y9744D01*
X8826Y9798D01*
X8784Y9840D01*
X8730Y9862D01*
D02*
G37*
G36*
X8041Y9596D02*
X7982D01*
X7928Y9574D01*
X7887Y9532D01*
X7864Y9478D01*
Y9419D01*
X7887Y9365D01*
X7928Y9324D01*
X7982Y9301D01*
X8041D01*
X8095Y9324D01*
X8137Y9365D01*
X8159Y9419D01*
Y9478D01*
X8137Y9532D01*
X8095Y9574D01*
X8041Y9596D01*
D02*
G37*
G36*
X4823Y8986D02*
X4764D01*
X4710Y8964D01*
X4668Y8922D01*
X4646Y8868D01*
Y8809D01*
X4668Y8755D01*
X4710Y8713D01*
X4764Y8691D01*
X4823D01*
X4877Y8713D01*
X4918Y8755D01*
X4941Y8809D01*
Y8868D01*
X4918Y8922D01*
X4877Y8964D01*
X4823Y8986D01*
D02*
G37*
G36*
X2188Y8702D02*
X2186D01*
Y8357D01*
X2531D01*
Y8359D01*
X2504Y8460D01*
X2452Y8550D01*
X2379Y8623D01*
X2288Y8675D01*
X2188Y8702D01*
D02*
G37*
G36*
X2086D02*
X2084D01*
X1983Y8675D01*
X1893Y8623D01*
X1820Y8550D01*
X1767Y8460D01*
X1741Y8359D01*
Y8357D01*
X2086D01*
Y8702D01*
D02*
G37*
G36*
X2531Y8257D02*
X2186D01*
Y7912D01*
X2188D01*
X2288Y7939D01*
X2379Y7991D01*
X2452Y8064D01*
X2504Y8155D01*
X2531Y8255D01*
Y8257D01*
D02*
G37*
G36*
X2086D02*
X1741D01*
Y8255D01*
X1767Y8155D01*
X1820Y8064D01*
X1893Y7991D01*
X1983Y7939D01*
X2084Y7912D01*
X2086D01*
Y8257D01*
D02*
G37*
G36*
X4212Y7352D02*
X4154D01*
X4099Y7330D01*
X4058Y7288D01*
X4035Y7234D01*
Y7175D01*
X4058Y7121D01*
X4099Y7080D01*
X4154Y7057D01*
X4212D01*
X4267Y7080D01*
X4308Y7121D01*
X4331Y7175D01*
Y7234D01*
X4308Y7288D01*
X4267Y7330D01*
X4212Y7352D01*
D02*
G37*
G36*
X2480Y7652D02*
X1791D01*
Y6963D01*
X2480D01*
Y7652D01*
D02*
G37*
G36*
X2943Y6959D02*
X2884D01*
X2830Y6936D01*
X2788Y6895D01*
X2766Y6840D01*
Y6782D01*
X2788Y6727D01*
X2830Y6686D01*
X2884Y6663D01*
X2943D01*
X2997Y6686D01*
X3039Y6727D01*
X3061Y6782D01*
Y6840D01*
X3039Y6895D01*
X2997Y6936D01*
X2943Y6959D01*
D02*
G37*
G36*
X8750Y6673D02*
X8691D01*
X8637Y6651D01*
X8595Y6609D01*
X8573Y6555D01*
Y6496D01*
X8595Y6442D01*
X8637Y6400D01*
X8691Y6378D01*
X8750D01*
X8804Y6400D01*
X8846Y6442D01*
X8868Y6496D01*
Y6555D01*
X8846Y6609D01*
X8804Y6651D01*
X8750Y6673D01*
D02*
G37*
G36*
X4561Y6339D02*
X4502D01*
X4448Y6316D01*
X4406Y6275D01*
X4384Y6220D01*
Y6162D01*
X4406Y6107D01*
X4448Y6066D01*
X4502Y6043D01*
X4561D01*
X4615Y6066D01*
X4657Y6107D01*
X4679Y6162D01*
Y6220D01*
X4657Y6275D01*
X4615Y6316D01*
X4561Y6339D01*
D02*
G37*
G36*
X7894Y6077D02*
X7835D01*
X7781Y6054D01*
X7739Y6013D01*
X7717Y5959D01*
Y5900D01*
X7739Y5846D01*
X7781Y5804D01*
X7835Y5782D01*
X7894D01*
X7948Y5804D01*
X7989Y5846D01*
X8012Y5900D01*
Y5959D01*
X7989Y6013D01*
X7948Y6054D01*
X7894Y6077D01*
D02*
G37*
G36*
X7116D02*
X7057D01*
X7003Y6054D01*
X6961Y6013D01*
X6939Y5959D01*
Y5900D01*
X6961Y5846D01*
X7003Y5804D01*
X7057Y5782D01*
X7116D01*
X7170Y5804D01*
X7212Y5846D01*
X7234Y5900D01*
Y5959D01*
X7212Y6013D01*
X7170Y6054D01*
X7116Y6077D01*
D02*
G37*
G36*
X6663D02*
X6605D01*
X6550Y6054D01*
X6509Y6013D01*
X6486Y5959D01*
Y5900D01*
X6509Y5846D01*
X6550Y5804D01*
X6605Y5782D01*
X6663D01*
X6718Y5804D01*
X6759Y5846D01*
X6782Y5900D01*
Y5959D01*
X6759Y6013D01*
X6718Y6054D01*
X6663Y6077D01*
D02*
G37*
G36*
X6171D02*
X6112D01*
X6058Y6054D01*
X6017Y6013D01*
X5994Y5959D01*
Y5900D01*
X6017Y5846D01*
X6058Y5804D01*
X6112Y5782D01*
X6171D01*
X6225Y5804D01*
X6267Y5846D01*
X6289Y5900D01*
Y5959D01*
X6267Y6013D01*
X6225Y6054D01*
X6171Y6077D01*
D02*
G37*
G36*
X5816D02*
X5757D01*
X5703Y6054D01*
X5662Y6013D01*
X5639Y5959D01*
Y5900D01*
X5662Y5846D01*
X5703Y5804D01*
X5757Y5782D01*
X5816D01*
X5870Y5804D01*
X5912Y5846D01*
X5934Y5900D01*
Y5959D01*
X5912Y6013D01*
X5870Y6054D01*
X5816Y6077D01*
D02*
G37*
G36*
X5462D02*
X5403D01*
X5349Y6054D01*
X5307Y6013D01*
X5285Y5959D01*
Y5900D01*
X5307Y5846D01*
X5349Y5804D01*
X5403Y5782D01*
X5462D01*
X5516Y5804D01*
X5557Y5846D01*
X5580Y5900D01*
Y5959D01*
X5557Y6013D01*
X5516Y6054D01*
X5462Y6077D01*
D02*
G37*
G36*
X4983D02*
X4924D01*
X4870Y6054D01*
X4829Y6013D01*
X4806Y5959D01*
Y5900D01*
X4829Y5846D01*
X4870Y5804D01*
X4924Y5782D01*
X4983D01*
X5037Y5804D01*
X5079Y5846D01*
X5101Y5900D01*
Y5959D01*
X5079Y6013D01*
X5037Y6054D01*
X4983Y6077D01*
D02*
G37*
G36*
X8405Y5256D02*
X8347D01*
X8292Y5233D01*
X8251Y5192D01*
X8228Y5138D01*
Y5079D01*
X8251Y5025D01*
X8292Y4983D01*
X8347Y4961D01*
X8405D01*
X8460Y4983D01*
X8501Y5025D01*
X8524Y5079D01*
Y5138D01*
X8501Y5192D01*
X8460Y5233D01*
X8405Y5256D01*
D02*
G37*
G36*
X3477Y4739D02*
X3418D01*
X3364Y4717D01*
X3322Y4675D01*
X3300Y4621D01*
Y4562D01*
X3322Y4508D01*
X3364Y4466D01*
X3418Y4444D01*
X3477D01*
X3531Y4466D01*
X3573Y4508D01*
X3595Y4562D01*
Y4621D01*
X3573Y4675D01*
X3531Y4717D01*
X3477Y4739D01*
D02*
G37*
G36*
X9490Y3663D02*
X9244D01*
Y3418D01*
X9490D01*
Y3663D01*
D02*
G37*
G36*
X8944D02*
X8699D01*
Y3418D01*
X8944D01*
Y3663D01*
D02*
G37*
G36*
X8140Y3612D02*
X8049D01*
X7962Y3589D01*
X7883Y3543D01*
X7819Y3479D01*
X7773Y3401D01*
X7750Y3313D01*
Y3222D01*
X7773Y3135D01*
X7819Y3056D01*
X7883Y2992D01*
X7962Y2947D01*
X8049Y2923D01*
X8140D01*
X8227Y2947D01*
X8306Y2992D01*
X8370Y3056D01*
X8415Y3135D01*
X8439Y3222D01*
Y3313D01*
X8415Y3401D01*
X8370Y3479D01*
X8306Y3543D01*
X8227Y3589D01*
X8140Y3612D01*
D02*
G37*
G36*
X7140D02*
X7049D01*
X6962Y3589D01*
X6883Y3543D01*
X6819Y3479D01*
X6773Y3401D01*
X6750Y3313D01*
Y3222D01*
X6773Y3135D01*
X6819Y3056D01*
X6883Y2992D01*
X6962Y2947D01*
X7049Y2923D01*
X7140D01*
X7227Y2947D01*
X7306Y2992D01*
X7370Y3056D01*
X7416Y3135D01*
X7439Y3222D01*
Y3313D01*
X7416Y3401D01*
X7370Y3479D01*
X7306Y3543D01*
X7227Y3589D01*
X7140Y3612D01*
D02*
G37*
G36*
X6140D02*
X6049D01*
X5962Y3589D01*
X5883Y3543D01*
X5819Y3479D01*
X5773Y3401D01*
X5750Y3313D01*
Y3222D01*
X5773Y3135D01*
X5819Y3056D01*
X5883Y2992D01*
X5962Y2947D01*
X6049Y2923D01*
X6140D01*
X6227Y2947D01*
X6306Y2992D01*
X6370Y3056D01*
X6416Y3135D01*
X6439Y3222D01*
Y3313D01*
X6416Y3401D01*
X6370Y3479D01*
X6306Y3543D01*
X6227Y3589D01*
X6140Y3612D01*
D02*
G37*
G36*
X5140D02*
X5049D01*
X4962Y3589D01*
X4883Y3543D01*
X4819Y3479D01*
X4773Y3401D01*
X4750Y3313D01*
Y3222D01*
X4773Y3135D01*
X4819Y3056D01*
X4883Y2992D01*
X4962Y2947D01*
X5049Y2923D01*
X5140D01*
X5227Y2947D01*
X5306Y2992D01*
X5370Y3056D01*
X5415Y3135D01*
X5439Y3222D01*
Y3313D01*
X5415Y3401D01*
X5370Y3479D01*
X5306Y3543D01*
X5227Y3589D01*
X5140Y3612D01*
D02*
G37*
G36*
X4140D02*
X4049D01*
X3962Y3589D01*
X3883Y3543D01*
X3819Y3479D01*
X3773Y3401D01*
X3750Y3313D01*
Y3222D01*
X3773Y3135D01*
X3819Y3056D01*
X3883Y2992D01*
X3962Y2947D01*
X4049Y2923D01*
X4140D01*
X4227Y2947D01*
X4306Y2992D01*
X4370Y3056D01*
X4415Y3135D01*
X4439Y3222D01*
Y3313D01*
X4415Y3401D01*
X4370Y3479D01*
X4306Y3543D01*
X4227Y3589D01*
X4140Y3612D01*
D02*
G37*
G36*
X9490Y3118D02*
X9244D01*
Y2872D01*
X9490D01*
Y3118D01*
D02*
G37*
G36*
X8944D02*
X8699D01*
Y2872D01*
X8944D01*
Y3118D01*
D02*
G37*
%LPD*%
D54*
X4191Y2097D02*
D03*
X5238Y2098D02*
D03*
X8238D02*
D03*
X9238D02*
D03*
X7238D02*
D03*
X6238D02*
D03*
X10345Y1991D02*
D03*
X10079Y7087D02*
D03*
X2559Y1102D02*
D03*
X4921Y4537D02*
D03*
X7854Y5423D02*
D03*
X6171Y5433D02*
D03*
X5699Y5453D02*
D03*
X12238Y10098D02*
D03*
Y6098D02*
D03*
Y4098D02*
D03*
Y2098D02*
D03*
X11738Y1098D02*
D03*
X11238Y10098D02*
D03*
Y6098D02*
D03*
Y4098D02*
D03*
Y2098D02*
D03*
X10738Y1098D02*
D03*
X10238Y10098D02*
D03*
X9738Y1098D02*
D03*
X9238Y6098D02*
D03*
X8738Y5098D02*
D03*
Y1098D02*
D03*
X7738Y5098D02*
D03*
X8238Y4098D02*
D03*
X7738Y1098D02*
D03*
X6738D02*
D03*
X6238Y4098D02*
D03*
X5738Y1098D02*
D03*
X4738D02*
D03*
X4238Y10098D02*
D03*
X3738Y7098D02*
D03*
X4238Y6098D02*
D03*
X3738Y1098D02*
D03*
X3238Y10098D02*
D03*
X2738Y7098D02*
D03*
X3238Y6098D02*
D03*
X2238Y10098D02*
D03*
X1738Y9098D02*
D03*
Y5098D02*
D03*
Y1098D02*
D03*
X738Y9098D02*
D03*
X1238Y8098D02*
D03*
X738Y7098D02*
D03*
X1238Y6098D02*
D03*
X738Y5098D02*
D03*
X1238Y4098D02*
D03*
X738Y3098D02*
D03*
X10561Y9469D02*
D03*
X7057Y4488D02*
D03*
X3268Y6358D02*
D03*
X4026Y6378D02*
D03*
X11181Y7087D02*
D03*
X9065Y9606D02*
D03*
X9213Y5709D02*
D03*
X4811Y5611D02*
D03*
X3701Y5787D02*
D03*
X9880Y9856D02*
D03*
X8583Y5935D02*
D03*
X4360Y9793D02*
D03*
X3730Y9016D02*
D03*
Y8533D02*
D03*
X6250Y10098D02*
D03*
X6516Y9518D02*
D03*
X8474Y7953D02*
D03*
X3730Y10876D02*
D03*
X3730Y9793D02*
D03*
X8376Y10876D02*
D03*
X4685Y9065D02*
D03*
X5728Y10581D02*
D03*
X7766Y9744D02*
D03*
X8927Y9094D02*
D03*
X8494Y8730D02*
D03*
X5157Y10748D02*
D03*
X4843Y7904D02*
D03*
X4350Y10404D02*
D03*
X9430Y10146D02*
D03*
X7382Y10522D02*
D03*
X8967Y9793D02*
D03*
X9970Y10876D02*
D03*
X4035Y8533D02*
D03*
X4715Y10748D02*
D03*
X9075Y10876D02*
D03*
X9016Y6535D02*
D03*
D73*
X2136Y8307D02*
D03*
D74*
X9094Y3268D02*
D03*
D75*
X6142Y8465D02*
D03*
X6667D02*
D03*
X7192D02*
D03*
X7717D02*
D03*
X6142Y7992D02*
D03*
X6667D02*
D03*
X7192D02*
D03*
X7717D02*
D03*
X6142Y7520D02*
D03*
X6667D02*
D03*
X7192D02*
D03*
X7717D02*
D03*
X6142Y7047D02*
D03*
X6667D02*
D03*
X7192D02*
D03*
X7717D02*
D03*
M02*
