G04*
G04 #@! TF.GenerationSoftware,Altium Limited,Altium Designer,24.0.1 (36)*
G04*
G04 Layer_Physical_Order=1*
G04 Layer_Color=5124078*
%FSLAX24Y24*%
%MOIN*%
G70*
G04*
G04 #@! TF.SameCoordinates,E6425953-F81D-4A1B-B41F-9E3DC787EA87*
G04*
G04*
G04 #@! TF.FilePolarity,Positive*
G04*
G01*
G75*
%ADD10C,0.0049*%
%ADD12C,0.0098*%
%ADD13C,0.0118*%
%ADD14C,0.0100*%
%ADD17C,0.0059*%
%ADD18C,0.0079*%
%ADD20R,0.0299X0.0945*%
%ADD21R,0.0098X0.0187*%
%ADD22R,0.0187X0.0098*%
%ADD23R,0.0512X0.0472*%
%ADD24R,0.0236X0.0197*%
%ADD25R,0.0228X0.0197*%
%ADD26R,0.0315X0.0295*%
%ADD27R,0.0197X0.0236*%
%ADD28R,0.0551X0.1083*%
%ADD29R,0.0217X0.0236*%
%ADD30R,0.0106X0.0118*%
%ADD31R,0.0335X0.0374*%
%ADD33R,0.0118X0.0106*%
%ADD34R,0.0315X0.0295*%
%ADD35R,0.0295X0.0315*%
%ADD54C,0.0197*%
%ADD60C,0.0089*%
%ADD61C,0.0157*%
%ADD62R,0.2126X0.1969*%
%ADD63C,0.0089*%
%ADD64C,0.0074*%
%ADD65C,0.0300*%
%ADD66C,0.0500*%
%ADD67C,0.0071*%
%ADD68C,0.0065*%
%ADD69C,0.0062*%
%ADD70C,0.0080*%
%ADD71C,0.0236*%
%ADD72R,0.0591X0.0591*%
%ADD73C,0.0591*%
%ADD74R,0.0591X0.0591*%
%ADD75C,0.0240*%
G36*
X12402Y8889D02*
X12343D01*
Y8671D01*
X12243D01*
Y8889D01*
X12095D01*
Y8801D01*
X11920D01*
Y8553D01*
X11870D01*
Y8503D01*
X11613D01*
Y8306D01*
X11713D01*
Y7994D01*
X11613D01*
Y7796D01*
X11870D01*
X12128D01*
Y7835D01*
X12178Y7868D01*
X12212Y7854D01*
X12290Y7844D01*
X12402D01*
Y102D01*
X11749D01*
X11709Y142D01*
X11647Y167D01*
X11581D01*
X11519Y142D01*
X11480Y102D01*
X11355D01*
X11315Y142D01*
X11254Y167D01*
X11187D01*
X11126Y142D01*
X11086Y102D01*
X10961D01*
X10922Y142D01*
X10860Y167D01*
X10793D01*
X10732Y142D01*
X10692Y102D01*
X1814D01*
X102Y1814D01*
Y8133D01*
X142Y8173D01*
X167Y8234D01*
Y8301D01*
X142Y8363D01*
X102Y8402D01*
Y8527D01*
X142Y8567D01*
X167Y8628D01*
Y8695D01*
X142Y8756D01*
X102Y8796D01*
Y8920D01*
X142Y8960D01*
X167Y9022D01*
Y9088D01*
X142Y9150D01*
X102Y9190D01*
Y9407D01*
X1814Y11119D01*
X10692D01*
X10732Y11079D01*
X10793Y11053D01*
X10860D01*
X10922Y11079D01*
X10961Y11119D01*
X11086D01*
X11126Y11079D01*
X11187Y11053D01*
X11254D01*
X11315Y11079D01*
X11355Y11119D01*
X11480D01*
X11519Y11079D01*
X11581Y11053D01*
X11647D01*
X11709Y11079D01*
X11749Y11119D01*
X12402D01*
Y8889D01*
D02*
G37*
%LPC*%
G36*
X5415Y10653D02*
X5207D01*
Y10456D01*
X5415D01*
Y10653D01*
D02*
G37*
G36*
X4665D02*
X4457D01*
Y10456D01*
X4665D01*
Y10653D01*
D02*
G37*
G36*
X5678Y10464D02*
X5530D01*
Y10296D01*
X5678D01*
Y10464D01*
D02*
G37*
G36*
X7249Y10866D02*
X7190D01*
X7136Y10844D01*
X7094Y10802D01*
X7088Y10786D01*
X7050Y10756D01*
X6900Y10756D01*
Y10736D01*
X7046Y10736D01*
X7053Y10732D01*
X7072Y10695D01*
Y10693D01*
X7065Y10659D01*
Y10289D01*
X7043Y10273D01*
X6989Y10291D01*
X6987Y10294D01*
X6968Y10323D01*
X6860Y10430D01*
Y10709D01*
X6467D01*
Y10334D01*
X6431Y10299D01*
X6377Y10299D01*
X6337Y10299D01*
X6329Y10345D01*
Y10709D01*
X5935D01*
Y10511D01*
X5927Y10464D01*
X5778D01*
Y10246D01*
X5728D01*
Y10196D01*
X5530D01*
Y10028D01*
X5530Y10028D01*
X5528Y10018D01*
X5497Y9994D01*
X5486Y9990D01*
X5433D01*
X5414Y9982D01*
X5364Y10016D01*
Y10071D01*
X4951D01*
X4951Y10071D01*
X4921D01*
Y10071D01*
X4901Y10071D01*
X4508D01*
Y9690D01*
X4508Y9677D01*
X4470Y9648D01*
X3268D01*
Y9764D01*
X2657D01*
Y9193D01*
X3268D01*
Y9427D01*
X4533D01*
X4544Y9429D01*
X4606D01*
X4636Y9429D01*
Y9429D01*
X4656D01*
Y9429D01*
X4860D01*
Y9543D01*
X4906Y9562D01*
X5019Y9450D01*
X5048Y9431D01*
X5082Y9424D01*
X5672D01*
X5894Y9201D01*
Y9042D01*
X5891Y9034D01*
Y8997D01*
X5887Y8954D01*
X5864Y8942D01*
X5853Y8938D01*
X5827Y8912D01*
X5801Y8938D01*
X5767Y8952D01*
X5757D01*
X5721Y8988D01*
X5719Y8998D01*
Y9041D01*
X5699Y9088D01*
X5663Y9124D01*
X5616Y9144D01*
X5565D01*
X5518Y9124D01*
X5482Y9088D01*
X5463Y9041D01*
Y8990D01*
X5482Y8943D01*
X5516Y8910D01*
X5515Y8897D01*
X5502Y8860D01*
X5191D01*
X5163Y8887D01*
X5159Y8935D01*
X5159Y8935D01*
Y9039D01*
X5000D01*
X4841D01*
Y8998D01*
X4823Y8986D01*
X4764D01*
X4710Y8964D01*
X4668Y8922D01*
X4656Y8892D01*
X4635Y8866D01*
X4596Y8858D01*
X4587Y8860D01*
X3632D01*
X3594Y8853D01*
X3562Y8831D01*
X3318Y8587D01*
X3306Y8588D01*
X3268Y8604D01*
Y8976D01*
X2657D01*
Y8406D01*
X2887D01*
Y8159D01*
X2785D01*
X2785Y7825D01*
X2739Y7817D01*
X2735D01*
Y7648D01*
X2943D01*
X3151D01*
Y7817D01*
X3147D01*
X3100Y7825D01*
X3100Y7867D01*
Y8159D01*
X3038D01*
Y8406D01*
X3268Y8406D01*
X3285Y8363D01*
Y7325D01*
X2919Y6959D01*
X2884D01*
X2830Y6936D01*
X2805Y6911D01*
X2673D01*
X2480Y7105D01*
Y7652D01*
X1791D01*
Y6963D01*
X2338D01*
X2561Y6740D01*
X2593Y6718D01*
X2632Y6711D01*
X2805D01*
X2830Y6686D01*
X2884Y6663D01*
X2943D01*
X2997Y6686D01*
X3039Y6727D01*
X3061Y6782D01*
Y6817D01*
X3457Y7212D01*
X3479Y7245D01*
X3486Y7283D01*
Y8472D01*
X3674Y8659D01*
X4132D01*
Y8554D01*
X4380D01*
Y8454D01*
X4132D01*
Y8248D01*
X3819D01*
Y7854D01*
X4231D01*
Y7717D01*
X3819D01*
Y7323D01*
X4027D01*
X4051Y7273D01*
X4035Y7234D01*
Y7175D01*
X4058Y7121D01*
X4099Y7080D01*
X4154Y7057D01*
X4212D01*
X4267Y7080D01*
X4308Y7121D01*
X4309Y7123D01*
X4335Y7141D01*
X4360Y7165D01*
X4695D01*
Y7272D01*
X4773D01*
X4807Y7279D01*
X4837Y7298D01*
X5453Y7915D01*
X5512Y7903D01*
X5517Y7893D01*
X5511Y7888D01*
X5497Y7853D01*
Y7816D01*
X5511Y7782D01*
X5510Y7772D01*
X5496Y7726D01*
X4730Y6959D01*
X4712Y6933D01*
X4706Y6903D01*
Y6532D01*
X4673Y6496D01*
X4500D01*
Y6547D01*
X4396D01*
Y6388D01*
X4346D01*
Y6338D01*
X4193D01*
Y6229D01*
X4378D01*
X4384Y6220D01*
Y6162D01*
X4406Y6107D01*
X4448Y6066D01*
X4502Y6043D01*
X4561D01*
X4615Y6066D01*
X4657Y6107D01*
X4679Y6162D01*
Y6220D01*
X4675Y6230D01*
X4674Y6266D01*
X4689Y6293D01*
X4711Y6310D01*
X4729Y6314D01*
X4755Y6331D01*
X4843Y6419D01*
X4861Y6446D01*
X4867Y6476D01*
Y6869D01*
X5442Y7444D01*
X5478Y7443D01*
X5499Y7434D01*
X5508Y7407D01*
X5497Y7381D01*
Y7344D01*
X5511Y7309D01*
X5537Y7283D01*
X5511Y7258D01*
X5505Y7243D01*
X5481Y7227D01*
X5481Y7227D01*
X5066Y6812D01*
X5049Y6786D01*
X5043Y6755D01*
Y6249D01*
X4923Y6129D01*
X4906Y6103D01*
X4900Y6073D01*
Y6067D01*
X4870Y6054D01*
X4829Y6013D01*
X4806Y5959D01*
Y5900D01*
X4829Y5846D01*
X4870Y5804D01*
X4924Y5782D01*
X4983D01*
X5007Y5791D01*
X5057Y5758D01*
Y5675D01*
X4802Y5420D01*
X3781D01*
X3478Y5723D01*
X3454Y5739D01*
X3425Y5745D01*
X2677D01*
X2648Y5739D01*
X2624Y5723D01*
X2496Y5595D01*
X2480Y5570D01*
X2474Y5541D01*
Y5389D01*
X2451D01*
Y5331D01*
X2338D01*
Y5182D01*
X2288D01*
Y5132D01*
X2095D01*
Y5033D01*
X2110D01*
X2146Y4998D01*
X2146Y4887D01*
X2146Y4837D01*
Y4493D01*
X2431Y4493D01*
X2451Y4451D01*
Y4385D01*
X2561D01*
X2563Y4383D01*
X2550Y4340D01*
X2543Y4332D01*
X2498D01*
Y4184D01*
X2717D01*
Y4134D01*
X2767D01*
Y3935D01*
X2935D01*
Y3940D01*
X2943Y3986D01*
X2985Y3986D01*
X3231Y3986D01*
X3279Y3938D01*
X3279Y3920D01*
X3169Y3809D01*
X2927D01*
Y2766D01*
X3325D01*
Y3653D01*
X3525Y3854D01*
X3549Y3889D01*
X3558Y3932D01*
Y4493D01*
X3573Y4508D01*
X3595Y4562D01*
Y4621D01*
X3573Y4675D01*
X3531Y4717D01*
X3477Y4739D01*
X3418D01*
X3396Y4730D01*
X3346Y4764D01*
X3346Y4887D01*
X3346Y4937D01*
Y5281D01*
X3061Y5281D01*
X3041Y5322D01*
Y5389D01*
X3041D01*
X3047Y5437D01*
X3355D01*
X3648Y5144D01*
X3672Y5127D01*
X3701Y5122D01*
X5973D01*
X5993Y5075D01*
X5043Y4126D01*
X5027Y4102D01*
X5021Y4073D01*
Y3605D01*
X4962Y3589D01*
X4883Y3543D01*
X4819Y3479D01*
X4773Y3401D01*
X4750Y3313D01*
Y3222D01*
X4773Y3135D01*
X4819Y3056D01*
X4883Y2992D01*
X4962Y2947D01*
X5049Y2923D01*
X5140D01*
X5227Y2947D01*
X5306Y2992D01*
X5370Y3056D01*
X5415Y3135D01*
X5439Y3222D01*
Y3313D01*
X5415Y3401D01*
X5370Y3479D01*
X5306Y3543D01*
X5227Y3589D01*
X5172Y3604D01*
Y4042D01*
X6143Y5013D01*
X7215D01*
X7243Y5019D01*
X7268Y5035D01*
X7534Y5301D01*
X7550Y5326D01*
X7556Y5354D01*
Y5571D01*
X7607D01*
Y5724D01*
X7657D01*
Y5774D01*
X7824D01*
X7835Y5782D01*
X7894D01*
X7916Y5791D01*
X7966Y5757D01*
Y3590D01*
X7962Y3589D01*
X7883Y3543D01*
X7819Y3479D01*
X7773Y3401D01*
X7750Y3313D01*
Y3222D01*
X7773Y3135D01*
X7819Y3056D01*
X7883Y2992D01*
X7962Y2947D01*
X8049Y2923D01*
X8140D01*
X8227Y2947D01*
X8306Y2992D01*
X8370Y3056D01*
X8415Y3135D01*
X8439Y3222D01*
Y3313D01*
X8415Y3401D01*
X8370Y3479D01*
X8306Y3543D01*
X8227Y3589D01*
X8140Y3612D01*
X8117D01*
Y6162D01*
X8111Y6191D01*
X8095Y6215D01*
X7938Y6371D01*
X7937Y6387D01*
X7956Y6412D01*
X7959Y6413D01*
X8012Y6413D01*
X8038Y6388D01*
X8085Y6368D01*
X8132D01*
X8301Y6199D01*
Y5237D01*
X8292Y5233D01*
X8251Y5192D01*
X8228Y5138D01*
Y5079D01*
X8251Y5025D01*
X8292Y4983D01*
X8347Y4961D01*
X8405D01*
X8460Y4983D01*
X8501Y5025D01*
X8524Y5079D01*
Y5138D01*
X8501Y5192D01*
X8460Y5233D01*
X8451Y5237D01*
Y6230D01*
X8446Y6259D01*
X8429Y6284D01*
X8317Y6395D01*
X8338Y6445D01*
X8594D01*
X8595Y6442D01*
X8637Y6400D01*
X8691Y6378D01*
X8750D01*
X8804Y6400D01*
X8846Y6442D01*
X8868Y6496D01*
Y6555D01*
X8846Y6609D01*
X8869Y6657D01*
X9095D01*
X9393Y6359D01*
X9417Y6343D01*
X9446Y6337D01*
X9872D01*
Y5305D01*
X10370D01*
Y3829D01*
X9872D01*
Y2754D01*
X9792Y2674D01*
X2897D01*
X2876Y2715D01*
X2876Y2724D01*
Y3237D01*
X2626D01*
Y3287D01*
X2576D01*
Y3860D01*
X2426D01*
X2376Y3860D01*
X2326Y3860D01*
X2176D01*
Y3287D01*
X2126D01*
Y3237D01*
X1876D01*
Y2724D01*
X1876Y2715D01*
X1855Y2674D01*
X1650D01*
X1621Y2668D01*
X1596Y2652D01*
X1218Y2274D01*
X927D01*
Y1230D01*
X1325D01*
Y2167D01*
X1381Y2223D01*
X1427Y2204D01*
Y1230D01*
X1825D01*
Y2274D01*
X1497D01*
X1477Y2320D01*
X1681Y2523D01*
X3403D01*
X3422Y2477D01*
X3218Y2274D01*
X2927D01*
Y1300D01*
X2881Y1281D01*
X2825Y1337D01*
Y2274D01*
X2427D01*
Y1230D01*
X2718D01*
X2900Y1049D01*
X2924Y1033D01*
X2953Y1027D01*
X3346D01*
X3375Y1033D01*
X3400Y1049D01*
X3518Y1167D01*
X3534Y1192D01*
X3540Y1220D01*
Y2095D01*
X3771Y2326D01*
X10512D01*
X10541Y2332D01*
X10565Y2348D01*
X10742Y2526D01*
X10759Y2550D01*
X10764Y2579D01*
Y6497D01*
X10759Y6526D01*
X10742Y6551D01*
X10630Y6662D01*
X10606Y6679D01*
X10577Y6685D01*
X9603D01*
X9305Y6982D01*
X9281Y6999D01*
X9252Y7004D01*
X8742D01*
X8201Y7545D01*
X8190Y7573D01*
X8164Y7598D01*
X8190Y7624D01*
X8204Y7659D01*
Y7696D01*
X8190Y7730D01*
X8184Y7736D01*
X8193Y7757D01*
X8251Y7768D01*
X8369Y7650D01*
X8395Y7633D01*
X8426Y7626D01*
X8526D01*
Y7598D01*
X8534D01*
X8563Y7559D01*
Y7500D01*
X8585Y7446D01*
X8627Y7404D01*
X8681Y7382D01*
X8740D01*
X8794Y7404D01*
X8836Y7446D01*
X8858Y7500D01*
Y7548D01*
X9006D01*
Y7657D01*
X8852D01*
Y7707D01*
X8802D01*
Y7866D01*
X8699D01*
Y7815D01*
X8526D01*
Y7787D01*
X8459D01*
X8242Y8004D01*
X8263Y8054D01*
X8435D01*
Y8053D01*
X8652D01*
X8654Y8041D01*
X8858D01*
Y8041D01*
X8878D01*
X8924Y8032D01*
X8941Y8006D01*
X9007Y7962D01*
X9085Y7946D01*
X10844Y7946D01*
X10865Y7929D01*
Y7796D01*
X11122D01*
X11380D01*
Y7994D01*
X11280D01*
Y8306D01*
X11380D01*
Y8503D01*
X11122D01*
X10865D01*
Y8394D01*
X10815Y8353D01*
X9362Y8353D01*
Y8409D01*
X9203D01*
Y8509D01*
X9362D01*
Y8546D01*
X10070Y8546D01*
Y8752D01*
X10098D01*
Y9224D01*
X10098D01*
X10104Y9272D01*
X10149D01*
Y9846D01*
X10070D01*
Y10016D01*
X9160Y10016D01*
Y9440D01*
X9025D01*
Y9468D01*
X8872D01*
Y9568D01*
X9025D01*
Y9677D01*
X8854D01*
X8848Y9685D01*
Y9744D01*
X8826Y9798D01*
X8784Y9840D01*
X8730Y9862D01*
X8671D01*
X8652Y9854D01*
X8602Y9888D01*
Y9892D01*
X8486D01*
Y10039D01*
X8484Y10049D01*
Y10354D01*
X8091D01*
Y9943D01*
X7953D01*
Y10354D01*
X7559D01*
X7551Y10401D01*
Y10484D01*
X7402D01*
Y10266D01*
X7302D01*
Y10484D01*
X7256D01*
Y10574D01*
X7303Y10593D01*
X7345Y10635D01*
X7367Y10689D01*
Y10748D01*
X7345Y10802D01*
X7303Y10844D01*
X7249Y10866D01*
D02*
G37*
G36*
X5415Y10356D02*
X5207D01*
Y10158D01*
X5415D01*
Y10356D01*
D02*
G37*
G36*
X5107Y10653D02*
X4765D01*
Y10406D01*
Y10158D01*
X5107D01*
Y10406D01*
Y10653D01*
D02*
G37*
G36*
X4665Y10356D02*
X4457D01*
Y10158D01*
X4665D01*
Y10356D01*
D02*
G37*
G36*
X5159Y9242D02*
X5050D01*
Y9139D01*
X5159D01*
Y9242D01*
D02*
G37*
G36*
X4950D02*
X4841D01*
Y9139D01*
X4950D01*
Y9242D01*
D02*
G37*
G36*
X11380Y8801D02*
X11172D01*
Y8603D01*
X11380D01*
Y8801D01*
D02*
G37*
G36*
X11820D02*
X11613D01*
Y8603D01*
X11820D01*
Y8801D01*
D02*
G37*
G36*
X11072D02*
X10865D01*
Y8603D01*
X11072D01*
Y8801D01*
D02*
G37*
G36*
X2188Y8702D02*
X2186D01*
Y8357D01*
X2531D01*
Y8359D01*
X2504Y8460D01*
X2452Y8550D01*
X2379Y8623D01*
X2288Y8675D01*
X2188Y8702D01*
D02*
G37*
G36*
X2086D02*
X2084D01*
X1983Y8675D01*
X1893Y8623D01*
X1820Y8550D01*
X1767Y8460D01*
X1741Y8359D01*
Y8357D01*
X2086D01*
Y8702D01*
D02*
G37*
G36*
X2531Y8257D02*
X2186D01*
Y7912D01*
X2188D01*
X2288Y7939D01*
X2379Y7991D01*
X2452Y8064D01*
X2504Y8155D01*
X2531Y8255D01*
Y8257D01*
D02*
G37*
G36*
X2086D02*
X1741D01*
Y8255D01*
X1767Y8155D01*
X1820Y8064D01*
X1893Y7991D01*
X1983Y7939D01*
X2084Y7912D01*
X2086D01*
Y8257D01*
D02*
G37*
G36*
X9006Y7866D02*
X8902D01*
Y7757D01*
X9006D01*
Y7866D01*
D02*
G37*
G36*
X12128Y7696D02*
X11920D01*
Y7498D01*
X12128D01*
Y7696D01*
D02*
G37*
G36*
X11820D02*
X11613D01*
Y7498D01*
X11820D01*
Y7696D01*
D02*
G37*
G36*
X11380D02*
X11172D01*
Y7498D01*
X11380D01*
Y7696D01*
D02*
G37*
G36*
X11072D02*
X10865D01*
Y7498D01*
X11072D01*
Y7696D01*
D02*
G37*
G36*
X3151Y7548D02*
X2993D01*
Y7380D01*
X3151D01*
Y7548D01*
D02*
G37*
G36*
X2893D02*
X2735D01*
Y7380D01*
X2893D01*
Y7548D01*
D02*
G37*
G36*
X4296Y6547D02*
X4193D01*
Y6438D01*
X4296D01*
Y6547D01*
D02*
G37*
G36*
X12147Y6537D02*
X11822D01*
Y5946D01*
X12147D01*
Y6537D01*
D02*
G37*
G36*
X11722D02*
X11396D01*
Y5946D01*
X11722D01*
Y6537D01*
D02*
G37*
G36*
X7817Y5674D02*
X7707D01*
Y5571D01*
X7817D01*
Y5674D01*
D02*
G37*
G36*
X12147Y5846D02*
X11822D01*
Y5254D01*
X12147D01*
Y5846D01*
D02*
G37*
G36*
X11722D02*
X11396D01*
Y5254D01*
X11722D01*
Y5846D01*
D02*
G37*
G36*
X2238Y5331D02*
X2095D01*
Y5232D01*
X2238D01*
Y5331D01*
D02*
G37*
G36*
X2667Y4084D02*
X2498D01*
Y3935D01*
X2667D01*
Y4084D01*
D02*
G37*
G36*
X9490Y3663D02*
X9244D01*
Y3418D01*
X9490D01*
Y3663D01*
D02*
G37*
G36*
X8944D02*
X8699D01*
Y3418D01*
X8944D01*
Y3663D01*
D02*
G37*
G36*
X2676Y3860D02*
Y3337D01*
X2876D01*
Y3860D01*
X2676D01*
D02*
G37*
G36*
X1376D02*
X1176D01*
Y3337D01*
X1376D01*
Y3860D01*
D02*
G37*
G36*
X1076D02*
X876D01*
Y3337D01*
X1076D01*
Y3860D01*
D02*
G37*
G36*
X2076D02*
X1876D01*
Y3337D01*
X2076D01*
Y3860D01*
D02*
G37*
G36*
X12147Y3880D02*
X11822D01*
Y3288D01*
X12147D01*
Y3880D01*
D02*
G37*
G36*
X11722D02*
X11396D01*
Y3288D01*
X11722D01*
Y3880D01*
D02*
G37*
G36*
X7140Y3612D02*
X7049D01*
X6962Y3589D01*
X6883Y3543D01*
X6819Y3479D01*
X6773Y3401D01*
X6750Y3313D01*
Y3222D01*
X6773Y3135D01*
X6819Y3056D01*
X6883Y2992D01*
X6962Y2947D01*
X7049Y2923D01*
X7140D01*
X7227Y2947D01*
X7306Y2992D01*
X7370Y3056D01*
X7416Y3135D01*
X7439Y3222D01*
Y3313D01*
X7416Y3401D01*
X7370Y3479D01*
X7306Y3543D01*
X7227Y3589D01*
X7140Y3612D01*
D02*
G37*
G36*
X6140D02*
X6049D01*
X5962Y3589D01*
X5883Y3543D01*
X5819Y3479D01*
X5773Y3401D01*
X5750Y3313D01*
Y3222D01*
X5773Y3135D01*
X5819Y3056D01*
X5883Y2992D01*
X5962Y2947D01*
X6049Y2923D01*
X6140D01*
X6227Y2947D01*
X6306Y2992D01*
X6370Y3056D01*
X6416Y3135D01*
X6439Y3222D01*
Y3313D01*
X6416Y3401D01*
X6370Y3479D01*
X6306Y3543D01*
X6227Y3589D01*
X6140Y3612D01*
D02*
G37*
G36*
X4140D02*
X4049D01*
X3962Y3589D01*
X3883Y3543D01*
X3819Y3479D01*
X3773Y3401D01*
X3750Y3313D01*
Y3222D01*
X3773Y3135D01*
X3819Y3056D01*
X3883Y2992D01*
X3962Y2947D01*
X4049Y2923D01*
X4140D01*
X4227Y2947D01*
X4306Y2992D01*
X4370Y3056D01*
X4415Y3135D01*
X4439Y3222D01*
Y3313D01*
X4415Y3401D01*
X4370Y3479D01*
X4306Y3543D01*
X4227Y3589D01*
X4140Y3612D01*
D02*
G37*
G36*
X9490Y3118D02*
X9244D01*
Y2872D01*
X9490D01*
Y3118D01*
D02*
G37*
G36*
X8944D02*
X8699D01*
Y2872D01*
X8944D01*
Y3118D01*
D02*
G37*
G36*
X1825Y3809D02*
X1427D01*
Y2766D01*
X1825D01*
Y3809D01*
D02*
G37*
G36*
X1376Y3237D02*
X1176D01*
Y2715D01*
X1376D01*
Y3237D01*
D02*
G37*
G36*
X1076D02*
X876D01*
Y2715D01*
X1076D01*
Y3237D01*
D02*
G37*
G36*
X12147Y3188D02*
X11822D01*
Y2597D01*
X12147D01*
Y3188D01*
D02*
G37*
G36*
X11722D02*
X11396D01*
Y2597D01*
X11722D01*
Y3188D01*
D02*
G37*
G36*
X2325Y2274D02*
X1927D01*
Y1230D01*
X2325D01*
Y2274D01*
D02*
G37*
%LPD*%
G36*
X5482Y6424D02*
X5518Y6388D01*
X5565Y6368D01*
X5616D01*
X5656Y6385D01*
X5684Y6374D01*
X5706Y6360D01*
Y6056D01*
X5703Y6054D01*
X5662Y6013D01*
X5639Y5959D01*
Y5900D01*
X5662Y5846D01*
X5703Y5804D01*
X5757Y5782D01*
X5816D01*
X5870Y5804D01*
X5912Y5846D01*
X5934Y5900D01*
Y5959D01*
X5912Y6013D01*
X5870Y6054D01*
X5867Y6056D01*
Y6412D01*
X5880Y6417D01*
X5906Y6443D01*
X5931Y6417D01*
X5966Y6403D01*
X6003D01*
X6011Y6406D01*
X6061Y6376D01*
Y6056D01*
X6058Y6054D01*
X6017Y6013D01*
X5994Y5959D01*
Y5900D01*
X6017Y5846D01*
X6058Y5804D01*
X6112Y5782D01*
X6171D01*
X6225Y5804D01*
X6267Y5846D01*
X6268Y5848D01*
X6318Y5838D01*
Y5774D01*
X6636D01*
Y5782D01*
X6663D01*
X6718Y5804D01*
X6759Y5846D01*
X6782Y5900D01*
Y5959D01*
X6759Y6013D01*
X6718Y6054D01*
X6663Y6077D01*
X6605D01*
X6599Y6074D01*
X6557Y6102D01*
Y6364D01*
X6592Y6400D01*
X6596Y6403D01*
X6633D01*
X6667Y6417D01*
X6693Y6443D01*
X6719Y6417D01*
X6753Y6403D01*
X6790D01*
X6825Y6417D01*
X6850Y6443D01*
X6876Y6417D01*
X6880Y6415D01*
X7006Y6289D01*
Y6056D01*
X7003Y6054D01*
X6961Y6013D01*
X6939Y5959D01*
Y5900D01*
X6961Y5846D01*
X7003Y5804D01*
X7057Y5782D01*
X7116D01*
X7170Y5804D01*
X7212Y5846D01*
X7234Y5900D01*
Y5959D01*
X7212Y6013D01*
X7170Y6054D01*
X7167Y6056D01*
Y6322D01*
X7161Y6353D01*
X7172Y6402D01*
X7214Y6400D01*
X7230Y6376D01*
X7297Y6309D01*
Y5419D01*
X7150Y5272D01*
X4937D01*
X4917Y5322D01*
X5166Y5571D01*
X5215D01*
Y5724D01*
X5265D01*
Y5774D01*
X5424D01*
Y5782D01*
X5462D01*
X5516Y5804D01*
X5557Y5846D01*
X5580Y5900D01*
Y5959D01*
X5557Y6013D01*
X5516Y6054D01*
X5462Y6077D01*
X5434D01*
X5415Y6100D01*
Y6465D01*
X5463Y6471D01*
X5482Y6424D01*
D02*
G37*
%LPC*%
G36*
X6636Y5674D02*
X6527D01*
Y5571D01*
X6636D01*
Y5674D01*
D02*
G37*
G36*
X6427D02*
X6318D01*
Y5571D01*
X6427D01*
Y5674D01*
D02*
G37*
G36*
X5424D02*
X5315D01*
Y5571D01*
X5424D01*
Y5674D01*
D02*
G37*
%LPD*%
D10*
X3465Y1220D02*
Y2126D01*
X3740Y2402D02*
X10512D01*
X3465Y2126D02*
X3740Y2402D01*
X1650Y2598D02*
X9823D01*
X3126Y2075D02*
X3551Y2500D01*
X10471D01*
X10591Y2620D01*
X9823Y2598D02*
X10197Y2972D01*
X1126Y2075D02*
X1650Y2598D01*
X3346Y1102D02*
X3465Y1220D01*
X2626Y1429D02*
X2953Y1102D01*
X3346D01*
X2626Y1429D02*
Y1752D01*
X3126D02*
Y2075D01*
X10512Y2402D02*
X10689Y2579D01*
X10591Y2620D02*
Y6457D01*
X10197Y2972D02*
Y3238D01*
X10445Y3486D01*
X10536Y6511D02*
X10591Y6457D01*
X10577Y6609D02*
X10689Y6497D01*
Y2579D02*
Y6497D01*
X10197Y5896D02*
X10445Y5647D01*
Y3486D02*
Y5647D01*
X10197Y5896D02*
Y6161D01*
X9126Y6732D02*
X9446Y6412D01*
X9946D02*
X10197Y6161D01*
X9446Y6412D02*
X9946D01*
X8592Y6732D02*
X9126D01*
X9193Y6831D02*
X9513Y6511D01*
X10536D01*
X8651Y6831D02*
X9193D01*
X8710Y6929D02*
X9252D01*
X9572Y6609D01*
X10577D01*
X1126Y1752D02*
Y2075D01*
X8120Y7362D02*
X8651Y6831D01*
X8110Y7362D02*
X8120D01*
X8120Y7520D02*
X8710Y6929D01*
X8120Y7205D02*
X8592Y6732D01*
X8110Y7520D02*
X8120D01*
X8110Y7205D02*
X8120D01*
X2549Y5246D02*
Y5541D01*
X2677Y5669D01*
X3425D01*
X3750Y5344D01*
X4833D01*
X3701Y5197D02*
X7181D01*
X7372Y5388D01*
X3386Y5512D02*
X3701Y5197D01*
X2835Y5512D02*
X3386D01*
X2746Y5423D02*
X2835Y5512D01*
X2746Y5246D02*
Y5423D01*
X3169Y4567D02*
X3194Y4592D01*
X3204D01*
X5132Y5644D02*
Y6079D01*
X4833Y5344D02*
X5132Y5644D01*
X2993Y4724D02*
X3101Y4616D01*
X3179D01*
X3204Y4592D01*
X2574Y4602D02*
X2696Y4724D01*
X2993D01*
X6112Y5089D02*
X7215D01*
X7480Y5354D02*
Y6371D01*
X7215Y5089D02*
X7480Y5354D01*
X7372Y5388D02*
Y6340D01*
X4498Y7904D02*
X4843D01*
X4488Y7894D02*
X4498Y7904D01*
X7874Y6487D02*
X7895D01*
X7717Y6496D02*
X7874D01*
X7717Y6487D02*
X8041Y6162D01*
Y3215D02*
Y6162D01*
Y3215D02*
X8096Y3159D01*
X9096D02*
X9114Y3142D01*
X9094Y3161D02*
X9096Y3159D01*
X7402Y6450D02*
X7480Y6371D01*
X2746Y4528D02*
X2943D01*
X2746Y4144D02*
X2776Y4114D01*
X2746Y4144D02*
Y4528D01*
X5096Y3159D02*
Y4073D01*
X6112Y5089D01*
X2963Y8012D02*
Y8691D01*
X2943Y7992D02*
X2963Y8012D01*
X2549Y4528D02*
X2574Y4552D01*
Y4602D01*
X7480Y6654D02*
X7638D01*
X7480Y6654D02*
X7480Y6654D01*
X7638D02*
X7638Y6654D01*
X5554Y7040D02*
X5583D01*
X5226Y6173D02*
Y6712D01*
X5554Y7040D01*
X5132Y6079D02*
X5226Y6173D01*
X5583Y7040D02*
X5591Y7047D01*
X7244Y6487D02*
X7283Y6448D01*
Y6429D02*
Y6448D01*
Y6429D02*
X7372Y6340D01*
X7244Y6487D02*
Y6496D01*
X7402Y6450D02*
Y6496D01*
X8110Y6496D02*
X8376Y6230D01*
Y5108D02*
Y6230D01*
X7953Y6654D02*
X8110Y6496D01*
X7953Y6654D02*
X7953D01*
X9882Y8988D02*
Y9014D01*
X9630Y9267D02*
X9882Y9014D01*
X8607Y9267D02*
X9630D01*
X8120Y8780D02*
X8607Y9267D01*
X8110Y8780D02*
X8120D01*
X8566Y9365D02*
X9235D01*
X9429Y9559D01*
X8369Y9168D02*
X8566Y9365D01*
X7953Y8858D02*
Y9074D01*
X8047Y9168D01*
X8369D01*
D12*
X3386Y7283D02*
Y8513D01*
X2913Y6811D02*
X3386Y7283D01*
X2136Y7307D02*
X2632Y6811D01*
X2913D01*
X8872Y9518D02*
Y9524D01*
X8876Y9528D02*
X8960D01*
X9038Y9606D02*
X9065D01*
X8872Y9524D02*
X8876Y9528D01*
X8960D02*
X9038Y9606D01*
X3386Y8513D02*
X3632Y8760D01*
X8430Y9749D02*
X8435Y9744D01*
X8386Y9793D02*
X8430Y9749D01*
X8386Y9793D02*
Y10039D01*
X8287Y10138D02*
X8386Y10039D01*
X8287Y10138D02*
Y10148D01*
X6949Y10100D02*
X6949Y10100D01*
X6900Y10149D02*
X6949Y10100D01*
X6663Y10492D02*
Y10502D01*
X4911Y8504D02*
X4990D01*
X4843D02*
X4911D01*
X4587Y8760D02*
X4843Y8504D01*
X3632Y8760D02*
X4587D01*
X6506Y9508D02*
Y9567D01*
X6339Y9734D02*
X6506Y9567D01*
X7756Y9449D02*
Y9744D01*
X4685Y9065D02*
X4709Y9089D01*
X5000D01*
X8537Y8687D02*
X8681D01*
D13*
X3126Y3610D02*
X3447Y3932D01*
Y4592D01*
X3126Y3287D02*
Y3610D01*
X3169Y4114D02*
Y4567D01*
X2963Y9478D02*
X3022Y9537D01*
X4533D01*
X5463Y9843D02*
X5709D01*
D14*
X5265Y5724D02*
X5271D01*
X5274Y5721D01*
X6477Y5724D02*
X6477Y5724D01*
X7657D02*
X7657Y5724D01*
X9420Y8696D02*
Y8979D01*
X9429Y8988D01*
X9880Y9560D02*
Y9856D01*
Y9560D02*
X9882Y9559D01*
X6250Y9854D02*
X6339Y9766D01*
X6250Y9854D02*
Y10098D01*
X4035Y8533D02*
X4350D01*
X4380Y8504D01*
D17*
X8691Y9561D02*
Y9715D01*
X6477Y5929D02*
X6614D01*
X4793Y8848D02*
X5089D01*
X4571Y6191D02*
Y6388D01*
X8110Y6732D02*
X8110D01*
X8317Y6526D02*
X8720D01*
X8110Y6732D02*
X8317Y6526D01*
X4980Y5956D02*
Y6073D01*
X5123Y6216D01*
X5335Y6100D02*
Y6655D01*
X5538Y7170D02*
X5548D01*
X5583Y7205D02*
X5591D01*
X4954Y5929D02*
X4980Y5956D01*
X5123Y6216D02*
Y6755D01*
X5265Y6031D02*
X5335Y6100D01*
X5123Y6755D02*
X5538Y7170D01*
X5548D02*
X5583Y7205D01*
X5335Y6655D02*
X5570Y6890D01*
X7087Y5929D02*
Y6322D01*
X7559Y6438D02*
Y6496D01*
Y6438D02*
X7657Y6340D01*
X6477Y5949D02*
Y6373D01*
X6476D02*
Y6476D01*
X7657Y5949D02*
Y6340D01*
X6929Y6480D02*
X7087Y6322D01*
X7657Y5949D02*
X7677Y5929D01*
X7864D01*
X6142D02*
Y6496D01*
X5787Y5929D02*
Y6456D01*
X5827Y6496D01*
X5432Y5929D02*
X5482D01*
X5413Y5949D02*
X5432Y5929D01*
X5295Y5949D02*
X5413D01*
X5265D02*
Y6031D01*
X6457Y6496D02*
X6476Y6476D01*
X4786Y6903D02*
X5561Y7677D01*
X4786Y6476D02*
Y6903D01*
X5984Y9016D02*
X5994Y9026D01*
X8573Y9518D02*
X8648D01*
X8327Y9272D02*
X8573Y9518D01*
X8004Y9272D02*
X8327D01*
X7849Y9117D02*
X8004Y9272D01*
X7849Y8942D02*
Y9117D01*
X7795Y8888D02*
X7849Y8942D01*
X7795Y8858D02*
Y8888D01*
X4698Y6388D02*
X4786Y6476D01*
X5570Y6890D02*
X5591D01*
X4571Y6388D02*
X4698D01*
X5561Y7677D02*
X5591D01*
X5157Y8780D02*
X5591D01*
X5089Y8848D02*
X5157Y8780D01*
X8648Y9518D02*
X8691Y9561D01*
X8412Y8907D02*
X8677D01*
X8681Y8911D01*
X8127Y8622D02*
X8412Y8907D01*
X8110Y8622D02*
X8127D01*
X8141Y7992D02*
X8426Y7707D01*
X8110Y7992D02*
X8141D01*
X8426Y7707D02*
X8628D01*
Y7612D02*
X8711Y7530D01*
X8628Y7612D02*
Y7707D01*
D18*
X3937Y7461D02*
X4488D01*
X3204Y4592D02*
X3447D01*
X8425Y9744D02*
X8430Y9749D01*
X8415Y9587D02*
Y9744D01*
X8780Y8543D02*
X8943Y8707D01*
X7995Y9449D02*
X8278D01*
X4774Y9815D02*
X4833Y9874D01*
X4715Y9636D02*
Y9874D01*
Y9636D02*
X4758Y9593D01*
Y9537D02*
Y9593D01*
X5082Y9514D02*
X5709D01*
X4833Y9764D02*
X5082Y9514D01*
X4833Y9764D02*
Y9874D01*
X5709Y9514D02*
X5984Y9239D01*
Y9016D02*
Y9239D01*
X7402Y9016D02*
Y9217D01*
X7533Y9349D01*
X7589Y9223D02*
X7757Y9392D01*
X7589Y9222D02*
Y9223D01*
X7559Y9193D02*
X7589Y9222D01*
X7559Y9016D02*
Y9193D01*
X7757Y9392D02*
Y9449D01*
X7533Y9349D02*
Y9449D01*
X8278D02*
X8415Y9587D01*
X7717Y9170D02*
X7995Y9449D01*
X7717Y9016D02*
Y9170D01*
X4773Y7362D02*
X5560Y8150D01*
X4488Y7362D02*
X4773D01*
X4429D02*
X4488D01*
X5560Y8150D02*
X5591D01*
X4183Y7205D02*
X4272D01*
X4429Y7362D01*
X8307Y8543D02*
X8770D01*
X8943Y8707D02*
X9032D01*
X8110Y8465D02*
X8228D01*
X8307Y8543D01*
D20*
X1126Y3287D02*
D03*
X1626D02*
D03*
X2126D02*
D03*
X2626D02*
D03*
X3126D02*
D03*
X1126Y1752D02*
D03*
X1626D02*
D03*
X2126D02*
D03*
X2626D02*
D03*
X3126D02*
D03*
D21*
X2549Y5246D02*
D03*
X2746D02*
D03*
X2943D02*
D03*
Y4528D02*
D03*
X2746D02*
D03*
X2549D02*
D03*
D22*
X3204Y5182D02*
D03*
Y4985D02*
D03*
Y4788D02*
D03*
Y4592D02*
D03*
X2288D02*
D03*
Y4788D02*
D03*
Y4985D02*
D03*
Y5182D02*
D03*
D23*
X2963Y8691D02*
D03*
Y9478D02*
D03*
D24*
X3110Y4134D02*
D03*
X2717D02*
D03*
X6949Y10100D02*
D03*
X6555D02*
D03*
X6732Y9766D02*
D03*
X6339D02*
D03*
X8435Y9744D02*
D03*
X8041D02*
D03*
D25*
X11953Y8150D02*
D03*
X11039D02*
D03*
D26*
X11870Y7746D02*
D03*
Y8553D02*
D03*
X11122D02*
D03*
Y7746D02*
D03*
D27*
X12293Y8278D02*
D03*
Y8671D02*
D03*
X5728Y10246D02*
D03*
Y9852D02*
D03*
X7352Y10266D02*
D03*
Y9872D02*
D03*
D28*
X11772Y5896D02*
D03*
X10197D02*
D03*
X11772Y3238D02*
D03*
X10197D02*
D03*
D29*
X2943Y7992D02*
D03*
Y7598D02*
D03*
D30*
X4758Y9537D02*
D03*
X4533D02*
D03*
X8756Y8150D02*
D03*
X8980D02*
D03*
X8852Y7707D02*
D03*
X8628D02*
D03*
X4346Y6388D02*
D03*
X4571D02*
D03*
X7757Y9449D02*
D03*
X7533D02*
D03*
X8872Y9518D02*
D03*
X8648D02*
D03*
D31*
X9882Y9559D02*
D03*
X9429Y8988D02*
D03*
X9882D02*
D03*
X9429Y9559D02*
D03*
D33*
X7657Y5724D02*
D03*
Y5949D02*
D03*
X6477D02*
D03*
Y5724D02*
D03*
X9203Y8234D02*
D03*
Y8459D02*
D03*
X5265Y5724D02*
D03*
Y5949D02*
D03*
X8898Y8911D02*
D03*
Y8687D02*
D03*
X5000Y9089D02*
D03*
Y8864D02*
D03*
X8681Y8687D02*
D03*
Y8911D02*
D03*
X8543Y8156D02*
D03*
Y8380D02*
D03*
D34*
X4488Y7362D02*
D03*
Y7894D02*
D03*
X5157Y10406D02*
D03*
Y9874D02*
D03*
X4026Y7520D02*
D03*
Y8051D02*
D03*
X4715Y9874D02*
D03*
Y10406D02*
D03*
D35*
X8287Y10148D02*
D03*
X7756D02*
D03*
X6132Y10502D02*
D03*
X6663D02*
D03*
X4911Y8504D02*
D03*
X4380D02*
D03*
D54*
X4191Y2097D02*
D03*
X5238Y2098D02*
D03*
X8238D02*
D03*
X9238D02*
D03*
X7238D02*
D03*
X6238D02*
D03*
X10345Y1991D02*
D03*
X10079Y7087D02*
D03*
X2559Y1102D02*
D03*
X2913Y6811D02*
D03*
X3447Y4592D02*
D03*
X4921Y4537D02*
D03*
X7854Y5423D02*
D03*
X6171Y5433D02*
D03*
X5699Y5453D02*
D03*
X12238Y10098D02*
D03*
Y6098D02*
D03*
Y4098D02*
D03*
Y2098D02*
D03*
X11738Y1098D02*
D03*
X11238Y10098D02*
D03*
Y6098D02*
D03*
Y4098D02*
D03*
Y2098D02*
D03*
X10738Y1098D02*
D03*
X10238Y10098D02*
D03*
X9738Y1098D02*
D03*
X9238Y6098D02*
D03*
X8738Y5098D02*
D03*
Y1098D02*
D03*
X7738Y5098D02*
D03*
X8238Y4098D02*
D03*
X7738Y1098D02*
D03*
X6738D02*
D03*
X6238Y4098D02*
D03*
X5738Y1098D02*
D03*
X4738D02*
D03*
X4238Y10098D02*
D03*
X3738Y7098D02*
D03*
X4238Y6098D02*
D03*
X3738Y1098D02*
D03*
X3238Y10098D02*
D03*
X2738Y7098D02*
D03*
X3238Y6098D02*
D03*
X2238Y10098D02*
D03*
X1738Y9098D02*
D03*
Y5098D02*
D03*
Y1098D02*
D03*
X738Y9098D02*
D03*
X1238Y8098D02*
D03*
X738Y7098D02*
D03*
X1238Y6098D02*
D03*
X738Y5098D02*
D03*
X1238Y4098D02*
D03*
X738Y3098D02*
D03*
X10561Y9469D02*
D03*
X7057Y4488D02*
D03*
X3268Y6358D02*
D03*
X4026Y6378D02*
D03*
X11181Y7087D02*
D03*
X10728Y7825D02*
D03*
X10344D02*
D03*
X10354Y8456D02*
D03*
X10728Y8455D02*
D03*
X11486Y7835D02*
D03*
X11496Y8484D02*
D03*
X9065Y9606D02*
D03*
X9965Y7825D02*
D03*
X9213Y5709D02*
D03*
X4811Y5611D02*
D03*
X4531Y6191D02*
D03*
X3701Y5787D02*
D03*
X7087Y5929D02*
D03*
X4954D02*
D03*
X8376Y5108D02*
D03*
X9420Y8706D02*
D03*
X9880Y9856D02*
D03*
X6634Y5929D02*
D03*
X7864D02*
D03*
X9500Y8456D02*
D03*
X9980D02*
D03*
X9000Y8466D02*
D03*
X6142Y5929D02*
D03*
X5787D02*
D03*
X8583Y5935D02*
D03*
X5432Y5929D02*
D03*
X4360Y9793D02*
D03*
X3730Y9016D02*
D03*
Y8533D02*
D03*
X4793Y8839D02*
D03*
X6250Y10098D02*
D03*
X6516Y9518D02*
D03*
X5463Y9843D02*
D03*
X8012Y9449D02*
D03*
X8474Y7953D02*
D03*
X3730Y10876D02*
D03*
X3730Y9793D02*
D03*
X8376Y10876D02*
D03*
X8681Y9094D02*
D03*
X4685Y9065D02*
D03*
X5728Y10581D02*
D03*
X7219Y10719D02*
D03*
X7766Y9744D02*
D03*
X8701Y9715D02*
D03*
X8927Y9094D02*
D03*
X8494Y8730D02*
D03*
X9114Y8760D02*
D03*
X9498Y7402D02*
D03*
X5157Y10748D02*
D03*
X4843Y7904D02*
D03*
X8711Y7530D02*
D03*
X4183Y7205D02*
D03*
X4350Y10404D02*
D03*
X8720Y6526D02*
D03*
X9430Y10146D02*
D03*
X7382Y10522D02*
D03*
X8967Y9793D02*
D03*
X9616Y7825D02*
D03*
X9970Y10876D02*
D03*
X9065Y7825D02*
D03*
X4035Y8533D02*
D03*
X4715Y10748D02*
D03*
X9075Y10876D02*
D03*
X9016Y6535D02*
D03*
D60*
X5906Y8858D02*
D03*
X5748D02*
D03*
X5591Y7992D02*
D03*
Y7835D02*
D03*
Y7520D02*
D03*
Y7362D02*
D03*
X5748Y7598D02*
D03*
Y7441D02*
D03*
Y7283D02*
D03*
Y7126D02*
D03*
Y6811D02*
D03*
X5591Y6732D02*
D03*
X5748Y6654D02*
D03*
X5906D02*
D03*
X6063D02*
D03*
X5984Y6496D02*
D03*
X6220Y6654D02*
D03*
X6378D02*
D03*
X6299Y6496D02*
D03*
X6535Y6654D02*
D03*
X6693D02*
D03*
X6614Y6496D02*
D03*
X6850Y6654D02*
D03*
X6772Y6496D02*
D03*
X7008Y6654D02*
D03*
X7165D02*
D03*
X7717Y6496D02*
D03*
X7795Y6654D02*
D03*
X7874Y6496D02*
D03*
X7953Y6654D02*
D03*
X8110Y7047D02*
D03*
Y7677D02*
D03*
X7480Y8858D02*
D03*
X7323D02*
D03*
X5748Y8071D02*
D03*
Y7913D02*
D03*
X5591Y7047D02*
D03*
X5748Y6969D02*
D03*
X7087Y6496D02*
D03*
X7323Y6654D02*
D03*
X7244Y6496D02*
D03*
X7480Y6654D02*
D03*
X7402Y6496D02*
D03*
X7638Y6654D02*
D03*
X8110Y7835D02*
D03*
X7165Y8858D02*
D03*
X7008D02*
D03*
X6929Y9016D02*
D03*
X6850Y8858D02*
D03*
X6693D02*
D03*
X8110Y7520D02*
D03*
Y7362D02*
D03*
Y8780D02*
D03*
X7953Y8858D02*
D03*
X7717Y9016D02*
D03*
X7559Y6496D02*
D03*
X6929D02*
D03*
X6457D02*
D03*
X6142D02*
D03*
X5827D02*
D03*
X5591Y6890D02*
D03*
X8110Y7205D02*
D03*
X5591D02*
D03*
Y7677D02*
D03*
X5748Y7756D02*
D03*
X8110Y7992D02*
D03*
Y8150D02*
D03*
X5591D02*
D03*
X5748Y8228D02*
D03*
X8110Y8307D02*
D03*
X5591D02*
D03*
X5748Y8386D02*
D03*
X8110Y8465D02*
D03*
X5591D02*
D03*
X5748Y8543D02*
D03*
X8110Y8622D02*
D03*
X5591D02*
D03*
X5748Y8701D02*
D03*
X5591Y8780D02*
D03*
X6535Y8858D02*
D03*
X6378D02*
D03*
X6220D02*
D03*
X6063D02*
D03*
X7559Y9016D02*
D03*
X7402D02*
D03*
X7244D02*
D03*
X7087D02*
D03*
X6772D02*
D03*
X6614D02*
D03*
X5984D02*
D03*
X7638Y8858D02*
D03*
X7795D02*
D03*
X8110Y6890D02*
D03*
Y6732D02*
D03*
D61*
X5591Y9016D02*
D03*
Y6496D02*
D03*
X8110D02*
D03*
Y9016D02*
D03*
D62*
X6929Y7756D02*
D03*
D63*
X7160Y10054D02*
X7352Y9862D01*
X6949Y10100D02*
Y10108D01*
Y9272D02*
Y10100D01*
X6900Y10149D02*
Y10255D01*
X6663Y10492D02*
X6900Y10255D01*
X8110Y8150D02*
X8756D01*
X7569Y9961D02*
X7756Y10148D01*
X7569Y9734D02*
Y9961D01*
X7244Y9409D02*
X7569Y9734D01*
X6614Y9154D02*
X6732Y9272D01*
X6614Y9016D02*
Y9154D01*
X6732Y9272D02*
Y9766D01*
X6772Y9016D02*
Y9094D01*
X6949Y9272D01*
X7244Y9016D02*
Y9409D01*
X6535Y8307D02*
Y8858D01*
X7087Y9447D02*
X7323Y9683D01*
X7087Y9016D02*
Y9447D01*
X7638Y8307D02*
Y8858D01*
X7323Y9683D02*
Y9862D01*
X6378Y8307D02*
X6929Y7756D01*
X7352Y10482D02*
X7382Y10512D01*
X7352Y10256D02*
Y10482D01*
X8494Y8730D02*
X8537Y8687D01*
X8898Y9065D02*
X8927Y9094D01*
X8898Y8911D02*
Y9065D01*
X7160Y10054D02*
Y10659D01*
X7219Y10719D01*
X7480Y8307D02*
X8352D01*
X8425Y8380D01*
X8543D01*
X6929Y7756D02*
X7045D01*
D64*
X5768Y9806D02*
Y9874D01*
X6004Y10344D02*
X6181Y10522D01*
X6004Y9744D02*
X6361Y9387D01*
X6004Y9744D02*
Y10344D01*
X6361Y8875D02*
Y9387D01*
X5768Y9806D02*
X6237Y9337D01*
X5390Y9639D02*
X5761D01*
X5157Y9872D02*
X5390Y9639D01*
X3932Y8135D02*
X5143D01*
X5276Y9872D02*
Y9874D01*
X5761Y9639D02*
X6115Y9286D01*
X6237Y8875D02*
Y9337D01*
X6115Y8966D02*
Y9286D01*
X6484Y8966D02*
Y9488D01*
X6361Y8875D02*
X6378Y8858D01*
X6220D02*
X6237Y8875D01*
X6484Y8965D02*
X6535Y8858D01*
X6063D02*
X6115Y8965D01*
X5315Y8307D02*
X5591D01*
Y8465D02*
X5748Y8386D01*
X5299Y8465D02*
X5591D01*
X5143Y8135D02*
X5315Y8307D01*
X5095Y8260D02*
X5299Y8465D01*
X4623Y8260D02*
X5095D01*
X4380Y8504D02*
X4623Y8260D01*
X5748Y8386D02*
X6024D01*
D65*
X9085Y8150D02*
X10844Y8149D01*
D66*
X14136Y8146D02*
X14750Y7532D01*
Y507D02*
Y7514D01*
X12290Y8146D02*
X14136D01*
D67*
X5992Y9026D02*
Y9061D01*
D68*
X7559Y9016D02*
X7638Y8858D01*
D69*
X5276Y8622D02*
X5591D01*
X5151Y8497D02*
X5276Y8622D01*
X4997Y8497D02*
X5151D01*
X4990Y8504D02*
X4997Y8497D01*
D70*
X8681Y8911D02*
Y9094D01*
D71*
X11614Y0D02*
D03*
X11220D02*
D03*
X10827D02*
D03*
X0Y8268D02*
D03*
Y8661D02*
D03*
Y9055D02*
D03*
X15315Y8268D02*
D03*
Y8661D02*
D03*
Y9055D02*
D03*
X11614Y11220D02*
D03*
X11220D02*
D03*
X10827D02*
D03*
D72*
X2136Y7307D02*
D03*
D73*
Y8307D02*
D03*
X8094Y3268D02*
D03*
X7094D02*
D03*
X6094D02*
D03*
X5094D02*
D03*
X4094D02*
D03*
D74*
X9094D02*
D03*
D75*
X6142Y8465D02*
D03*
X6667D02*
D03*
X7192D02*
D03*
X7717D02*
D03*
X6142Y7992D02*
D03*
X6667D02*
D03*
X7192D02*
D03*
X7717D02*
D03*
X6142Y7520D02*
D03*
X6667D02*
D03*
X7192D02*
D03*
X7717D02*
D03*
X6142Y7047D02*
D03*
X6667D02*
D03*
X7192D02*
D03*
X7717D02*
D03*
M02*
