M48
;Layer_Color=9474304
;FILE_FORMAT=2:4
INCH,TZ
;TYPE=PLATED
T01F00S00C0.0098
T02F00S00C0.0120
T03F00S00C0.0354
;TYPE=NON_PLATED
T04F00S00C0.0236
%
T01
X6643Y9003
Y11003
Y13003
Y15003
X7643
X8143Y16003
X9143
X9636Y15699
X10266
X10143Y16003
X10256Y16309
X11634Y16486
X12156Y16004
X12421Y15423
X11368Y15748
X10591Y14970
X10699Y14744
X10748Y13809
X10089Y13110
X9643Y13003
X8643
X8819Y12717
X9173Y12264
X9143Y12003
X9606Y11693
X10143Y12003
X10437Y12096
X10859Y11835
X10716Y11516
X11338Y11835
X11692
X12047
X12540
X12992
X13770
X13760Y11329
X13643Y11003
X14282Y11014
X14643Y11003
X14488Y11841
X14626Y12431
X14921Y12441
X15143Y12003
X15118Y11614
X15404Y13307
X15522Y13730
X15870
X16250
X16634
Y14360
X16260Y14361
X15886
X15406
X15326Y14611
X15020Y14665
X14906Y14371
X14833Y15000
X14587
X14400Y14636
X14380Y13858
X14616Y13435
X14970Y13730
X15984Y12992
X17087
X17143Y12003
X18143
Y10003
X17143
Y8003
X18143
X17643Y7003
X16643
X15643
X14643
X13643
X12643
X11643
X10643
X9643
X8465Y7008
X7643Y7003
X10097Y8003
X11143Y8003
X12143
X13143
X14143
X15143
X16250Y7896
X14143Y10003
X12963Y10394
X12143Y10003
X12077Y11339
X11604Y11358
X10827Y10443
X9353Y10497
X7643Y11003
X7143Y12003
Y14003
X9636Y14439
X9941
X9636Y14921
X9931Y12283
X7143Y10003
X13917Y15354
X13671Y15650
X14606Y15620
X14872Y15699
X14970Y15512
X15336Y16051
X15786Y15761
X16143Y16003
X16467Y15374
X17143Y16003
X18143
X17402Y14390
X17392Y13740
X13287Y16427
X22746Y15003
X23746
X24246Y16003
X25246
X25738Y15699
X26368
X26246Y16003
X26358Y16309
X27736Y16486
X28258Y16004
X28524Y15423
X27470Y15748
X26693Y14970
X26801Y14744
X26850Y13809
X26191Y13110
X25746Y13003
X24746
X24921Y12717
X25276Y12264
X25246Y12003
X25709Y11693
X26246Y12003
X26539Y12096
X26962Y11835
X26818Y11516
X27440Y11835
X27795
X28150
X28642
X29094
X29872
X29862Y11329
X29746Y11003
X30384Y11014
X30746Y11003
X30591Y11841
X30728Y12431
X31024Y12441
X31246Y12003
X31220Y11614
X31506Y13307
X31624Y13730
X31973
X32352
X32736
Y14360
X32362Y14361
X31988
X31508
X31428Y14611
X31122Y14665
X31008Y14371
X30935Y15000
X30689
X30502Y14636
X30482Y13858
X30719Y13435
X31073Y13730
X32087Y12992
X33189
X33246Y12003
X34246
Y10003
X33246
Y8003
X34246
X33746Y7003
X32746
X31746
X30746
X29746
X28746
X27746
X26746
X25746
X24567Y7008
X23746Y7003
X22746Y9003
X23246Y10003
X23746Y11003
X22746
X23246Y12003
X22746Y13003
X23246Y14003
X25738Y14439
X26043
X25738Y14921
X26033Y12283
X25455Y10497
X26929Y10443
X27707Y11358
X28179Y11339
X28246Y10003
X29065Y10394
X30246Y10003
Y8003
X31246
X32353Y7896
X29246Y8003
X28246
X27246
X26199Y8003
X30020Y15354
X29774Y15650
X30709Y15620
X30974Y15699
X31073Y15512
X31438Y16051
X31888Y15761
X32246Y16003
X32569Y15374
X33246Y16003
X34246
X33504Y14390
X33494Y13740
X29390Y16427
X29227Y16624
X30384Y16782
X31083
X31978
X31746Y19011
X32746
X33746
X34246Y20011
X33246
X32353Y19904
X31246Y20011
X30246
X29246
X28246
X27246
X26199Y20011
X25746Y19011
X26746
X27746
X28746
X29746
X30746
X30246Y22011
X30384Y23022
X30746Y23011
X30591Y23848
X29872Y23843
X29862Y23337
X29746Y23011
X29065Y22402
X28246Y22011
X28179Y23346
X27707Y23366
X27795Y23843
X27440
X26962
X26818Y23524
X26539Y24104
X26246Y24011
X26033Y24291
X25276Y24272
X25246Y24011
X25709Y23701
X25746Y25011
X26191Y25118
X26850Y25817
X26801Y26752
X26693Y26978
X25738Y26929
Y26447
X26043
X25738Y27707
X26368
X26246Y28011
X26358Y28317
X26722Y28661
X27165
X27736Y28494
X28258Y28012
X28524Y27431
X27470Y27756
X29774Y27657
X30020Y27362
X30709Y27628
X30974Y27707
X31073Y27520
X30935Y27008
X30689
X30502Y26644
X31122Y26673
X31428Y26619
X31508Y26369
X31988
X32362
X32736Y26368
Y25738
X32352
X31973
X31624
X31506Y25315
X31073Y25738
X30719Y25443
X30482Y25866
X31008Y26379
X31024Y24449
X30728Y24439
X31246Y24011
X31220Y23622
X32087Y25000
X33189
X33246Y24011
X34246
Y22011
X33246
X33494Y25748
X33504Y26398
X33246Y28011
X34246
X32246
X31888Y27769
X31438Y28059
X31083Y28789
X30384
X29227Y28632
X29390Y28435
X31978Y28789
X32569Y27382
X29094Y23843
X28642
X28150
X26929Y22451
X25455Y22505
X23746Y23011
X22746
X23246Y24011
X22746Y25011
X23246Y26011
X23746Y27011
X22746
X24246Y28011
X25246
X25738Y28789
X24746Y25011
X24921Y24724
X23246Y22011
X22746Y21011
X23746Y19011
X24567Y19016
X25738Y16782
X26722Y16654
X27165
X15876Y16782
X14980
X14282
X13125Y16624
X11063Y16654
X10620
X9636Y16782
X9643Y19011
X10643
X11643
X12643
X13643
X14643
X15643
X16643
X17643
X18143Y20011
X17143
X16250Y19904
X15143Y20011
X14143
X13143
X12143
X11143
X10097Y20011
X8465Y19016
X7643Y19011
X7143Y22011
X7643Y23011
X7143Y24011
X9143
X9173Y24272
X9931Y24291
X10143Y24011
X10437Y24104
X10859Y23843
X10716Y23524
X11338Y23843
X11692
X12047
X12540
X12992
X13770
X13760Y23337
X13643Y23011
X14282Y23022
X14643Y23011
X14488Y23848
X14626Y24439
X14921Y24449
X15143Y24011
X15118Y23622
X15404Y25315
X15522Y25738
X15870
X16250
X16634
Y26368
X16260Y26369
X15886
X15406
X15326Y26619
X15020Y26673
X14906Y26379
X14833Y27008
X14587
X14400Y26644
X14380Y25866
X14616Y25443
X14970Y25738
X15984Y25000
X17087
X17143Y24011
X18143
Y22011
X17143
X14143
X12963Y22402
X12143Y22011
X12077Y23346
X11604Y23366
X10827Y22451
X9353Y22505
X9606Y23701
X9643Y25011
X10089Y25118
X10748Y25817
X10699Y26752
X10591Y26978
X9636Y26929
Y26447
X9941
X9636Y27707
X10266
X10143Y28011
X10256Y28317
X10620Y28661
X11063
X11634Y28494
X12156Y28012
X12421Y27431
X11368Y27756
X13671Y27657
X13917Y27362
X14606Y27628
X14872Y27707
X14970Y27520
X15336Y28059
X15786Y27769
X16143Y28011
X16467Y27382
X17143Y28011
X18143
X17402Y26398
X17392Y25748
X15876Y28789
X14980
X14282
X13125Y28632
X13287Y28435
X9636Y28789
X9143Y28011
X8143
X7643Y27011
X7143Y26011
X8643Y25011
X8819Y24724
X6643Y25011
Y27011
Y23011
Y21011
T02
X12047Y12953
Y13425
Y13898
Y14370
X12572
Y13898
Y13425
Y12953
X13097
Y13425
Y13898
Y14370
X13622
Y13898
Y13425
Y12953
X28150
Y13425
Y13898
Y14370
X28675
Y13898
Y13425
Y12953
X29199
Y13425
Y13898
Y14370
X29724
Y13898
Y13425
Y12953
Y24961
Y25433
Y25906
Y26378
X29199
Y25906
Y25433
Y24961
X28675
Y25433
Y25906
Y26378
X28150
Y25906
Y25433
Y24961
X13622
Y25433
Y25906
Y26378
X13097
Y25906
Y25433
Y24961
X12572
Y25433
Y25906
Y26378
X12047
Y25906
Y25433
Y24961
T03
X10000Y9173
X11000
X12000
X13000
X14000
X15000
X8041Y13213
Y14213
X24144
Y13213
X26102Y9173
X27102
X28102
X29102
X30102
X31102
Y21181
X30102
X29102
X28102
X27102
X26102
X24144Y25220
Y26220
X15000Y21181
X14000
X13000
X12000
X11000
X10000
X8041Y25220
Y26220
T04
X37323Y236
Y630
X5906Y659
Y266
Y1053
Y1447
Y1840
Y2234
Y2628
Y3022
Y3415
Y3809
Y4203
Y4596
Y4990
Y14173
Y14567
Y14961
X21220
Y14567
Y14173
X22008
Y14567
Y14961
X17520Y5906
X17126
X16732
X32835
X33228
X33622
X37323Y4961
Y4567
Y4173
Y3780
Y3386
Y2992
Y2598
Y2205
Y1811
Y1417
Y1024
X37323Y14173
Y14567
Y14961
X33622Y17126
X33228
X32835
Y17913
X33228
X33622
Y29134
X33228
X32835
X37323Y30079
Y30472
Y30866
Y31260
Y31654
Y32047
X37323Y26969
Y26575
Y26181
X22008
Y26575
Y26969
X21220
Y26575
Y26181
X17520Y29134
X17126
X16732
Y17913
X17126
X17520
Y17126
X17126
X16732
X5906Y26181
Y26575
Y26969
Y30100
Y30494
Y30888
Y31282
Y31675
Y32069
Y32463
Y32856
Y33250
Y33644
Y34037
Y34431
Y34825
X37323Y34803
Y34409
Y34016
Y33622
Y33228
Y32835
Y32441
M30
